<?xml version="1.0" encoding="UTF-8" standalone="no"?><!DOCTYPE svg PUBLIC "-//W3C//DTD SVG 1.1//EN" "http://www.w3.org/Graphics/SVG/1.1/DTD/svg11.dtd"><svg width="100%" height="100%" viewBox="0 0 751 751" version="1.1" xmlns="http://www.w3.org/2000/svg" xmlns:xlink="http://www.w3.org/1999/xlink" xml:space="preserve" xmlns:serif="http://www.serif.com/" style="fill-rule:evenodd;clip-rule:evenodd;stroke-linejoin:round;stroke-miterlimit:2;"><rect id="boom" x="0.738" y="0.671" width="750" height="750" style="fill:none;"/><g><path d="M390.64,79.553l52.665,117.282l106.304,-76.128l-15.087,127.01l131.461,-14.576l-78.796,102.706l121.391,50.882l-121.391,50.882l78.796,102.706l-131.461,-14.576l15.087,127.01l-106.304,-76.128l-52.665,117.281l-52.665,-117.281l-106.304,76.128l15.087,-127.01l-131.461,14.576l78.796,-102.706l-121.391,-50.882l121.391,-50.882l-78.796,-102.706l131.461,14.576l-15.087,-127.01l106.304,76.128l52.665,-117.282Z" style="fill:#ffb2b4;fill-rule:nonzero;"/><path d="M451.878,165.071c0,0 66.599,-47.694 102.176,-73.172c3.813,-2.73 8.878,-2.953 12.915,-0.567c4.037,2.386 6.285,6.93 5.732,11.587c-1.255,10.564 -2.405,20.245 -2.405,20.245l-11.992,100.954c0,0 82.055,-9.098 126.355,-14.009c4.715,-0.523 9.286,1.82 11.616,5.952c2.33,4.132 1.968,9.256 -0.92,13.02c-26.588,34.656 -75.187,98.002 -75.187,98.002c0,0 75.186,31.515 116.255,48.729c4.399,1.844 7.262,6.148 7.262,10.917c0,4.77 -2.863,9.074 -7.262,10.917c-41.069,17.214 -116.255,48.729 -116.255,48.729c0,0 48.599,63.346 75.187,98.002c2.887,3.764 3.249,8.887 0.92,13.02c-2.33,4.132 -6.901,6.474 -11.616,5.952c-44.3,-4.912 -126.355,-14.009 -126.355,-14.009c0,0 9.34,78.626 14.397,121.2c0.553,4.657 -1.695,9.201 -5.732,11.587c-4.037,2.386 -9.102,2.164 -12.915,-0.567c-35.577,-25.478 -102.176,-73.172 -102.176,-73.172c0,0 -32.862,73.18 -50.44,112.326c-1.91,4.253 -6.137,6.988 -10.799,6.988c-4.662,0 -8.889,-2.736 -10.799,-6.988c-17.578,-39.146 -50.44,-112.326 -50.44,-112.326c0,0 -66.599,47.694 -102.176,73.172c-3.813,2.73 -8.878,2.953 -12.915,0.567c-4.037,-2.386 -6.285,-6.93 -5.732,-11.587c5.057,-42.573 14.397,-121.2 14.397,-121.2c0,0 -82.055,9.098 -126.355,14.009c-4.715,0.523 -9.286,-1.82 -11.616,-5.952c-2.33,-4.132 -1.968,-9.256 0.92,-13.02c26.588,-34.656 75.187,-98.002 75.187,-98.002c0,0 -75.186,-31.515 -116.256,-48.729c-4.399,-1.844 -7.262,-6.148 -7.262,-10.917c0,-4.77 2.863,-9.074 7.262,-10.917c41.069,-17.214 116.256,-48.729 116.256,-48.729c0,0 -48.599,-63.346 -75.187,-98.002c-2.887,-3.764 -3.249,-8.887 -0.92,-13.02c2.33,-4.132 6.901,-6.474 11.616,-5.952c44.3,4.912 126.355,14.009 126.355,14.009c0,0 -9.34,-78.626 -14.397,-121.199c-0.553,-4.657 1.695,-9.201 5.732,-11.587c4.037,-2.386 9.102,-2.164 12.915,0.567c35.577,25.478 102.176,73.172 102.176,73.172c0,0 32.862,-73.181 50.44,-112.326c1.91,-4.253 6.137,-6.988 10.799,-6.988c4.662,0 8.889,2.736 10.799,6.988c17.578,39.146 50.44,112.326 50.44,112.326Zm-61.239,-85.517l-52.665,117.282l-106.304,-76.128l15.087,127.01l-131.461,-14.576l78.796,102.706l-121.391,50.882l121.391,50.882l-78.796,102.706l131.461,-14.576l-15.087,127.01l106.304,-76.128l52.665,117.281l52.665,-117.281l106.304,76.128l-15.087,-127.01l131.461,14.576l-78.796,-102.706l121.391,-50.882l-121.391,-50.882l78.796,-102.706l-131.461,14.576l15.087,-127.01l-106.304,76.128l-52.665,-117.282Z" style="fill:#fff;"/></g><path d="M389.89,79.553l52.665,117.282l106.304,-76.128l-15.087,127.01l131.461,-14.576l-78.796,102.706l121.391,50.882l-121.391,50.882l78.796,102.706l-131.461,-14.576l15.087,127.01l-106.304,-76.128l-52.665,117.281l-52.665,-117.281l-106.304,76.128l15.087,-127.01l-131.461,14.576l78.796,-102.706l-121.391,-50.882l121.391,-50.882l-78.796,-102.706l131.461,14.576l-15.087,-127.01l106.304,76.128l52.665,-117.282Z" style="fill:#ec7676;fill-rule:nonzero;"/><path d="M444.27,190.482l109.841,-78.661l-15.582,131.176l135.96,-15.074l-81.455,106.171l125.574,52.635l-125.574,52.635l81.455,106.171l-135.96,-15.074l15.582,131.176l-109.841,-78.661l-54.38,121.1l-54.38,-121.1l-109.841,78.661l15.582,-131.176l-135.96,15.074l81.454,-106.171l-125.574,-52.635l125.574,-52.635l-81.454,-106.171l135.96,15.074l-15.582,-131.176l109.841,78.661l54.38,-121.1l54.38,121.101Zm-54.38,-100.758l-50.951,113.463l-102.768,-73.595l14.592,122.843l-126.962,-14.077l76.137,99.241l-117.209,49.129l117.209,49.129l-76.137,99.241l126.962,-14.077l-14.592,122.844l102.767,-73.595l50.951,113.463l50.951,-113.463l102.768,73.595l-14.592,-122.844l126.963,14.077l-76.137,-99.241l117.209,-49.129l-117.209,-49.129l76.137,-99.241l-126.963,14.077l14.592,-122.843l-102.768,73.595l-50.951,-113.463Z" style="fill:#252525;"/><path d="M277.433,396.064l7.829,-2.694c1.603,4.66 5.489,7.307 9.986,8.042c12.001,1.962 27.46,-8.836 24.674,-31.567l8.218,-1.007c3.701,30.19 -18.289,43.352 -34.228,40.746c-7.476,-1.222 -13.814,-5.773 -16.479,-13.52Z" style="fill:#252525;"/><path d="M244.449,314.775c5.408,-1.302 11.131,0.386 16.049,4.41c4.921,4.024 8.947,10.328 10.82,17.982c1.871,7.655 1.204,15.089 -1.31,20.903c-2.514,5.814 -6.819,9.921 -12.227,11.224c-5.407,1.302 -11.131,-0.387 -16.051,-4.41c-4.92,-4.024 -8.945,-10.328 -10.818,-17.982c-1.871,-7.655 -1.206,-15.089 1.308,-20.904c2.515,-5.814 6.822,-9.919 12.229,-11.222Z" style="fill:#fff;fill-rule:nonzero;"/><path d="M244.061,313.165c5.886,-1.417 12.132,0.358 17.485,4.738c5.168,4.225 9.413,10.833 11.38,18.87c1.965,8.041 1.242,15.847 -1.398,21.953c-2.738,6.332 -7.47,10.757 -13.36,12.177c-5.885,1.417 -12.132,-0.36 -17.487,-4.738c-5.166,-4.225 -9.412,-10.834 -11.378,-18.87c-1.965,-8.04 -1.243,-15.847 1.397,-21.955c2.739,-6.332 7.473,-10.755 13.361,-12.175Zm0.775,3.22c-4.925,1.187 -8.805,4.973 -11.097,10.27c-2.387,5.523 -2.997,12.584 -1.22,19.854c1.779,7.271 5.584,13.271 10.258,17.093c4.485,3.667 9.686,5.268 14.615,4.082c4.927,-1.187 8.805,-4.975 11.095,-10.271c2.387,-5.521 2.998,-12.582 1.221,-19.852c-1.779,-7.271 -5.584,-13.271 -10.26,-17.093c-4.483,-3.668 -9.683,-5.268 -14.613,-4.082Z" style="fill:#252525;"/><path d="M331.231,290.64c5.407,-1.302 11.13,0.386 16.049,4.408c4.921,4.024 8.947,10.33 10.818,17.983c1.873,7.655 1.206,15.089 -1.308,20.903c-2.514,5.814 -6.819,9.921 -12.227,11.222c-5.407,1.303 -11.131,-0.386 -16.051,-4.41c-4.92,-4.024 -8.947,-10.326 -10.818,-17.98c-1.871,-7.655 -1.206,-15.091 1.308,-20.904c2.514,-5.814 6.821,-9.919 12.229,-11.222Z" style="fill:#fff;fill-rule:nonzero;"/><path d="M330.844,289.03c5.885,-1.417 12.13,0.358 17.485,4.736c5.168,4.225 9.414,10.835 11.379,18.872c1.967,8.041 1.243,15.847 -1.397,21.953c-2.738,6.332 -7.47,10.757 -13.36,12.175c-5.885,1.418 -12.132,-0.358 -17.487,-4.738c-5.166,-4.225 -9.414,-10.832 -11.378,-18.869c-1.965,-8.041 -1.243,-15.848 1.397,-21.955c2.738,-6.332 7.471,-10.756 13.361,-12.175Zm0.775,3.22c-4.927,1.187 -8.807,4.973 -11.097,10.27c-2.387,5.521 -2.997,12.584 -1.22,19.854c1.778,7.271 5.584,13.269 10.258,17.092c4.485,3.668 9.686,5.27 14.615,4.082c4.926,-1.186 8.805,-4.973 11.095,-10.269c2.387,-5.521 2.998,-12.582 1.22,-19.852c-1.778,-7.271 -5.583,-13.272 -10.258,-17.095c-4.485,-3.667 -9.685,-5.267 -14.613,-4.08Z" style="fill:#252525;"/><path d="M241.772,333.116c3.82,-0.943 8.206,3.422 9.789,9.741c1.583,6.319 -0.233,12.214 -4.053,13.156c-3.82,0.943 -8.206,-3.422 -9.789,-9.741c-1.583,-6.319 0.233,-12.214 4.053,-13.156Z" style="fill:#6a6a6a;"/><path d="M241.772,333.116c3.82,-0.943 8.206,3.422 9.789,9.741c1.583,6.319 -0.233,12.214 -4.053,13.156c-3.82,0.943 -8.206,-3.422 -9.789,-9.741c-1.583,-6.319 0.233,-12.214 4.053,-13.156Z" style="fill:#6a6a6a;"/><path d="M241.772,333.116c3.82,-0.943 8.206,3.422 9.789,9.741c1.583,6.319 -0.233,12.214 -4.053,13.156c-3.82,0.943 -8.206,-3.422 -9.789,-9.741c-1.583,-6.319 0.233,-12.214 4.053,-13.156Z" style="fill:#252525;"/><path d="M325.297,309.62c3.82,-0.943 8.206,3.422 9.789,9.741c1.583,6.319 -0.233,12.214 -4.053,13.156c-3.82,0.943 -8.206,-3.422 -9.789,-9.741c-1.583,-6.319 0.233,-12.214 4.053,-13.156Z" style="fill:#6a6a6a;"/><path d="M325.297,309.62c3.82,-0.943 8.206,3.422 9.789,9.741c1.583,6.319 -0.233,12.214 -4.053,13.156c-3.82,0.943 -8.206,-3.422 -9.789,-9.741c-1.583,-6.319 0.233,-12.214 4.053,-13.156Z" style="fill:#6a6a6a;"/><path d="M325.297,309.62c3.82,-0.943 8.206,3.422 9.789,9.741c1.583,6.319 -0.233,12.214 -4.053,13.156c-3.82,0.943 -8.206,-3.422 -9.789,-9.741c-1.583,-6.319 0.233,-12.214 4.053,-13.156Z" style="fill:#252525;"/><path d="M317.639,252.187l7.481,3.605l-20.576,42.701l-7.481,-3.605l20.576,-42.701Z" style="fill:#252525;"/></svg>