<?xml version="1.0" encoding="UTF-8" standalone="no"?><!DOCTYPE svg PUBLIC "-//W3C//DTD SVG 1.1//EN" "http://www.w3.org/Graphics/SVG/1.1/DTD/svg11.dtd"><svg width="100%" height="100%" viewBox="0 0 751 751" version="1.1" xmlns="http://www.w3.org/2000/svg" xmlns:xlink="http://www.w3.org/1999/xlink" xml:space="preserve" xmlns:serif="http://www.serif.com/" style="fill-rule:evenodd;clip-rule:evenodd;stroke-linejoin:round;stroke-miterlimit:2;"><rect id="dream" x="0.423" y="0.737" width="750" height="750" style="fill:none;"/><path d="M71.044,332.992c-0.838,-1.234 -1.671,-2.52 -2.499,-3.86c-4.36,-7.055 -6.371,-17.56 -2.327,-30.059c4.669,-14.43 17.665,-31.858 45.322,-49.394c-17.804,-19.691 -26.49,-49.004 -11.453,-79.522c16.882,-34.262 46.63,-52.103 75.391,-53.145c0.738,-2.514 1.688,-4.881 2.827,-7.106c5.811,-11.35 16.63,-19.143 29.969,-23.767c18.069,-6.264 40.802,-6.704 61.064,-2.811c4.34,-12.046 11.547,-20.405 20.385,-25.783c23.36,-14.216 59.112,-7.405 86.153,8.798c1.042,0.624 2.07,1.262 3.084,1.913c3.648,-4.722 8.148,-9.075 13.608,-12.837c37.896,-26.11 75.39,-1.239 95.973,34.547c1.075,1.868 2.102,3.766 3.081,5.685c9.673,-6.504 20.906,-11.107 33.572,-12.594c25.15,-2.954 42.751,2.929 54.55,13.673c14.104,12.844 19.966,32.922 20.154,54.089c7.066,-1.423 14.689,-1.878 22.858,-1.111c33.684,3.165 53.625,17.281 62.075,36.153c8.465,18.907 5.328,43.03 -7.78,66.51c7.679,4.45 13.866,10.948 17.098,19.511c4.717,12.499 3.221,29.747 -9.996,51.842c13.962,1.128 25.57,8.106 30.116,23.766c7.919,27.281 -1.034,57.184 -18.129,81.815c7.431,2.421 13.801,6.257 18.522,11.76c9.37,10.924 12.568,28.691 3.749,55.914c-14.29,44.114 -38.345,68.603 -64.189,80.415c-21.646,9.893 -44.619,10.871 -64.454,6.867c-6.417,23.502 -20.59,47.675 -42.274,61.256c-20.156,12.625 -38.784,14.5 -54.332,10.088c-4.977,-1.412 -9.643,-3.478 -13.949,-6.059c-10.134,19.481 -27.248,35.325 -53.308,38.823c-43.876,5.889 -78.189,-10.532 -96.126,-32.141c-4.965,5.199 -10.483,10.247 -16.544,14.965c-19.517,15.195 -35.977,23.519 -49.546,26.843c-14.35,3.515 -25.662,1.535 -34.212,-3.808c-8.007,-5.003 -13.647,-13.024 -17.001,-22.646c-3.695,-10.603 -4.602,-23.172 -2.968,-35.519c-7.704,2.681 -15.598,4.798 -23.366,6.074c-20.099,3.301 -39.331,0.926 -52.687,-11.1c-19.996,-18.004 -26.313,-35.429 -25.405,-50.482c-3.53,0.321 -6.121,0.38 -7.232,0.405c-21.091,0.472 -39.038,-19.465 -47.471,-45.453c-6.73,-20.742 -7.43,-45.04 0.611,-64.912c-7.738,-1.718 -14.444,-6.22 -18.911,-14.614c-18.919,-35.549 -0.923,-87.63 29.528,-117.201c2.103,-2.042 4.262,-3.975 6.471,-5.788Z" style="fill:#c0dcef;"/><path d="M45.553,328.439c-3.055,-9.889 -3.597,-22.059 0.843,-35.78c4.531,-14.004 14.982,-30.847 36.2,-47.913c-12.955,-23.621 -16.251,-53.246 -1.198,-83.797c18.167,-36.87 48.802,-57.772 79.876,-63.315c8.411,-14.517 22.531,-25.063 40.175,-31.179c16.633,-5.766 36.617,-7.508 55.943,-5.798c5.823,-9.008 13.192,-15.854 21.498,-20.909c25.982,-15.811 64.414,-12.564 96.352,2.649c1.747,-1.43 3.581,-2.81 5.504,-4.134c45.053,-31.041 90.692,-9.568 118.594,29.941c7.311,-2.852 15.128,-4.864 23.422,-5.838c32.868,-3.86 55.588,4.919 71.007,18.961c13.146,11.972 21.254,28.623 24.825,47.242c2.008,0.072 4.044,0.203 6.108,0.397c43.495,4.086 68.23,24.013 79.14,48.382c8.921,19.925 8.675,44.48 -1.072,69.306c4.604,5.134 8.312,11.103 10.867,17.872c4.6,12.189 5.751,27.913 -0.77,46.976c9.775,6.268 17.319,16.1 21.406,30.18c7.608,26.21 2.998,54.546 -9.546,80.046c2.054,1.782 3.972,3.706 5.745,5.773c12.756,14.871 19.761,38.835 7.755,75.898c-16.617,51.298 -45.295,79.207 -75.348,92.943c-19.52,8.922 -39.935,11.856 -58.973,10.718c-9.284,22.233 -24.597,43.11 -45.356,56.113c-26.322,16.487 -50.775,18.236 -71.079,12.474l-0.272,-0.078c-13.424,17.187 -32.604,29.968 -58.526,33.448c-41.679,5.594 -75.958,-6.198 -99.096,-24.224c-1.164,0.957 -2.346,1.903 -3.547,2.838c-22.532,17.542 -41.723,26.802 -57.387,30.639c-21.098,5.168 -37.637,1.48 -50.208,-6.376c-11.918,-7.447 -20.642,-19.136 -25.633,-33.457c-1.719,-4.932 -2.987,-10.197 -3.801,-15.66c-26.629,4.263 -51.78,-0.315 -69.487,-16.259c-17.449,-15.711 -26.453,-31.358 -30.203,-45.898c-24.295,-5.29 -45.796,-27.914 -55.781,-58.684c-6.2,-19.108 -7.993,-40.689 -4.271,-60.55c-4.863,-3.954 -9.133,-9.096 -12.604,-15.619c-21.872,-41.098 -4.884,-101.008 28.901,-137.329Zm25.49,4.552c-2.209,1.813 -4.369,3.747 -6.471,5.788c-30.452,29.571 -48.447,81.652 -29.528,117.201c4.467,8.394 11.173,12.896 18.911,14.614c-8.042,19.872 -7.342,44.17 -0.611,64.912c8.433,25.988 26.38,45.925 47.471,45.453c1.111,-0.025 3.702,-0.084 7.232,-0.405c-0.908,15.053 5.409,32.478 25.405,50.482c13.356,12.026 32.588,14.401 52.687,11.1c7.768,-1.276 15.662,-3.393 23.366,-6.074c-1.634,12.347 -0.727,24.916 2.968,35.519c3.353,9.621 8.994,17.642 17.001,22.646c8.55,5.343 19.862,7.323 34.212,3.808c13.569,-3.323 30.028,-11.648 49.546,-26.843c6.061,-4.719 11.579,-9.767 16.544,-14.965c17.937,21.609 52.25,38.03 96.126,32.141c26.061,-3.498 43.175,-19.342 53.308,-38.823c4.306,2.582 8.973,4.647 13.949,6.059c15.548,4.413 34.176,2.537 54.332,-10.088c21.684,-13.582 35.857,-37.754 42.274,-61.256c19.834,4.004 42.808,3.027 64.454,-6.867c25.844,-11.812 49.899,-36.301 64.189,-80.415c8.819,-27.224 5.621,-44.991 -3.749,-55.914c-4.72,-5.503 -11.091,-9.339 -18.522,-11.76c17.095,-24.631 26.048,-54.533 18.129,-81.815c-4.546,-15.66 -16.154,-22.638 -30.116,-23.766c13.217,-22.095 14.713,-39.343 9.996,-51.842c-3.232,-8.563 -9.419,-15.061 -17.098,-19.511c13.108,-23.48 16.245,-47.603 7.78,-66.51c-8.45,-18.872 -28.39,-32.989 -62.075,-36.153c-8.168,-0.767 -15.792,-0.312 -22.858,1.111c-0.188,-21.167 -6.05,-41.244 -20.154,-54.089c-11.799,-10.745 -29.399,-16.627 -54.55,-13.673c-12.666,1.488 -23.899,6.09 -33.572,12.594c-0.978,-1.92 -2.006,-3.817 -3.081,-5.685c-20.583,-35.786 -58.077,-60.657 -95.973,-34.547c-5.46,3.762 -9.961,8.115 -13.608,12.837c-1.014,-0.651 -2.043,-1.288 -3.084,-1.913c-27.042,-16.203 -62.793,-23.013 -86.153,-8.798c-8.838,5.378 -16.045,13.737 -20.385,25.783c-20.262,-3.892 -42.995,-3.452 -61.064,2.811c-13.338,4.624 -24.158,12.417 -29.969,23.767c-1.139,2.225 -2.089,4.592 -2.827,7.106c-28.76,1.042 -58.509,18.883 -75.391,53.145c-15.037,30.518 -6.351,59.831 11.453,79.522c-27.656,17.536 -40.652,34.964 -45.322,49.394c-4.044,12.498 -2.033,23.004 2.327,30.059c0.828,1.34 1.661,2.626 2.499,3.86Z" style="fill:#fff;"/><path d="M71.044,332.992c-0.838,-1.234 -1.671,-2.52 -2.499,-3.86c-4.36,-7.055 -6.371,-17.56 -2.327,-30.059c4.669,-14.43 17.665,-31.858 45.322,-49.394c-17.804,-19.691 -26.49,-49.004 -11.453,-79.522c16.882,-34.262 46.63,-52.103 75.391,-53.145c0.738,-2.514 1.688,-4.881 2.827,-7.106c5.811,-11.35 16.63,-19.143 29.969,-23.767c18.069,-6.264 40.802,-6.704 61.064,-2.811c4.34,-12.046 11.547,-20.405 20.385,-25.783c23.36,-14.216 59.112,-7.405 86.153,8.798c1.042,0.624 2.07,1.262 3.084,1.913c3.648,-4.722 8.148,-9.075 13.608,-12.837c37.896,-26.11 75.39,-1.239 95.973,34.547c1.075,1.868 2.102,3.766 3.081,5.685c9.673,-6.504 20.906,-11.107 33.572,-12.594c25.15,-2.954 42.751,2.929 54.55,13.673c14.104,12.844 19.966,32.922 20.154,54.089c7.066,-1.423 14.689,-1.878 22.858,-1.111c33.684,3.165 53.625,17.281 62.075,36.153c8.465,18.907 5.328,43.03 -7.78,66.51c7.679,4.45 13.866,10.948 17.098,19.511c4.717,12.499 3.221,29.747 -9.996,51.842c13.962,1.128 25.57,8.106 30.116,23.766c7.919,27.281 -1.034,57.184 -18.129,81.815c7.431,2.421 13.801,6.257 18.522,11.76c9.37,10.924 12.568,28.691 3.749,55.914c-14.29,44.114 -38.345,68.603 -64.189,80.415c-21.646,9.893 -44.619,10.871 -64.454,6.867c-6.417,23.502 -20.59,47.675 -42.274,61.256c-20.156,12.625 -38.784,14.5 -54.332,10.088c-4.977,-1.412 -9.643,-3.478 -13.949,-6.059c-10.134,19.481 -27.248,35.325 -53.308,38.823c-43.876,5.889 -78.189,-10.532 -96.126,-32.141c-4.965,5.199 -10.483,10.247 -16.544,14.965c-19.517,15.195 -35.977,23.519 -49.546,26.843c-14.35,3.515 -25.662,1.535 -34.212,-3.808c-8.007,-5.003 -13.647,-13.024 -17.001,-22.646c-3.695,-10.603 -4.602,-23.172 -2.968,-35.519c-7.704,2.681 -15.598,4.798 -23.366,6.074c-20.099,3.301 -39.331,0.926 -52.687,-11.1c-19.996,-18.004 -26.313,-35.429 -25.405,-50.482c-3.53,0.321 -6.121,0.38 -7.232,0.405c-21.091,0.472 -39.038,-19.465 -47.471,-45.453c-6.73,-20.742 -7.43,-45.04 0.611,-64.912c-7.738,-1.718 -14.444,-6.22 -18.911,-14.614c-18.919,-35.549 -0.923,-87.63 29.528,-117.201c2.103,-2.042 4.262,-3.975 6.471,-5.788Zm-14.017,131.037c7.375,-13.764 19.616,-24.661 37.795,-29.541c7.739,-2.077 12.933,-2.445 16.023,-1.838c3.594,0.705 5.293,2.63 5.891,4.824c0.526,1.929 0.098,4.536 -1.724,7.406c-5.666,8.927 -26.49,23.107 -45.983,26.001c-2.67,0.396 -5.311,0.588 -7.886,0.54c-8.263,18.626 -7.564,42.128 -1.139,61.927c3.775,11.632 9.544,22.034 16.763,29.456c6.834,7.026 14.957,11.359 23.893,11.159c1.199,-0.027 4.256,-0.093 8.381,-0.533c4.337,-19.804 20.962,-34.852 34.213,-40.915c4.728,-2.163 9.068,-3.186 12.36,-3.073c3.028,0.104 5.352,1.14 6.864,2.807c1.63,1.796 2.523,4.477 1.795,8.236c-3.801,19.642 -18.316,29.859 -32.778,35.072c-5.727,2.064 -11.425,3.334 -16.359,4.117c-0.023,0.244 -0.043,0.488 -0.062,0.733c-1.016,13.569 4.953,29.124 23.063,45.43c11.857,10.676 29.026,12.325 46.869,9.394c8.632,-1.418 17.427,-3.921 25.909,-7.096c0.248,-1.108 0.516,-2.209 0.805,-3.304c7.08,-26.821 26.383,-48.838 54.086,-43.753c4.459,0.819 6.822,2.912 7.809,5.336c0.958,2.352 0.699,5.432 -1.23,8.921c-1.862,3.367 -5.383,7.37 -10.236,11.571c-10.333,8.944 -26.869,19.031 -45.127,26.344c-2.219,12.402 -1.671,25.316 2.062,36.029c2.803,8.043 7.407,14.831 14.1,19.013c7.2,4.499 16.753,5.905 28.837,2.946c12.865,-3.151 28.406,-11.161 46.911,-25.567c6.11,-4.757 11.643,-9.864 16.585,-15.12c-1.138,-1.69 -2.18,-3.401 -3.122,-5.126c-10.149,-18.587 -8.995,-38.806 6.389,-52.537c8.001,-7.141 14.438,-10.843 19.213,-12.029c4.221,-1.048 7.474,-0.319 9.837,1.456c2.432,1.827 4.064,4.958 4.486,9.271c0.656,6.701 -1.637,16.796 -7.033,28.198c-4.653,9.834 -11.599,20.713 -20.753,31.228c16.459,20.506 48.931,35.991 90.438,30.42c23.837,-3.199 39.297,-17.938 48.408,-35.856c-12.788,-9.817 -21.57,-24.358 -24.66,-39.014c-3.297,-15.636 -0.139,-31.335 11.048,-41.846c5.117,-4.807 9.94,-6.225 14.075,-5.502c5.906,1.033 11.069,6.902 14.06,16.311c5.029,15.82 4.582,41.931 -4.609,65.075c-0.346,0.872 -0.705,1.739 -1.075,2.601c3.951,2.429 8.251,4.366 12.854,5.672c13.95,3.959 30.62,2.042 48.705,-9.286c20.143,-12.617 33.328,-35.064 39.304,-56.89c-13.163,-3.519 -24.584,-9.2 -32.79,-15.746c-10.022,-7.994 -15.258,-17.408 -14.227,-25.833c0.719,-5.871 4.347,-11.521 11.949,-16.066c12.598,-7.532 22.601,-8.12 29.929,-4.556c7.383,3.591 12.376,11.612 14.541,22.363c1.977,9.817 1.603,21.976 -1.08,34.657c18.44,3.672 39.793,2.709 59.908,-6.485c24.43,-11.166 46.931,-34.505 60.44,-76.206c7.752,-23.929 5.833,-39.598 -2.403,-49.2c-4.389,-5.117 -10.479,-8.429 -17.575,-10.367c-8.05,10.39 -17.525,19.644 -27.691,27.098c-23.902,17.525 -51.494,24.95 -73.192,14.757c-5.454,-2.562 -7.824,-6.037 -8.214,-9.632c-0.372,-3.424 1.154,-7.336 4.661,-11.251c3.8,-4.242 10.032,-8.704 17.845,-12.827c18.518,-9.77 46.051,-17.795 69.658,-17.367c4.912,0.089 9.654,0.549 14.124,1.424c16.928,-23.281 26.169,-51.873 18.58,-78.017c-4.002,-13.788 -15.024,-18.909 -27.695,-18.883c-0.021,0 -0.041,0 -0.062,0c-0.799,1.178 -1.629,2.369 -2.492,3.573c-16.457,22.944 -28.882,33.157 -37.63,36.719c-7.098,2.889 -12.279,1.813 -15.795,-0.576c-3.679,-2.499 -5.649,-6.646 -6.074,-10.311c-0.332,-2.865 0.317,-5.428 1.468,-7.009c10.435,-14.329 35.075,-27.724 56.67,-29.252c13.707,-21.263 16.114,-37.559 11.665,-49.349c-2.666,-7.065 -7.77,-12.363 -14.106,-16.014c-5.849,9.226 -13.236,18.273 -22.06,26.779c-3.613,3.483 -14.362,8.556 -24.467,10.128c-7.366,1.146 -14.327,0.293 -18.451,-3.378c-4.428,-3.942 -6.412,-11.529 -1.012,-24.72c6.067,-14.821 24.415,-22.639 43.085,-22.012c6.96,0.234 13.916,1.63 20.234,4.195c12.139,-21.407 15.37,-43.298 7.619,-60.61c-7.624,-17.028 -25.948,-29.189 -56.34,-32.044c-8.034,-0.755 -15.489,-0.213 -22.352,1.335c-0.14,2.816 -0.373,5.639 -0.695,8.455c-3.34,29.257 -16.137,57.527 -30.394,68.689c-6.879,5.386 -12.617,7.974 -17.12,8.582c-3.683,0.497 -6.711,-0.236 -9.125,-1.817c-2.369,-1.551 -4.187,-3.971 -5.331,-7.147c-1.444,-4.01 -1.816,-9.357 -0.989,-15.463c3.059,-22.592 22.572,-56.23 56.824,-66.726c0.175,-19.785 -4.756,-38.72 -17.889,-50.68c-10.583,-9.638 -26.461,-14.546 -49.02,-11.897c-11.88,1.395 -22.38,5.78 -31.38,11.965c8.012,18.089 11.63,37.536 9.117,53.551c-2.164,13.794 -8.803,25.112 -20.765,31.356c-12.187,6.361 -20.864,5.34 -26.224,0.623c-5.215,-4.589 -7.614,-13.321 -6.659,-24.113c1.736,-19.609 14.252,-46.286 35.807,-63.538c-7.819,-15.708 -19.102,-29.914 -32.438,-38.82c-16.721,-11.166 -36.725,-13.77 -56.929,0.151c-4.707,3.243 -8.613,6.981 -11.804,11.032c10.946,8.014 19.707,17.534 24.536,27.422c6.445,13.197 6.154,27.075 -4.566,39.385c-5.156,5.92 -10.433,8.312 -15.237,8.351c-7.169,0.057 -13.835,-5.253 -18.194,-14.147c-7.193,-14.678 -8.257,-39.195 3.737,-59.187c-0.9,-0.575 -1.812,-1.138 -2.734,-1.691c-24.796,-14.857 -57.497,-21.857 -78.916,-8.822c-7.43,4.521 -13.376,11.48 -17.118,21.322c15.779,3.927 29.415,10.569 37.395,18.932c4.653,4.877 7.459,10.358 7.973,16.237c0.511,5.855 -1.23,12.177 -6.029,18.768c-6.962,9.56 -16.336,12.685 -25.108,11.273c-12.808,-2.062 -24.594,-14.178 -25.456,-31.193c-0.563,-11.115 0.294,-20.661 2.293,-28.796c-18.885,-3.526 -39.955,-3.135 -56.745,2.685c-11.521,3.994 -21.011,10.54 -26.03,20.343c-0.658,1.285 -1.237,2.623 -1.734,4.016c23.269,1.49 45.092,14.208 57.919,38.36c5.778,10.879 3.981,20.072 -1.531,26.202c-3.794,4.22 -9.492,7.022 -16.058,7.798c-14.356,1.697 -33.192,-6.297 -42.997,-30.248c-5.582,-13.635 -7.287,-25.235 -6.124,-34.987c-25.872,1.632 -52.453,18.183 -67.644,49.014c-13.812,28.033 -5.388,54.916 11.268,72.705c4.114,-2.424 8.518,-4.847 13.226,-7.26c17.135,-8.781 29.83,-12.169 38.965,-12.294c6.786,-0.093 11.798,1.58 15.4,4.178c6.934,5.001 8.914,13.626 7.588,21.71c-1.317,8.03 -5.956,15.278 -11.291,17.784c-17.237,8.097 -38.811,3.871 -56.452,-8.455c-2.958,-2.067 -5.804,-4.358 -8.498,-6.851c-26.578,16.53 -39.265,32.773 -43.694,46.46c-3.257,10.065 -1.889,18.543 1.622,24.224c0.705,1.14 1.412,2.237 2.122,3.293c18.36,-12.916 39.458,-17.475 59.062,-7.724c8.131,4.044 9.055,12.932 4.126,21.453c-5.913,10.221 -20.512,19.674 -37.507,15.456c-8.656,-2.148 -18.048,-7.901 -27.113,-19.289c-1.958,1.624 -3.874,3.348 -5.741,5.161c-17.123,16.628 -30.181,40.812 -34.051,64.699c-2.531,15.621 -1.131,31.119 5.826,44.192c3.663,6.883 9.328,10.261 15.803,11.336Zm52.77,-24.385c-0.488,-0.111 -1.289,-0.266 -1.986,-0.274c-2.606,-0.032 -6.269,0.562 -11.174,1.879c-14.756,3.961 -25.074,12.342 -31.74,23.06c14.233,-1.077 29.94,-9.596 38.8,-17.308c2.307,-2.008 4.136,-3.945 5.283,-5.682c0.339,-0.513 0.641,-1.221 0.818,-1.674Zm-29.052,-105.254c8.469,10.625 17.133,15.741 25.169,17.155c9.51,1.674 17.93,-1.941 23.435,-7.11c3.491,-3.278 5.841,-7.163 6.348,-10.72c0.382,-2.682 -0.484,-5.11 -3.131,-6.426c-17.241,-8.576 -35.663,-4.26 -51.822,7.101Zm42.112,-83.383c1.998,1.748 4.078,3.377 6.222,4.875c15.479,10.815 34.342,14.962 49.467,7.857c3.692,-1.734 6.448,-7.026 7.359,-12.581c0.747,-4.551 0.217,-9.417 -2.657,-12.915c-2.939,-3.577 -8.224,-5.477 -16.483,-4.657c-8.13,0.806 -18.826,4.224 -32.713,11.341c-3.953,2.026 -7.681,4.054 -11.195,6.081Zm58.216,-126.842c-1.278,8.912 0.314,19.644 5.539,32.408c10.003,24.436 30.683,29.932 42.703,23.912c3.539,-1.773 6.243,-4.573 7.361,-8.202c1.168,-3.792 0.592,-8.386 -2.139,-13.527c-11.826,-22.266 -32.01,-33.672 -53.465,-34.592Zm93.084,-32.622c-1.887,7.559 -2.679,16.501 -2.149,26.968c0.674,13.299 9.567,23.025 19.578,24.636c6.44,1.037 13.226,-1.465 18.337,-8.482c3.605,-4.951 5.098,-9.639 4.714,-14.038c-0.382,-4.374 -2.602,-8.386 -6.064,-12.014c-7.309,-7.66 -19.929,-13.529 -34.417,-17.07Zm106.622,-13.556c-10.476,17.664 -9.561,39.218 -3.219,52.161c2.961,6.042 6.982,10.267 11.852,10.228c3.22,-0.026 6.558,-1.979 10.014,-5.948c8.629,-9.909 8.743,-21.093 3.555,-31.717c-4.367,-8.941 -12.321,-17.477 -22.202,-24.724Zm108.114,28.333c-19.162,15.917 -30.252,39.967 -31.821,57.69c-0.716,8.087 0.403,14.803 4.311,18.241c3.766,3.314 9.799,2.895 18.36,-1.574c9.958,-5.198 15.286,-14.751 17.088,-26.235c1.904,-12.133 -0.085,-26.374 -4.924,-40.326c-0.907,-2.614 -1.913,-5.218 -3.015,-7.796Zm103.727,53.726c-29.86,10.341 -46.864,40.086 -49.588,60.207c-0.549,4.053 -0.514,7.689 0.19,10.636c0.552,2.31 1.472,4.159 3.028,5.178c1.511,0.989 3.528,1.068 6.034,0.39c3.353,-0.907 7.349,-3.122 12.061,-6.811c13.235,-10.362 24.654,-36.81 27.754,-63.971c0.214,-1.874 0.388,-3.752 0.521,-5.63Zm74.533,95.325c-5.287,-1.981 -11.061,-3.043 -16.8,-3.235c-15.604,-0.524 -31.301,5.281 -36.372,17.668c-2.022,4.94 -2.9,8.818 -2.787,11.846c0.084,2.248 0.744,3.898 1.975,4.994c2.821,2.511 7.681,2.474 12.72,1.689c8.498,-1.322 17.646,-5.322 20.685,-8.251c8.162,-7.868 15.066,-16.213 20.579,-24.711Zm3.509,75.994c-18.059,2.999 -37.187,13.968 -45.74,25.713c-0.336,0.461 -0.269,1.246 -0.173,2.083c0.218,1.88 1.166,4.044 3.053,5.326c2.723,1.85 6.988,1.603 13.236,-2.161c7.545,-4.545 17.269,-13.94 29.623,-30.961Zm13.458,102.362c-3.031,-0.411 -6.18,-0.633 -9.407,-0.691c-22.46,-0.408 -48.647,7.264 -66.265,16.559c-8.516,4.493 -15.018,9.262 -17.757,13.757c-0.857,1.406 -1.346,2.706 -0.936,3.924c0.471,1.399 1.906,2.466 4.111,3.502c19.632,9.222 44.45,1.791 66.076,-14.066c8.748,-6.414 16.993,-14.233 24.177,-22.984Zm-99.415,142.222c2.408,-11.603 2.726,-22.713 0.915,-31.708c-1.663,-8.258 -5.069,-14.691 -10.74,-17.45c-5.728,-2.786 -13.428,-1.618 -23.275,4.269c-5.272,3.152 -8.094,6.836 -8.593,10.908c-0.794,6.491 3.923,13.351 11.644,19.51c7.538,6.013 17.995,11.218 30.049,14.469Zm-108.335,63.103c0.141,-0.344 0.281,-0.689 0.418,-1.034c8.529,-21.475 9.11,-45.691 4.444,-60.37c-1.099,-3.456 -2.476,-6.351 -4.155,-8.46c-1.305,-1.64 -2.752,-2.781 -4.439,-3.076c-2.432,-0.425 -5.067,0.882 -8.076,3.709c-9.416,8.846 -11.766,22.14 -8.992,35.3c2.662,12.627 10.033,25.191 20.8,33.932Zm-146.02,6.101c8.151,-9.58 14.381,-19.421 18.611,-28.36c4.705,-9.943 6.966,-18.679 6.394,-24.522c-0.192,-1.962 -0.618,-3.526 -1.724,-4.357c-1.04,-0.782 -2.532,-0.682 -4.449,-0.122c-4.016,1.172 -9.211,4.499 -15.734,10.321c-12.858,11.476 -13.389,28.425 -4.907,43.96c0.564,1.034 1.168,2.061 1.809,3.08Zm-111.384,-20.265c15.636,-6.766 29.592,-15.472 38.603,-23.272c4.084,-3.535 7.125,-6.832 8.691,-9.665c0.362,-0.656 0.637,-1.272 0.793,-1.851c0.106,-0.394 0.202,-0.743 0.08,-1.044c-0.095,-0.233 -0.348,-0.352 -0.638,-0.498c-0.524,-0.263 -1.176,-0.451 -1.952,-0.593c-23.346,-4.286 -39.131,14.496 -45.577,36.923Zm-102.45,-52.546c3.935,-0.733 8.262,-1.803 12.606,-3.369c12.38,-4.462 25.025,-13.002 28.279,-29.817c0.172,-0.888 0.248,-1.591 -0.037,-2.104c-0.217,-0.391 -0.701,-0.461 -1.233,-0.544c-1.346,-0.21 -3.023,0.012 -4.917,0.517c-1.575,0.42 -3.274,1.046 -5.047,1.858c-11.112,5.084 -25.05,17.258 -29.651,33.46Z"/><path d="M230.614,267.135c-0.919,-0.068 -1.81,-0.496 -2.442,-1.262c-1.229,-1.49 -1.018,-3.698 0.472,-4.927l22.406,-18.489c1.49,-1.229 3.698,-1.018 4.927,0.472c0.567,0.687 0.827,1.526 0.798,2.352c0.919,0.068 1.81,0.496 2.442,1.262c0.573,0.695 0.833,1.546 0.796,2.381c0.897,0.082 1.763,0.508 2.381,1.257c1.229,1.49 1.018,3.698 -0.472,4.927l-22.406,18.489c-1.49,1.229 -3.698,1.018 -4.927,-0.472c-0.573,-0.695 -0.833,-1.546 -0.796,-2.381c-0.897,-0.082 -1.763,-0.508 -2.381,-1.257c-0.567,-0.687 -0.827,-1.526 -0.798,-2.352Z"/><path d="M392.399,232.226c0.831,-0.397 1.506,-1.12 1.816,-2.063c0.604,-1.835 -0.395,-3.815 -2.229,-4.419l-27.591,-9.088c-1.835,-0.604 -3.815,0.395 -4.419,2.229c-0.279,0.846 -0.216,1.723 0.111,2.481c-0.831,0.397 -1.506,1.12 -1.816,2.063c-0.282,0.856 -0.215,1.743 0.123,2.508c-0.806,0.402 -1.458,1.114 -1.761,2.036c-0.604,1.835 0.395,3.815 2.229,4.419l27.591,9.088c1.835,0.604 3.815,-0.395 4.419,-2.229c0.282,-0.856 0.215,-1.743 -0.123,-2.508c0.806,-0.402 1.458,-1.114 1.761,-2.036c0.279,-0.846 0.216,-1.723 -0.111,-2.481Z"/><path d="M338.689,267.491c0.412,2.195 0.707,5.089 0.339,7.813c-0.539,3.992 -2.437,7.504 -6.272,8.999c-4.452,1.737 -8.29,0.359 -11.397,-2.381c-1.576,-1.39 -2.939,-3.162 -4.06,-4.896c-3.965,1.71 -10.85,4.51 -15.493,4.819c-3.951,0.263 -8.004,-0.188 -11.178,-1.539c-2.564,-1.092 -4.6,-2.761 -5.852,-4.995c-1.314,-2.346 -1.833,-5.384 -0.838,-9.27c0.872,-3.404 3.425,-6.799 7.243,-9.833c4.96,-3.942 12.113,-7.402 19.504,-9.854c8.65,-2.869 17.614,-4.343 23.708,-3.813c3.294,0.287 5.878,1.199 7.533,2.517c4.303,3.426 5.912,8.193 4.826,12.755c-0.84,3.53 -3.398,7.099 -8.063,9.679Zm-7.26,-0.49c-0.386,-0.848 -0.418,-1.818 -0.086,-2.692c0.347,-0.915 1.062,-1.642 1.97,-2.006c3.765,-1.509 6.049,-3.672 6.629,-6.111c0.488,-2.053 -0.44,-4.116 -2.376,-5.658c-1.198,-0.953 -3.389,-1.121 -6.067,-1.103c-5.222,0.035 -12.013,1.379 -18.61,3.567c-6.564,2.178 -12.947,5.189 -17.353,8.69c-2.427,1.929 -4.262,3.925 -4.817,6.089c-0.44,1.718 -0.418,3.075 0.163,4.112c0.685,1.223 2.025,1.897 3.547,2.357c2.08,0.628 4.525,0.773 6.913,0.614c5.442,-0.362 14.305,-4.79 16.075,-5.514c1.656,-0.678 3.557,0.003 4.406,1.578c0.973,1.805 2.347,4.143 4.167,5.748c1.165,1.027 2.553,1.76 4.222,1.109c1.363,-0.531 1.687,-1.997 1.879,-3.415c0.405,-2.998 -0.662,-7.366 -0.662,-7.366Z"/></svg>