<?xml version="1.0" encoding="UTF-8" standalone="no"?><!DOCTYPE svg PUBLIC "-//W3C//DTD SVG 1.1//EN" "http://www.w3.org/Graphics/SVG/1.1/DTD/svg11.dtd"><svg width="100%" height="100%" viewBox="0 0 750 751" version="1.1" xmlns="http://www.w3.org/2000/svg" xmlns:xlink="http://www.w3.org/1999/xlink" xml:space="preserve" xmlns:serif="http://www.serif.com/" style="fill-rule:evenodd;clip-rule:evenodd;stroke-linejoin:round;stroke-miterlimit:2;"><rect id="good" x="0" y="0.737" width="750" height="750" style="fill:none;"/><path d="M299.492,176.309c43.542,-179.624 -79.197,-167.158 -103.254,2.669c0,0 -30.449,-11.714 -32.854,6.93c-1.306,10.126 18.25,23.473 18.25,23.473c0,0 -27.839,-0.377 -26.773,15.269c0.827,12.133 24.002,6.709 24.002,6.709c-42.387,32.637 -166.427,157.214 -109.507,343.59c59.844,195.952 575.324,170.549 620.025,-49.067c33.444,-164.307 -82.622,-277.632 -141.628,-295.873c0,0 29.993,-13.844 22.7,-26.672c-6.167,-10.85 -33.971,4.433 -33.971,4.433c0,0 24.731,-18.861 20.563,-30.758c-2.454,-7.006 -12.775,-3.029 -20.453,1.14c-4.912,2.667 -8.743,5.412 -8.743,5.412c78.563,-175.213 -102.051,-188.253 -135.055,-23.435c-25.157,2.948 -73.299,5.338 -93.304,16.179Z" style="fill:#ffcf88;"/><path d="M138.248,239.623c-2.347,-3.711 -3.807,-8.204 -4.171,-13.556c-0.79,-11.594 3.675,-20.397 11.185,-26.556c-2.346,-5.544 -3.197,-11.166 -2.539,-16.267c2.509,-19.454 15.651,-27.475 31.803,-28.611c1.569,-0.11 3.171,-0.127 4.778,-0.071c9.101,-44.757 25.047,-77.629 41.982,-98.232c16.485,-20.054 34.863,-29.467 50.537,-30.517c19.145,-1.282 36.927,7.879 47.899,30.75c8.76,18.261 12.933,48.342 6.683,90.776c16.441,-2.88 34.529,-4.766 49.461,-6.328c22.925,-86.011 84.813,-122.439 128.687,-117.37c42.316,4.89 79.807,47.832 56.375,130.36c7.186,2.469 12.765,7.514 15.782,16.124c1.348,3.849 1.841,8.063 1.449,12.438c4.336,2.455 7.862,6 10.408,10.479c6.232,10.962 5.064,22.384 -2.125,32.813c66.379,42.061 154.172,152.786 123.356,304.184c-9.968,48.97 -40.465,89.603 -84.159,121.008c-61.599,44.275 -149.99,70.144 -239.227,75.996c-89.259,5.854 -179.155,-8.339 -243.627,-42.453c-46.314,-24.507 -79.835,-59.294 -93.353,-103.555c-50.747,-166.165 33.479,-286.236 88.816,-341.412Zm161.244,-63.314c43.542,-179.624 -79.197,-167.158 -103.254,2.669c0,0 -30.449,-11.714 -32.854,6.93c-1.306,10.126 18.25,23.473 18.25,23.473c0,0 -27.839,-0.377 -26.773,15.269c0.827,12.133 24.002,6.709 24.002,6.709c-42.387,32.637 -166.427,157.214 -109.507,343.59c59.844,195.952 575.324,170.549 620.025,-49.067c33.444,-164.307 -82.622,-277.632 -141.628,-295.873c0,-0 29.993,-13.844 22.7,-26.672c-6.167,-10.85 -33.971,4.433 -33.971,4.433c0,0 24.731,-18.861 20.563,-30.758c-2.454,-7.006 -12.775,-3.029 -20.453,1.14c-4.912,2.667 -8.743,5.412 -8.743,5.412c78.563,-175.213 -102.051,-188.253 -135.055,-23.435c-25.157,2.948 -73.299,5.338 -93.304,16.179Z" style="fill:#fff;"/><path d="M535.394,174.824c5.026,-2.681 11.011,-5.102 15.579,-5.137c4.433,-0.034 7.838,1.773 9.378,6.169c1.556,4.441 0.201,9.73 -2.915,14.863c-1.402,2.309 -3.146,4.599 -5.003,6.758c2.61,-0.73 5.247,-1.272 7.702,-1.456c5.935,-0.445 10.872,1.207 13.362,5.588c2.912,5.122 1.679,10.41 -1.924,15.241c-3.75,5.029 -10.254,9.523 -15.282,12.519c61.613,25.131 169.075,137.276 136.521,297.214c-9.113,44.771 -37.342,81.678 -77.29,110.391c-59.259,42.593 -144.398,67.145 -230.245,72.775c-85.851,5.63 -172.376,-7.666 -234.386,-40.478c-41.9,-22.171 -72.653,-53.255 -84.882,-93.297c-53.866,-176.377 52.563,-298.013 101.547,-339.917c-1.484,-0.019 -2.984,-0.12 -4.424,-0.342c-6.278,-0.97 -11.309,-4.156 -11.764,-10.824c-0.541,-7.942 4.512,-12.831 11.1,-15.598c3.236,-1.359 6.83,-2.177 10.025,-2.669c-2.922,-2.56 -6.173,-5.767 -8.589,-9.138c-2.846,-3.971 -4.483,-8.217 -3.992,-12.022c1.222,-9.472 7.964,-12.984 15.829,-13.538c6.301,-0.443 13.321,1.185 17.638,2.445c7.607,-49.637 23.666,-85.585 41.295,-107.032c12.656,-15.396 26.271,-23.423 38.305,-24.229c12.617,-0.845 23.882,5.881 31.113,20.953c9.5,19.802 11.937,54.923 0.407,106.196c22.063,-8.222 61.921,-10.728 85.379,-13.317c12.536,-59.283 44.066,-95.481 75.541,-109.587c22.015,-9.866 44.094,-9.024 60.293,1.903c13.488,9.099 23.046,25.253 24.917,48.488c1.628,20.216 -2.593,45.951 -15.237,77.081Zm-239.303,0.66c12.787,-52.751 11.201,-88.575 1.692,-108.397c-5.722,-11.927 -14.35,-17.665 -24.334,-16.996c-10.566,0.708 -22.253,8.172 -33.365,21.69c-17.538,21.335 -33.279,57.563 -40.379,107.688c-0.15,1.056 -0.772,1.986 -1.692,2.526c-0.919,0.54 -2.035,0.632 -3.03,0.249c0,0 -10.145,-3.944 -18.748,-3.339c-4.522,0.318 -8.675,2.004 -9.378,7.45c-0.179,1.385 0.309,2.836 1.05,4.306c0.958,1.899 2.381,3.785 3.957,5.561c5.071,5.716 11.745,10.268 11.745,10.268c1.275,0.87 1.83,2.474 1.364,3.946c-0.465,1.472 -1.841,2.465 -3.385,2.445c0,0 -9.235,-0.15 -16.407,2.862c-3.797,1.595 -7.139,4.091 -6.827,8.669c0.208,3.048 2.978,3.939 5.848,4.382c6.253,0.966 13.865,-0.843 13.865,-0.843c1.604,-0.375 3.253,0.419 3.96,1.908c0.706,1.489 0.279,3.268 -1.027,4.274c-41.918,32.276 -164.586,155.478 -108.295,339.795c11.709,38.339 41.344,67.927 81.461,89.154c61.015,32.286 146.179,45.22 230.654,39.68c84.478,-5.54 168.303,-29.56 226.618,-71.474c38.435,-27.625 65.748,-63.027 74.516,-106.103c32.967,-161.962 -81.068,-273.85 -139.232,-291.832c-1.385,-0.428 -2.363,-1.666 -2.459,-3.112c-0.096,-1.446 0.709,-2.802 2.026,-3.41c0,0 10.225,-4.699 16.907,-11.093c1.604,-1.535 3.001,-3.161 3.918,-4.858c1.021,-1.89 1.405,-3.868 0.299,-5.814c-0.698,-1.228 -1.957,-1.746 -3.411,-1.979c-2.185,-0.349 -4.767,-0.043 -7.415,0.541c-8.891,1.959 -18.416,7.209 -18.416,7.209c-1.605,0.882 -3.62,0.378 -4.619,-1.158c-0.999,-1.535 -0.646,-3.582 0.811,-4.693c0,0 8.528,-6.497 14.485,-14.157c1.852,-2.381 3.459,-4.869 4.396,-7.306c0.725,-1.886 1.078,-3.711 0.502,-5.354c-0.624,-1.78 -2.436,-1.65 -4.39,-1.325c-3.506,0.583 -7.59,2.484 -11.09,4.384c-4.704,2.554 -8.374,5.181 -8.374,5.181c-1.286,0.921 -3.029,0.866 -4.254,-0.135c-1.225,-1.001 -1.626,-2.699 -0.979,-4.142c15.402,-34.349 20.728,-62.32 18.996,-83.828c-1.663,-20.652 -9.866,-35.159 -21.854,-43.247c-14.375,-9.697 -33.979,-10.073 -53.515,-1.318c-30.41,13.628 -60.461,49.177 -72.055,107.077c-0.298,1.487 -1.519,2.613 -3.025,2.789c-24.809,2.907 -72.316,5.089 -92.044,15.78c-1.216,0.659 -2.706,0.54 -3.802,-0.304c-1.096,-0.844 -1.592,-2.254 -1.267,-3.598Z"/><path d="M252.283,140.908c-5.486,-22.554 -2.382,-40.182 2.918,-51.152c3.717,-7.695 8.679,-12.283 12.761,-13.694c2.939,-1.016 5.624,-0.659 7.78,0.839c1.881,1.307 3.477,3.643 4.143,7.291c0.915,5.008 0.088,13.135 -4.064,24.68c-3.172,8.819 -8.304,19.784 -16.05,33.067c2.45,9.037 6.364,18.898 12.174,29.464c0.931,1.693 0.312,3.823 -1.381,4.753c-1.693,0.931 -3.823,0.312 -4.753,-1.381c-4.788,-8.707 -8.351,-16.975 -10.911,-24.742c-5.692,9.187 -12.533,19.358 -20.698,30.559c-1.138,1.561 -3.329,1.904 -4.89,0.767c-1.561,-1.138 -1.904,-3.329 -0.767,-4.89c9.728,-13.345 17.54,-25.168 23.738,-35.561Zm5.262,-9.172c10.494,-19.088 14.879,-32.546 15.591,-41.116c0.256,-3.078 0.048,-5.387 -0.66,-6.954c-0.236,-0.522 -0.483,-0.936 -0.882,-1.102c-0.396,-0.165 -0.852,-0.057 -1.344,0.113c-1.411,0.488 -2.894,1.666 -4.384,3.352c-2.69,3.046 -5.221,7.674 -6.996,13.656c-2.471,8.325 -3.435,19.155 -1.324,32.05Z"/><path d="M472.512,134.747c-8.389,-23.351 -6.091,-39.787 0,-49.923c6.38,-10.617 16.97,-14.871 25.532,-13.776c4.653,0.595 8.752,2.74 11.531,6.242c2.716,3.423 4.228,8.195 3.503,14.28c-0.764,6.414 -4.11,14.504 -11.465,24.034c-4.945,6.408 -11.751,13.539 -20.84,21.336c3.39,8.264 8.173,17.444 14.637,27.58c1.039,1.629 0.56,3.794 -1.069,4.833c-1.629,1.039 -3.794,0.56 -4.833,-1.069c-6.171,-9.676 -10.86,-18.571 -14.316,-26.707c-9.129,7.357 -20.231,15.26 -33.629,23.668c-1.636,1.027 -3.798,0.532 -4.825,-1.104c-1.027,-1.636 -0.532,-3.798 1.104,-4.825c14.005,-8.789 25.436,-16.989 34.67,-24.568Zm5.647,-4.794c7.678,-6.755 13.55,-12.973 17.913,-18.626c6.328,-8.199 9.398,-15.067 10.056,-20.585c0.46,-3.859 -0.313,-6.929 -2.035,-9.101c-1.661,-2.093 -4.154,-3.294 -6.935,-3.649c-6.306,-0.807 -13.945,2.618 -18.644,10.438c-5.224,8.693 -6.817,22.325 -0.353,41.523Z"/><path d="M265.894,236.985c10.462,-0.977 20.292,12.544 21.938,30.174c1.646,17.631 -5.511,32.737 -15.973,33.714c-10.462,0.977 -20.292,-12.544 -21.938,-30.174c-1.646,-17.631 5.511,-32.737 15.973,-33.714Z" style="fill:#fff;"/><path d="M265.569,233.5c5.166,-0.482 10.277,1.737 14.597,6.161c5.702,5.839 10.078,15.681 11.151,27.172c1.073,11.491 -1.406,21.973 -5.928,28.767c-3.426,5.148 -8.038,8.275 -13.204,8.757c-5.166,0.482 -10.277,-1.737 -14.597,-6.161c-5.702,-5.839 -10.078,-15.681 -11.151,-27.172c-1.073,-11.491 1.406,-21.973 5.928,-28.767c3.426,-5.148 8.038,-8.275 13.204,-8.757Zm0.651,6.97c-3.204,0.299 -5.903,2.474 -8.028,5.666c-3.804,5.715 -5.688,14.572 -4.786,24.238c0.902,9.666 4.394,18.021 9.19,22.933c2.679,2.744 5.734,4.381 8.938,4.082c3.204,-0.299 5.903,-2.474 8.028,-5.666c3.804,-5.715 5.688,-14.572 4.786,-24.238c-0.902,-9.666 -4.394,-18.021 -9.19,-22.933c-2.679,-2.744 -5.734,-4.381 -8.938,-4.082Z"/><path d="M261.914,257.104c2.928,-0.362 5.959,4.644 6.765,11.17c0.806,6.526 -0.917,12.119 -3.845,12.48c-2.928,0.362 -5.959,-4.644 -6.765,-11.17c-0.806,-6.526 0.917,-12.119 3.845,-12.48Z"/><path d="M261.485,253.63l1.587,0.017l1.458,0.393c0.788,0.315 1.577,0.805 2.331,1.486c2.378,2.149 4.603,6.736 5.292,12.318c0.689,5.583 -0.353,10.572 -2.136,13.235c-0.565,0.844 -1.212,1.512 -1.899,2.009l-1.318,0.736l-1.535,0.403l-1.587,-0.017l-1.458,-0.393c-0.788,-0.315 -1.577,-0.805 -2.331,-1.486c-2.378,-2.149 -4.603,-6.736 -5.292,-12.318c-0.689,-5.583 0.353,-10.572 2.136,-13.235c0.565,-0.844 1.212,-1.512 1.899,-2.009l1.318,-0.736l1.535,-0.403Zm2.866,23.207c0.167,-0.311 0.356,-0.699 0.461,-1.042c0.577,-1.873 0.727,-4.387 0.393,-7.093c-0.334,-2.705 -1.092,-5.107 -2.107,-6.784c-0.186,-0.307 -0.463,-0.637 -0.701,-0.898c-0.167,0.311 -0.356,0.699 -0.461,1.042c-0.577,1.873 -0.727,4.387 -0.393,7.093c0.334,2.705 1.092,5.107 2.107,6.784c0.186,0.307 0.463,0.637 0.701,0.898Z"/><path d="M296.763,320.51c-1.209,-1.506 -0.968,-3.711 0.539,-4.92c1.506,-1.209 3.711,-0.968 4.92,0.539c5.478,6.825 13.349,7.624 20.212,5.193c7.074,-2.506 13.231,-8.33 14.815,-14.958c0.449,-1.879 2.339,-3.04 4.218,-2.591c1.879,0.449 3.04,2.339 2.591,4.218c-2.086,8.732 -9.968,16.629 -19.286,19.93c-9.529,3.375 -20.403,2.066 -28.009,-7.41Z"/><path d="M356.861,220.404c10.462,-0.977 20.292,12.544 21.938,30.174c1.646,17.631 -5.511,32.737 -15.973,33.714c-10.462,0.977 -20.292,-12.544 -21.938,-30.174c-1.646,-17.631 5.511,-32.737 15.973,-33.714Z" style="fill:#fff;"/><path d="M356.536,216.919c5.166,-0.482 10.277,1.737 14.597,6.161c5.702,5.839 10.078,15.681 11.151,27.172c1.073,11.491 -1.406,21.973 -5.928,28.767c-3.426,5.148 -8.038,8.275 -13.204,8.757c-5.166,0.482 -10.277,-1.737 -14.597,-6.161c-5.702,-5.839 -10.078,-15.681 -11.151,-27.172c-1.073,-11.491 1.406,-21.973 5.928,-28.767c3.426,-5.148 8.038,-8.275 13.204,-8.757Zm0.651,6.97c-3.204,0.299 -5.903,2.474 -8.028,5.666c-3.804,5.715 -5.688,14.572 -4.786,24.238c0.902,9.666 4.394,18.021 9.19,22.933c2.679,2.744 5.734,4.381 8.938,4.082c3.204,-0.299 5.903,-2.474 8.028,-5.666c3.804,-5.715 5.688,-14.572 4.786,-24.238c-0.902,-9.666 -4.394,-18.021 -9.19,-22.933c-2.679,-2.744 -5.734,-4.381 -8.938,-4.082Z"/><path d="M352.881,240.524c2.928,-0.362 5.959,4.644 6.765,11.17c0.806,6.526 -0.917,12.119 -3.845,12.48c-2.928,0.362 -5.959,-4.644 -6.765,-11.17c-0.806,-6.526 0.917,-12.119 3.845,-12.48Z"/><path d="M352.452,237.05l1.587,0.017l1.458,0.393c0.788,0.315 1.577,0.805 2.331,1.486c2.378,2.149 4.603,6.736 5.292,12.318c0.689,5.583 -0.353,10.572 -2.136,13.235c-0.565,0.844 -1.212,1.512 -1.899,2.009l-1.318,0.736l-1.535,0.403l-1.587,-0.017l-1.458,-0.393c-0.788,-0.315 -1.577,-0.805 -2.331,-1.486c-2.378,-2.149 -4.603,-6.736 -5.292,-12.318c-0.689,-5.583 0.353,-10.572 2.136,-13.235c0.565,-0.844 1.212,-1.512 1.899,-2.009l1.318,-0.736l1.535,-0.403Zm2.866,23.207c0.167,-0.311 0.356,-0.699 0.461,-1.042c0.577,-1.873 0.727,-4.387 0.393,-7.093c-0.334,-2.705 -1.092,-5.107 -2.107,-6.784c-0.186,-0.307 -0.463,-0.637 -0.701,-0.898c-0.167,0.311 -0.356,0.699 -0.461,1.042c-0.577,1.873 -0.727,4.387 -0.393,7.093c0.334,2.705 1.092,5.107 2.107,6.784c0.186,0.307 0.463,0.637 0.701,0.898Z"/></svg>