<?xml version="1.0" encoding="UTF-8" standalone="no"?><!DOCTYPE svg PUBLIC "-//W3C//DTD SVG 1.1//EN" "http://www.w3.org/Graphics/SVG/1.1/DTD/svg11.dtd"><svg width="100%" height="100%" viewBox="0 0 751 751" version="1.1" xmlns="http://www.w3.org/2000/svg" xmlns:xlink="http://www.w3.org/1999/xlink" xml:space="preserve" xmlns:serif="http://www.serif.com/" style="fill-rule:evenodd;clip-rule:evenodd;stroke-linejoin:round;stroke-miterlimit:2;"><rect id="hide" x="0.738" y="0.57" width="750" height="750" style="fill:none;"/><path d="M72.344,434.658c-6.122,-156.668 13.668,-241.209 65.848,-235.594l1.322,5.512c43.711,-59.947 107.432,-97.077 187.243,-99.443c157.891,-4.681 233.968,72.503 251.303,208.467c65.61,14.817 97.531,94.934 99.713,134.785c4.833,88.26 -52.329,230.265 -323.228,237.056c-188.231,4.719 -267.01,-81.399 -278.294,-178.943c-2.836,-24.519 -4.118,-48.528 -3.907,-71.839Z" style="fill:#e1fef3;"/><path d="M133.838,177.942c46.919,-56.656 112.153,-91.258 192.301,-93.634c85.4,-2.532 148.406,17.993 192.674,56.618c41.665,36.354 67.2,89.195 77.97,156.506c31.524,11.49 55.826,35.768 72.683,63.29c18.525,30.243 27.879,64.09 29.108,86.523c2.673,48.824 -11.705,112.552 -64.311,164.975c-50.167,49.992 -136.289,90.464 -279.196,94.047c-204.069,5.116 -287.278,-91.624 -299.511,-197.376c-2.918,-25.224 -4.244,-49.926 -4.048,-73.917l-0,-0.003c-3.798,-98.018 2.958,-168.896 20.057,-208.74c14.303,-33.329 35.753,-48.68 62.274,-48.289Zm-61.494,256.716c-0.211,23.311 1.07,47.32 3.907,71.839c11.283,97.545 90.063,183.662 278.294,178.943c270.898,-6.791 328.06,-148.797 323.228,-237.056c-2.182,-39.851 -34.103,-119.968 -99.713,-134.785c-17.335,-135.963 -93.411,-213.148 -251.303,-208.467c-79.811,2.366 -143.532,39.496 -187.243,99.443l-1.322,-5.512c-52.18,-5.615 -71.97,78.926 -65.848,235.594Z" style="fill:#fff;"/><path d="M72.595,440.783c-6.88,-160.587 12.741,-247.407 65.597,-241.719l53.38,222.611l-118.977,19.108" style="fill:#e1fef3;"/><path d="M73.091,443.868c-0.12,0.019 -0.241,0.031 -0.362,0.037c-1.582,0.069 -2.969,-1.063 -3.219,-2.627c-0.019,-0.12 -0.031,-0.241 -0.037,-0.362c-4.155,-96.986 1.416,-167.231 17.931,-206.68c11.613,-27.741 28.675,-40.695 51.122,-38.279c1.314,0.141 2.396,1.094 2.704,2.378l53.38,222.611c0.203,0.846 0.044,1.738 -0.439,2.462c-0.483,0.724 -1.245,1.214 -2.104,1.352l-118.976,19.108Zm2.48,-6.729l112.176,-18.016l-52.066,-217.131c-18.733,-1.046 -32.627,11.046 -42.511,34.657c-16.099,38.457 -21.423,106.585 -17.599,200.49Z"/><path d="M578.059,313.599c65.61,14.817 97.531,94.934 99.713,134.785c4.833,88.26 -52.329,230.265 -323.228,237.056c-188.231,4.719 -267.01,-81.399 -278.294,-178.943c-25.248,-218.271 72.694,-396.093 250.506,-401.365c157.891,-4.681 233.968,72.503 251.303,208.467Z" style="fill:#e1fef3;"/><path d="M580.88,311.058c32.584,8.126 56.964,31.941 73.486,58.914c16.765,27.37 25.415,57.94 26.526,78.242c2.455,44.834 -10.822,103.324 -59.129,151.463c-47.941,47.774 -130.573,85.464 -267.14,88.888c-190.605,4.778 -270.05,-82.933 -281.476,-181.708c-25.491,-220.37 73.996,-399.525 253.517,-404.847c79.914,-2.369 139.083,16.116 180.507,52.261c41.015,35.787 64.713,88.961 73.709,156.788Zm-5.921,2.937c-8.556,-67.111 -31.499,-119.767 -71.897,-155.016c-40.421,-35.269 -98.235,-53.035 -176.213,-50.723c-176.102,5.221 -272.5,181.71 -247.494,397.882c11.141,96.315 89.254,180.838 275.111,176.179c134.331,-3.368 215.729,-40.076 262.885,-87.067c46.79,-46.627 59.678,-103.269 57.3,-146.694c-1.07,-19.549 -9.472,-48.963 -25.615,-75.319c-16.028,-26.167 -39.711,-49.372 -71.666,-56.589c-1.282,-0.289 -2.245,-1.35 -2.411,-2.653Z"/><path d="M249.497,205.65c-2.617,-17.782 9.213,-30.89 19.571,-36.585c5.36,-2.947 10.44,-3.78 13.337,-3.005c3.07,0.821 4.917,2.922 5.527,6.084c0.539,2.798 -0.195,6.953 -2.377,11.598c-3.956,8.421 -12.576,18.964 -23.12,25.301c1.939,0.156 4.24,-0.101 6.795,-0.678c18.977,-4.286 49.609,-26.471 58.517,-63.804c0.534,-2.237 2.783,-3.62 5.02,-3.086c2.237,0.534 3.62,2.783 3.086,5.02c-9.814,41.13 -43.881,65.277 -64.787,69.999c-5.08,1.147 -9.485,1.17 -12.796,0.249c-2.383,-0.662 -4.303,-1.773 -5.715,-3.294c-6.365,1.865 -13.065,1.944 -19.674,-0.637c-4.852,-1.894 -7.944,-4.621 -9.774,-7.759c-2.707,-4.639 -2.715,-10.406 -0.603,-16.584c4.398,-12.865 18.294,-27.908 27.19,-35.444c1.755,-1.486 4.386,-1.269 5.872,0.486c1.486,1.755 1.269,4.386 -0.486,5.872c-8.014,6.789 -20.729,20.191 -24.691,31.781c-1.233,3.607 -1.665,6.98 -0.084,9.689c1.027,1.761 2.884,3.132 5.607,4.195c4.559,1.78 9.167,1.764 13.585,0.601Zm8.024,-3.382c9.344,-5.368 17.017,-14.676 20.491,-22.07c0.921,-1.96 1.541,-3.754 1.727,-5.266c0.033,-0.272 0.029,-0.619 0.017,-0.886c-0.58,-0.009 -1.288,0.164 -2.087,0.384c-2.464,0.68 -5.412,2.177 -8.293,4.337c-6.405,4.803 -12.493,12.954 -11.855,23.5Z"/><path d="M170.692,256.104c-1.616,-2.377 -0.999,-5.619 1.378,-7.236c2.377,-1.616 5.619,-0.999 7.236,1.378c8.744,12.86 12.742,14.026 16.938,23.466c1.09,2.451 0.14,5.328 -2.194,6.649c0,0 -16.449,9.276 -28.114,12.776c-2.753,0.826 -5.659,-0.738 -6.486,-3.491c-0.826,-2.753 0.738,-5.659 3.491,-6.486c7.154,-2.147 16.245,-6.665 21.557,-9.465c-3.314,-5.335 -7.149,-7.8 -13.808,-17.593Z"/><path d="M275.955,250.788c12.683,2.48 20.128,20.55 16.614,40.327c-3.514,19.776 -16.663,33.819 -29.346,31.338c-12.683,-2.48 -20.128,-20.55 -16.614,-40.327c3.514,-19.776 16.663,-33.819 29.346,-31.338Z" style="fill:#fff;"/><path d="M276.555,247.722c5.901,1.154 10.899,5.116 14.425,11.039c4.865,8.174 6.923,20.202 4.667,32.901c-2.261,12.724 -8.332,23.185 -15.692,28.983c-5.35,4.214 -11.399,6.036 -17.331,4.876c-5.901,-1.154 -10.899,-5.116 -14.425,-11.039c-4.865,-8.174 -6.923,-20.202 -4.667,-32.901c2.261,-12.724 8.332,-23.185 15.692,-28.983c5.35,-4.214 11.399,-6.036 17.331,-4.876Zm-1.2,6.134c-4.216,-0.824 -8.461,0.657 -12.264,3.652c-6.368,5.016 -11.45,14.158 -13.406,25.166c-1.96,11.033 -0.344,21.508 3.884,28.611c2.536,4.262 6.008,7.272 10.254,8.102c4.216,0.824 8.461,-0.657 12.264,-3.652c6.368,-5.016 11.45,-14.158 13.406,-25.166c1.96,-11.033 0.344,-21.508 -3.884,-28.611c-2.536,-4.262 -6.008,-7.272 -10.254,-8.102Z"/><path d="M264.775,260.376c7.979,1.56 12.654,12.976 10.433,25.477c-2.221,12.501 -10.502,21.383 -18.481,19.823c-7.979,-1.56 -12.654,-12.976 -10.433,-25.477c2.221,-12.501 10.502,-21.383 18.481,-19.823Z"/><path d="M261.647,257.309c4.021,0.786 7.449,3.464 9.848,7.517c3.173,5.359 4.542,13.243 3.062,21.574c-1.485,8.356 -5.491,15.212 -10.306,19.023c-3.657,2.895 -7.801,4.112 -11.852,3.32c-4.021,-0.786 -7.449,-3.464 -9.848,-7.517c-3.173,-5.359 -4.542,-13.243 -3.062,-21.574c1.485,-8.356 5.491,-15.212 10.306,-19.023c3.657,-2.895 7.801,-4.112 11.852,-3.32Zm-1.2,6.134c-2.333,-0.456 -4.668,0.42 -6.773,2.087c-3.829,3.031 -6.851,8.571 -8.031,15.216c-1.185,6.67 -0.254,13.006 2.286,17.297c1.41,2.381 3.307,4.105 5.67,4.567c2.333,0.456 4.668,-0.42 6.773,-2.087c3.829,-3.031 6.851,-8.571 8.031,-15.216c1.185,-6.67 0.254,-13.006 -2.286,-17.297c-1.41,-2.381 -3.307,-4.105 -5.67,-4.567Z" style="fill:none;"/><path d="M456.738,339.024c-58.88,-55.121 -119.003,-122.679 -161.596,-89.555c-9.866,7.673 -14.565,27.019 -3.522,43.588c-28.918,-1.827 -56.802,10.298 -72.315,41.961c-36.441,74.38 29.147,149.78 130.677,184.768" style="fill:#e1fef3;"/><path d="M458.874,336.742c1.259,1.179 1.324,3.158 0.146,4.417c-1.179,1.259 -3.158,1.324 -4.417,0.146c-35.124,-32.882 -70.653,-70.263 -102.635,-87.755c-20.192,-11.044 -38.865,-14.089 -54.907,-1.614c-8.91,6.929 -12.812,24.425 -2.84,39.388c0.659,0.988 0.7,2.265 0.107,3.294c-0.593,1.029 -1.719,1.633 -2.904,1.558c-27.717,-1.751 -54.443,9.869 -69.312,40.218c-17.669,36.064 -10.503,72.363 13.288,103.899c24.215,32.099 65.495,59.273 115.601,76.54c1.631,0.562 2.498,2.342 1.936,3.973c-0.562,1.631 -2.342,2.498 -3.973,1.936c-51.424,-17.721 -93.703,-45.741 -118.554,-78.685c-25.276,-33.506 -32.683,-72.097 -13.911,-110.413c15.138,-30.899 41.588,-43.934 69.636,-43.891c-8.183,-16.899 -2.747,-35.101 7.089,-42.75c18.033,-14.024 39.043,-11.351 61.743,1.064c32.354,17.695 68.376,55.413 103.908,88.676Z"/></svg>