<?xml version="1.0" encoding="UTF-8" standalone="no"?><!DOCTYPE svg PUBLIC "-//W3C//DTD SVG 1.1//EN" "http://www.w3.org/Graphics/SVG/1.1/DTD/svg11.dtd"><svg width="100%" height="100%" viewBox="0 0 750 751" version="1.1" xmlns="http://www.w3.org/2000/svg" xmlns:xlink="http://www.w3.org/1999/xlink" xml:space="preserve" xmlns:serif="http://www.serif.com/" style="fill-rule:evenodd;clip-rule:evenodd;stroke-linejoin:round;stroke-miterlimit:2;"><rect id="lazy" x="0" y="0.57" width="750" height="750" style="fill:none;"/><path d="M263.566,216.386c0,0 -0.752,-3.116 0.091,-3.51c108.055,-50.464 327.591,-30.342 391.565,218.413c61.731,19.357 37.947,121.578 7.649,133.532l-329.21,-0.45l0.5,-2.248c-28.394,-0.109 -50.891,-0.195 -51.337,-0.195c-1.903,0 -3.792,-0.066 -5.664,-0.197c-81.817,-0.193 -151.182,-1.465 -172.373,-4.658c-29.672,-4.471 -54.181,-43.432 -53.989,-80.621c0.179,-34.489 22.144,-66.867 67.575,-83.269c-8.256,-68.194 31.341,-152.085 145.191,-176.799Z" style="fill:#f9d5f0;"/><path d="M248.74,198.481l1.451,-1.52l4.651,-2.962c114.27,-53.366 345.936,-34.9 417.818,221.898c38.62,19.189 47.617,66.504 38.731,106.816c-3.657,16.59 -10.194,31.617 -17.889,42.313c-6.891,9.58 -15.013,16.029 -22.985,19.175l-3.699,1.459l-333.186,-0.455l-1.807,-2.257c-27.277,-0.105 -48.568,-0.186 -49.001,-0.186c-2.143,0 -4.272,-0.067 -6.375,-0.199c-82.981,-0.202 -153.256,-1.647 -174.766,-4.889c-16.488,-2.485 -32.164,-12.083 -44.619,-26.675c-16.458,-19.281 -27.239,-47.35 -27.098,-74.654c0.198,-38.213 21.258,-75.127 66.567,-96.623c-1.773,-71.146 40.929,-152.848 152.206,-181.242Zm14.826,17.905c-113.85,24.714 -153.448,108.606 -145.191,176.799c-45.431,16.402 -67.396,48.78 -67.575,83.269c-0.193,37.188 24.317,76.149 53.989,80.621c21.191,3.193 90.556,4.465 172.373,4.658c1.872,0.131 3.76,0.197 5.664,0.197c0.446,0 22.942,0.086 51.337,0.195l-0.5,2.248l329.21,0.45c30.298,-11.954 54.082,-114.175 -7.649,-133.532c-63.974,-248.756 -283.51,-268.877 -391.565,-218.413c-0.843,0.394 -0.091,3.51 -0.091,3.51Z" style="fill:#fff;"/><path d="M349.635,209.46c-180.21,-5.979 -241.33,100.55 -231.26,183.725c-45.431,16.402 -67.396,48.78 -67.575,83.269c-0.193,37.188 24.317,76.149 53.989,80.621c59.518,8.969 499.071,2.779 527.144,0.104c69.479,-6.62 50.241,-90.945 13.879,-116.871c-19.181,-51.698 -65.985,-223.211 -296.177,-230.848Z" style="fill:#f9d5f0;"/><path d="M349.738,206.336c231.03,7.665 279.111,178.783 298.676,231.999c14.736,10.905 26.71,30.981 31.282,51.731c4.256,19.315 2.068,39.137 -9.71,52.836c-7.887,9.174 -20.092,15.703 -37.758,17.386c-28.113,2.678 -468.302,8.857 -527.906,-0.125c-12.562,-1.893 -24.3,-9.544 -33.789,-20.661c-13.901,-16.285 -22.978,-40.004 -22.859,-63.066c0.181,-35.046 21.954,-68.128 67.321,-85.334c-5.239,-50.363 14.963,-108.584 70.74,-146.103c37.468,-25.203 91.087,-41.083 164.002,-38.664Zm-0.207,6.247c-71.253,-2.364 -123.693,12.975 -160.307,37.604c-54.436,36.617 -73.667,93.728 -67.747,142.623l0.299,2.47l-2.34,0.845c-43.918,15.856 -65.338,47.005 -65.511,80.345c-0.112,21.564 8.365,43.748 21.363,58.976c8.443,9.891 18.79,16.854 29.967,18.539c59.432,8.956 498.35,2.754 526.382,0.084c15.684,-1.494 26.609,-7.094 33.611,-15.239c10.556,-12.278 12.16,-30.106 8.345,-47.417c-4.313,-19.575 -15.602,-38.583 -29.595,-48.56l-0.782,-0.557l-0.334,-0.9c-19.003,-51.218 -65.293,-221.245 -293.351,-228.811Z"/><path d="M179.434,336.8c-9.957,-2.709 -20.05,2.473 -22.524,11.566c-2.474,9.093 3.601,18.675 13.559,21.384c9.957,2.709 20.05,-2.473 22.524,-11.566c2.474,-9.093 -3.601,-18.675 -13.559,-21.384Z" style="fill:#fff;"/><path d="M180.254,333.785c11.694,3.182 18.659,14.541 15.754,25.22c-2.906,10.678 -14.666,16.943 -26.36,13.761c-11.694,-3.182 -18.659,-14.541 -15.754,-25.22c2.906,-10.678 14.666,-16.943 26.36,-13.761Zm-1.641,6.031c-8.222,-2.237 -16.646,1.863 -18.689,9.371c-2.043,7.508 3.142,15.311 11.364,17.548c8.222,2.237 16.646,-1.863 18.689,-9.371c2.043,-7.508 -3.142,-15.311 -11.364,-17.548Z"/><path d="M180.695,369.852c1.091,-1.508 1.926,-3.218 2.436,-5.094c2.474,-9.093 -3.601,-18.675 -13.559,-21.384c-3.505,-0.954 -7.027,-0.93 -10.227,-0.101c-1.091,1.508 -1.926,3.218 -2.436,5.094c-2.474,9.093 3.601,18.675 13.559,21.384c3.505,0.954 7.027,0.93 10.227,0.101Z"/><path d="M181.478,372.877c-3.702,0.958 -7.776,0.992 -11.83,-0.111c-11.694,-3.182 -18.659,-14.541 -15.754,-25.22c0.612,-2.248 1.612,-4.297 2.919,-6.105l0.66,-0.912l1.089,-0.282c3.702,-0.958 7.776,-0.992 11.83,0.111c11.694,3.182 18.659,14.541 15.754,25.22c-0.612,2.248 -1.612,4.297 -2.919,6.105l-0.66,0.912l-1.089,0.282Zm-2.694,-5.802c0.574,-0.963 1.025,-2.013 1.331,-3.137c2.043,-7.508 -3.142,-15.311 -11.364,-17.548c-2.549,-0.694 -5.108,-0.778 -7.496,-0.34c-0.574,0.963 -1.025,2.013 -1.331,3.137c-2.043,7.508 3.142,15.311 11.364,17.548c2.549,0.694 5.109,0.778 7.496,0.34Z" style="fill:none;"/><path d="M244.8,310.629c-9.957,-2.709 -20.05,2.473 -22.524,11.566c-2.474,9.093 3.601,18.675 13.559,21.384c9.957,2.709 20.05,-2.473 22.524,-11.566c2.474,-9.093 -3.601,-18.675 -13.559,-21.384Z" style="fill:#fff;"/><path d="M245.621,307.614c11.694,3.182 18.659,14.541 15.754,25.22c-2.906,10.678 -14.666,16.943 -26.36,13.761c-11.694,-3.182 -18.659,-14.541 -15.754,-25.22c2.906,-10.678 14.666,-16.943 26.36,-13.761Zm-1.641,6.031c-8.222,-2.237 -16.646,1.863 -18.689,9.371c-2.043,7.508 3.142,15.311 11.364,17.548c8.222,2.237 16.646,-1.863 18.689,-9.371c2.043,-7.508 -3.142,-15.311 -11.364,-17.548Z"/><path d="M246.062,343.68c1.091,-1.508 1.926,-3.218 2.436,-5.094c2.474,-9.093 -3.601,-18.675 -13.559,-21.384c-3.505,-0.954 -7.027,-0.93 -10.227,-0.101c-1.091,1.508 -1.926,3.218 -2.436,5.094c-2.474,9.093 3.601,18.675 13.559,21.384c3.505,0.954 7.027,0.93 10.227,0.101Z"/><path d="M246.845,346.706c-3.702,0.958 -7.776,0.992 -11.83,-0.111c-11.694,-3.182 -18.659,-14.541 -15.754,-25.22c0.612,-2.248 1.612,-4.297 2.919,-6.105l0.66,-0.912l1.089,-0.282c3.702,-0.958 7.776,-0.992 11.83,0.111c11.694,3.182 18.659,14.541 15.754,25.22c-0.612,2.248 -1.612,4.297 -2.919,6.105l-0.66,0.912l-1.089,0.282Zm-2.694,-5.802c0.574,-0.963 1.025,-2.013 1.331,-3.137c2.043,-7.508 -3.142,-15.311 -11.364,-17.548c-2.549,-0.694 -5.108,-0.778 -7.496,-0.34c-0.574,0.963 -1.025,2.013 -1.331,3.137c-2.043,7.508 3.142,15.311 11.364,17.548c2.549,0.694 5.109,0.778 7.496,0.34Z" style="fill:none;"/><path d="M220.491,289.492l2.722,-7.876l17.74,6.13l-2.722,7.876l-17.74,-6.13Z"/><path d="M141.204,409.265c-1.684,-0.373 -2.749,-2.043 -2.376,-3.726c0.373,-1.684 2.043,-2.749 3.726,-2.376c25.436,5.63 47.803,17.472 63.118,36.515c15.31,19.037 23.636,45.304 20.728,79.955c-0.144,1.719 -1.657,2.997 -3.375,2.853c-1.719,-0.144 -2.997,-1.657 -2.853,-3.375c2.744,-32.705 -4.92,-57.547 -19.371,-75.515c-14.445,-17.962 -35.607,-29.02 -59.599,-34.33Z"/><path d="M282.825,561.929c1.222,0 168.023,0.644 168.023,0.644l1.462,-182.5c0,0 -168.264,4.171 -169.485,4.171c-46.608,0 -84.448,39.809 -84.448,88.842c0,49.033 37.84,88.842 84.448,88.842Z" style="fill:#f9d5f0;"/><path d="M282.825,565.054c-48.288,0 -87.573,-41.167 -87.573,-91.967c0,-50.801 39.285,-91.967 87.573,-91.967c1.221,0 169.408,-4.17 169.408,-4.17c0.846,-0.021 1.665,0.302 2.269,0.896c0.604,0.594 0.941,1.407 0.934,2.253l-1.462,182.5c-0.014,1.721 -1.416,3.107 -3.137,3.1c0,0 -166.79,-0.644 -168.011,-0.644Zm0,-6.25c1.123,0 142.076,0.544 164.923,0.632l1.411,-176.159c-23.327,0.578 -165.213,4.092 -166.335,4.092c-44.928,0 -81.323,38.451 -81.323,85.717c0,47.266 36.395,85.717 81.323,85.717Z"/><path d="M263.657,212.876c-8.105,3.678 4.461,3.17 13.647,8.626c71.449,42.436 113.087,88.761 56.357,342.87l329.21,0.45c30.298,-11.954 54.082,-114.175 -7.649,-133.532c-63.974,-248.756 -280.869,-268.639 -391.565,-218.413Z" style="fill:#fef9ff;"/><clipPath id="_clip1"><path d="M263.657,212.876c-8.105,3.678 4.461,3.17 13.647,8.626c71.449,42.436 113.087,88.761 56.357,342.87l329.21,0.45c30.298,-11.954 54.082,-114.175 -7.649,-133.532c-63.974,-248.756 -280.869,-268.639 -391.565,-218.413Z"/></clipPath><g clip-path="url(#_clip1)"><g><path d="M293.491,141.109c-15.882,-6.095 -19.816,-2.102 -25.215,15.828c-5.399,17.93 -3.285,42.468 12.597,48.563c34.972,13.422 65.754,25.348 81.505,48.98c15.683,23.53 22.49,53.136 24.835,89.72c3.661,57.099 -3.797,129.265 -13.806,220.544c-2.061,18.794 9.781,35.942 26.429,38.268c16.647,2.327 46.474,-8.789 48.535,-27.583c10.614,-96.802 9.754,-176.591 -0.531,-236.183c-9.834,-56.973 -59.853,-132.852 -112.51,-144.43c-36.04,-7.924 7.18,-34.895 -41.839,-53.707Z" style="fill:#eaf3f6;"/><path d="M404.619,163.547c-16.024,-5.599 4.959,-18.091 0,0c-4.959,18.091 -46.101,13.218 -30.762,20.882c22.335,11.161 37.796,24.372 62.107,51.423c51.233,57.01 65.888,203.616 51.225,337.338c-2.061,18.794 9.781,35.942 26.429,38.268c16.647,2.327 38.843,-9.781 40.904,-28.575c16.272,-148.401 -20.265,-318.883 -74.747,-365.825c-43.609,-37.573 -35.758,-39.747 -75.155,-53.512Z" style="fill:#eaf3f6;"/><path d="M526.389,162.121c-10.015,-3.499 -20.663,2.84 -23.762,14.147c-3.099,11.307 2.515,23.328 12.531,26.827c26.399,9.224 -11.605,6.028 15.563,40.872c72.855,93.439 69.864,203.249 54.9,339.722c-1.288,11.746 6.113,22.464 16.518,23.918c10.404,1.454 40.29,-13.509 41.578,-25.255c15.97,-145.648 -29.722,-235.81 -53.887,-307.216c-18.087,-53.447 -27.045,-100.298 -63.44,-113.014Z" style="fill:#eaf3f6;"/></g></g><path d="M262.366,210.03c111.629,-50.649 330.262,-31.013 395.453,218.824c37.227,12.831 43.966,55.171 36.278,90.047c-3.088,14.008 -8.473,26.752 -14.971,35.783c-4.596,6.388 -9.793,10.946 -15.109,13.043c-0.367,0.145 -0.757,0.219 -1.151,0.218l-329.21,-0.45c-0.948,-0.001 -1.844,-0.433 -2.436,-1.172c-0.592,-0.74 -0.816,-1.709 -0.61,-2.633c19.779,-88.596 27.582,-151.834 26.282,-198.427c-1.281,-45.913 -11.401,-75.452 -27.684,-97.137c-13.973,-18.61 -32.435,-31.425 -53.501,-43.937c-4.261,-2.531 -9.305,-3.666 -12.424,-4.616c-2.068,-0.63 -3.516,-1.366 -4.172,-2.005l-0.767,-1.023l-0.354,-1.015l0.01,-1.422l0.442,-1.155c0.424,-0.735 1.541,-1.841 3.923,-2.922Zm5.483,4.402c3.25,0.95 7.406,2.218 11.051,4.382c21.804,12.95 40.845,26.296 55.307,45.558c16.892,22.498 27.604,53.083 28.933,100.716c1.292,46.284 -6.277,108.872 -25.585,196.163l324.697,0.443c4.186,-1.824 8.168,-5.61 11.801,-10.66c6.074,-8.444 11.054,-20.383 13.941,-33.479c7.136,-32.373 1.684,-72.187 -33.707,-83.285c-1.031,-0.323 -1.822,-1.157 -2.091,-2.203c-62.738,-243.95 -273.987,-265.67 -384.347,-217.635Z"/></svg>