<?xml version="1.0" encoding="UTF-8" standalone="no"?><!DOCTYPE svg PUBLIC "-//W3C//DTD SVG 1.1//EN" "http://www.w3.org/Graphics/SVG/1.1/DTD/svg11.dtd"><svg width="100%" height="100%" viewBox="0 0 750 751" version="1.1" xmlns="http://www.w3.org/2000/svg" xmlns:xlink="http://www.w3.org/1999/xlink" xml:space="preserve" xmlns:serif="http://www.serif.com/" style="fill-rule:evenodd;clip-rule:evenodd;stroke-linejoin:round;stroke-miterlimit:2;"><rect id="mouth" x="-0" y="0.57" width="750" height="750" style="fill:none;"/><path d="M95.879,427.7c-53.066,-109.138 -44.424,-259.493 24.31,-284.132c23.359,-8.373 49.537,16.141 57.565,42.37c1.21,-2.845 4.737,-32.82 23.058,-39.234c25.625,-8.97 42.54,22.522 42.54,22.522c2.807,-10.821 1.785,-29.16 22.496,-34.156c23.474,-5.662 44.356,21.701 44.356,21.701c0,0 -5.809,-27.962 19.057,-36.744c16.765,-5.92 43.186,4.348 49.343,23.231c7.214,-35.402 15.023,-68.719 57.767,-82.594c46.539,-15.107 157.776,24.035 222.804,194.933c63.642,167.254 13.826,342.53 -56.169,383.898c-94.305,55.736 -154.42,-31.929 -243.732,-25.565c-66.265,4.722 -113.018,81.292 -224.885,79.488c-79.087,-1.275 -43.73,-189.336 -38.51,-265.718Z" style="fill:#fcc2b1;"/><path d="M174.11,141.255c5.245,-6.358 11.856,-11.427 19.818,-14.214c15.64,-5.475 29.437,-2.486 40.667,3.986c5.406,-7.22 13.576,-13.124 26.367,-16.21c12.944,-3.122 25.499,-0.51 36.29,4.812c4.975,-7.833 12.82,-14.921 25.07,-19.247c12.863,-4.543 29.478,-3.521 44.011,2.905c0.307,0.136 0.612,0.274 0.917,0.414c9.527,-27.781 25.905,-50.914 62.687,-62.853c17.137,-5.563 41.457,-5.851 69.212,3.14c56.489,18.3 130.761,76.123 179.496,204.2c40.041,105.229 37.091,213.493 12.6,292.632c-17.431,56.326 -46.297,98.086 -77.64,116.61c-53.978,31.902 -98.134,23.521 -141.613,7.319c-35.29,-13.151 -69.746,-32.995 -111.238,-30.038c-30.2,2.152 -55.495,21.694 -86.444,39.475c-36.741,21.108 -79.734,41.039 -140.257,40.063c-33.263,-0.536 -54.099,-22.528 -63.954,-58.903c-16.375,-60.436 0.119,-166.96 4.597,-223.683c-31.936,-68.761 -41.158,-151.694 -28.441,-213.092c9.89,-47.75 33.584,-82.669 66.904,-94.613c15.147,-5.43 31.115,-3.05 45.548,5.346c5.429,3.159 10.627,7.227 15.404,11.952Zm-78.232,286.445c-5.22,76.382 -40.576,264.443 38.51,265.718c111.866,1.804 158.62,-74.766 224.885,-79.488c89.312,-6.364 149.428,81.301 243.732,25.565c69.995,-41.368 119.811,-216.644 56.169,-383.898c-65.029,-170.898 -176.265,-210.04 -222.804,-194.933c-42.744,13.875 -50.554,47.192 -57.767,82.594c-6.157,-18.883 -32.578,-29.151 -49.343,-23.231c-24.865,8.781 -19.057,36.744 -19.057,36.744c0,0 -20.882,-27.363 -44.356,-21.701c-20.711,4.996 -19.69,23.335 -22.496,34.156c0,0 -16.914,-31.492 -42.54,-22.522c-18.321,6.414 -21.848,36.389 -23.058,39.234c-8.028,-26.23 -34.206,-50.744 -57.565,-42.37c-68.734,24.639 -77.376,174.994 -24.31,284.132Z" style="fill:#fff;"/><path d="M92.323,428.387c-31.86,-66.042 -41.416,-146.809 -29.094,-206.302c8.451,-40.802 27.308,-71.605 55.779,-81.812c10.318,-3.699 21.15,-1.708 30.983,4.012c11.079,6.445 20.87,17.679 27.003,30.259c1.119,-4.125 2.706,-8.996 4.998,-13.63c3.796,-7.675 9.465,-14.644 17.664,-17.514c11.48,-4.019 21.409,-0.856 29.179,4.469c5.401,3.702 9.713,8.465 12.717,12.38c0.426,-2.359 0.91,-4.812 1.6,-7.239c2.601,-9.156 7.826,-17.955 21.876,-21.343c10.337,-2.493 20.242,0.708 28.377,5.595c5.114,3.071 9.506,6.789 12.827,9.997c0.558,-9.942 4.537,-24.413 21.864,-30.532c9.135,-3.226 20.909,-2.15 31.23,2.413c7.083,3.132 13.448,7.887 17.851,13.88c7.208,-32.926 17.75,-62.583 58.114,-75.686c19.228,-6.241 49.182,-3.736 82.463,13.077c48.858,24.682 105.251,80.284 144.693,183.941c38.497,101.172 35.788,205.256 12.241,281.344c-15.883,51.324 -41.341,89.933 -69.901,106.812c-48.299,28.546 -87.837,20.496 -126.741,5.999c-37.529,-13.985 -74.399,-34.23 -118.523,-31.085c-25.983,1.852 -48.857,15.092 -74.029,30.057c-38.985,23.177 -83.227,50.535 -151.161,49.44c-25.326,-0.408 -40,-18.41 -47.504,-46.105c-16.394,-60.505 1.677,-168.367 5.494,-222.425Zm7.048,-0.448c-3.123,45.688 -17.104,131.454 -10.725,193.033c2.071,19.994 6.263,37.392 13.855,49.831c7.168,11.745 17.442,18.882 31.944,19.115c66.306,1.069 109.421,-25.837 147.471,-48.458c26.185,-15.567 50.079,-29.096 77.108,-31.022c45.188,-3.22 83.032,17.186 121.465,31.508c37.057,13.81 74.73,21.725 120.735,-5.465c27.436,-16.215 51.517,-53.551 66.775,-102.856c23.166,-74.855 25.777,-177.251 -12.097,-276.785c-38.592,-101.421 -93.503,-156.033 -141.307,-180.182c-31.162,-15.742 -59.141,-18.511 -77.145,-12.667c-41.26,13.393 -48.455,45.792 -55.419,79.964c-0.317,1.557 -1.643,2.705 -3.23,2.795c-1.586,0.091 -3.035,-0.899 -3.527,-2.409c-2.78,-8.527 -10.228,-15.019 -18.781,-18.801c-8.62,-3.811 -18.439,-4.909 -26.068,-2.215c-22.101,7.805 -16.795,32.731 -16.795,32.731c0.332,1.6 -0.487,3.217 -1.973,3.896c-1.486,0.679 -3.245,0.239 -4.236,-1.06c0,0 -7.124,-9.326 -17.622,-15.631c-6.644,-3.991 -14.689,-6.827 -23.131,-4.791c-10.804,2.606 -14.784,9.41 -16.784,16.451c-1.526,5.371 -2.028,10.875 -3.145,15.181c-0.362,1.394 -1.54,2.425 -2.97,2.596c-1.43,0.172 -2.819,-0.55 -3.501,-1.819c0,0 -3.97,-7.367 -10.93,-13.69c-6.598,-5.994 -15.994,-11.166 -27.369,-7.184c-6.459,2.261 -10.712,7.963 -13.702,14.01c-5.048,10.208 -6.572,21.597 -7.292,23.291c-0.576,1.353 -1.936,2.203 -3.405,2.125c-1.469,-0.077 -2.733,-1.064 -3.163,-2.471c-4.564,-14.911 -15.282,-29.265 -27.936,-36.626c-7.975,-4.639 -16.732,-6.474 -25.101,-3.473c-26.517,9.505 -43.416,38.641 -51.287,76.642c-12.107,58.457 -2.548,137.896 28.944,202.665c0.267,0.55 0.386,1.159 0.344,1.769Z"/><path d="M206.877,264.747c-1.072,35.053 38.883,28.231 32.237,-1.281l-32.237,1.281Z" style="fill:#fff;"/><path d="M206.679,259.751l32.237,-1.281c2.411,-0.096 4.546,1.544 5.076,3.898c4.186,18.59 -6.98,29.644 -18.348,30.92c-6.022,0.676 -12.282,-1.324 -16.942,-6.433c-4.161,-4.563 -7.142,-11.815 -6.822,-22.26c0.08,-2.624 2.176,-4.739 4.799,-4.843Zm0.199,4.996c-1.072,35.053 38.883,28.231 32.237,-1.281l-32.237,1.281Z"/><path d="M223.874,262.183c-7.079,8.649 -8.379,18.08 -4.567,28.204c16.137,2.207 26.519,-13.461 21.109,-28.955l-16.542,0.75Z"/><path d="M223.556,255.19l16.542,-0.75c3.09,-0.14 5.906,1.765 6.926,4.685c7.211,20.65 -7.158,41.139 -28.666,38.198c-2.546,-0.348 -4.697,-2.064 -5.603,-4.469c-4.744,-12.602 -3.11,-24.339 5.701,-35.104c1.259,-1.539 3.113,-2.469 5.1,-2.559Zm0.317,6.993c-7.079,8.649 -8.379,18.08 -4.567,28.204c16.137,2.207 26.519,-13.461 21.109,-28.955l-16.542,0.75Z" style="fill:none;"/><path d="M330.113,219.036c21.398,25.403 -12.36,50.438 -24.755,23.357l24.755,-23.357Z" style="fill:#fff;"/><path d="M333.938,215.815c13.112,15.567 8.621,31.021 -0.343,38.434c-4.871,4.028 -11.172,5.779 -17.263,4.361c-5.786,-1.347 -11.599,-5.571 -15.519,-14.137c-0.892,-1.948 -0.443,-4.247 1.115,-5.718l24.755,-23.357c1,-0.944 2.345,-1.434 3.717,-1.355c1.373,0.079 2.652,0.719 3.538,1.771Zm-3.824,3.221l-24.755,23.357c12.395,27.081 46.153,2.047 24.755,-23.357Z"/><path d="M315.952,229.938c10.353,1.128 16.863,7.2 19.975,17.646c-10.718,13.822 -27.656,9.936 -32.732,-5.73l12.757,-11.915Z"/><path d="M316.71,222.979c13.361,1.456 21.909,9.126 25.925,22.606c0.644,2.163 0.206,4.504 -1.177,6.288c-7.3,9.414 -16.886,12.413 -25.344,10.776c-8.424,-1.631 -16.135,-8.01 -19.579,-18.638c-0.837,-2.584 -0.104,-5.419 1.881,-7.273l12.757,-11.915c1.489,-1.391 3.511,-2.064 5.537,-1.843Zm-0.758,6.959l-12.757,11.915c5.076,15.666 22.014,19.552 32.732,5.73c-3.112,-10.445 -9.622,-16.517 -19.975,-17.646Z" style="fill:none;"/><path d="M258.8,314.139l73.122,-33.179c53.357,27.714 76.619,70.393 90.665,117.655c6.382,21.474 -141.872,68.084 -142.097,50.875c-0.586,-44.786 -7.197,-89.872 -21.689,-135.351Z" style="fill:#fa9295;"/><clipPath id="_clip1"><path d="M258.8,314.139l73.122,-33.179c53.357,27.714 76.619,70.393 90.665,117.655c6.382,21.474 -141.872,68.084 -142.097,50.875c-0.586,-44.786 -7.197,-89.872 -21.689,-135.351Z"/></clipPath><g clip-path="url(#_clip1)"><path d="M264.094,421.247c1.835,-1.359 0.125,-2.183 13.796,-22.952c4.099,-6.228 17.1,-42.527 77.19,-71.72c12.232,-5.943 50.583,-15.531 75.123,6.479c29.697,26.636 39.126,70.371 27.293,85.503c-24.928,31.877 -58.686,42.695 -102.579,55.507c-6.715,1.96 -57.966,16.919 -86.981,0.318c-12.306,-7.041 -12.783,-42.598 -7.992,-52.94c2.645,-5.708 1.57,5.569 4.15,-0.195Z" style="fill:#b65154;"/><path d="M262.826,416.686c1.317,-2.707 4.145,-8.168 12.141,-20.315c4.171,-6.337 17.437,-43.237 78.584,-72.944c12.864,-6.25 53.18,-16.126 78.989,7.022c18.46,16.557 29.349,39.497 32.468,58.581c2.199,13.453 0.431,25.053 -4.755,31.683c-25.385,32.461 -59.659,43.665 -104.356,56.71c-4.102,1.197 -24.53,7.152 -46.597,8.079c-15.116,0.635 -30.961,-1.136 -43.103,-8.083c-5.608,-3.209 -9.44,-11.418 -11.214,-21.105c-2.48,-13.54 -1.268,-29.756 1.784,-36.344c0.919,-1.983 1.871,-2.796 2.428,-3.13l1.494,-0.529l0.946,-0.01l0.907,0.22l0.283,0.164Zm-0.844,9.619c-1.723,6.947 -1.955,18.689 -0.113,28.749c0.718,3.921 1.758,7.589 3.204,10.595c1.221,2.54 2.683,4.598 4.6,5.695c11.07,6.333 25.553,7.744 39.333,7.165c21.278,-0.894 40.974,-6.65 44.929,-7.805c43.09,-12.577 76.331,-23.009 100.803,-54.303c4.282,-5.475 5.176,-15.132 3.36,-26.242c-2.902,-17.758 -13.056,-39.093 -30.233,-54.499c-11.553,-10.362 -26.388,-13.195 -39.744,-12.829c-13.564,0.372 -25.664,4.051 -31.512,6.892c-59.033,28.68 -71.769,64.378 -75.796,70.496c-9.399,14.278 -11.401,18.955 -12.371,20.935c-0.555,1.133 -0.969,1.758 -1.532,2.297l-0.002,0.002c-0.758,1.423 -1.497,2.072 -1.955,2.365l-1.484,0.572l-0.966,0.032l-0.522,-0.118Z"/></g><path d="M255.907,307.764l73.122,-33.179c1.957,-0.888 4.212,-0.828 6.119,0.162c55.321,28.734 79.585,72.871 94.148,121.873c1.071,3.603 0.478,7.679 -2.452,11.886c-2.592,3.721 -7.485,7.911 -14.198,12.084c-22.678,14.097 -67.714,29.848 -98.711,36.407c-14.435,3.054 -26.092,3.926 -31.796,2.422c-6.166,-1.627 -8.594,-5.492 -8.651,-9.837c-0.577,-44.113 -7.085,-88.522 -21.359,-133.318c-1.077,-3.381 0.546,-7.034 3.777,-8.5Zm2.892,6.374c14.492,45.479 21.103,90.565 21.689,135.351c0.225,17.209 148.479,-29.401 142.097,-50.875c-14.046,-47.262 -37.308,-89.941 -90.665,-117.655l-73.122,33.179Z"/><path d="M260.489,317.307c0.286,2.909 11.232,12.381 15.395,11.255c6.438,-1.74 4.93,-12.205 3.44,-19.403c0,0 -18.925,7.228 -18.835,8.147Z" style="fill:#fff;"/><path d="M253.523,317.991l0.114,-2.129l0.766,-2.045l1.335,-1.717c0.335,-0.322 0.855,-0.756 1.595,-1.21c3.196,-1.961 19.494,-8.269 19.494,-8.269c1.917,-0.732 4.059,-0.586 5.859,0.399c1.8,0.986 3.077,2.711 3.493,4.721c1.072,5.181 1.967,11.785 0.992,16.681c-1.108,5.558 -4.198,9.476 -9.46,10.898c-1.655,0.447 -3.724,0.482 -6.031,-0.181c-2.72,-0.781 -6.19,-2.763 -9.275,-5.191c-2.933,-2.308 -5.515,-4.979 -6.892,-6.979c-1.33,-1.933 -1.866,-3.727 -1.989,-4.979Zm6.966,-0.684c0.286,2.909 11.232,12.381 15.395,11.255c6.438,-1.74 4.93,-12.205 3.44,-19.403c0,0 -18.925,7.228 -18.835,8.147Z"/><path d="M314.11,291.848c0.579,2.865 12.427,11.181 16.455,9.64c6.229,-2.382 3.669,-12.641 1.459,-19.651c0,0 -18.097,9.106 -17.914,10.011Z" style="fill:#fff;"/><path d="M307.249,293.233l-0.102,-2.13l0.556,-2.112l1.154,-1.844c0.301,-0.354 0.774,-0.838 1.464,-1.365c2.981,-2.275 18.557,-10.199 18.557,-10.199c1.833,-0.922 3.979,-0.994 5.87,-0.196c1.891,0.798 3.336,2.386 3.953,4.343c1.591,5.046 3.15,11.526 2.674,16.495c-0.54,5.642 -3.218,9.852 -8.309,11.799c-1.601,0.612 -3.656,0.856 -6.019,0.431c-2.786,-0.502 -6.438,-2.122 -9.753,-4.225c-3.151,-1.999 -5.99,-4.395 -7.563,-6.246c-1.519,-1.788 -2.234,-3.519 -2.483,-4.752Zm6.862,-1.385c0.579,2.865 12.427,11.181 16.455,9.64c6.229,-2.382 3.669,-12.641 1.459,-19.651c0,0 -18.097,9.106 -17.914,10.011Z"/><path d="M287.218,304.875c0.481,2.883 12.042,11.594 16.12,10.191c6.306,-2.17 4.095,-12.51 2.122,-19.591c0,0 -18.394,8.489 -18.242,9.4Z" style="fill:#fff;"/><path d="M280.313,306.027l-0.03,-2.132l0.627,-2.092l1.216,-1.804c0.313,-0.343 0.802,-0.812 1.51,-1.315c3.056,-2.172 18.891,-9.566 18.891,-9.566c1.863,-0.86 4.01,-0.859 5.873,0.003c1.863,0.862 3.253,2.498 3.804,4.475c1.42,5.097 2.758,11.626 2.115,16.576c-0.73,5.62 -3.549,9.738 -8.703,11.512c-1.621,0.558 -3.683,0.732 -6.03,0.227c-2.767,-0.596 -6.362,-2.339 -9.605,-4.553c-3.082,-2.105 -5.838,-4.595 -7.347,-6.498c-1.458,-1.839 -2.114,-3.592 -2.321,-4.833Zm6.904,-1.153c0.481,2.883 12.042,11.594 16.12,10.191c6.306,-2.17 4.095,-12.51 2.122,-19.591c0,0 -18.394,8.489 -18.242,9.4Z"/><path d="M282.668,221.166c-2.223,-1.463 -3.265,-8.535 -2.465,-11.395c2.103,-7.516 9.586,-10.872 12.624,-10.133c6.616,1.609 9.53,12.241 5.47,17.876c-2.172,3.014 -9.8,7.489 -15.629,3.652Z"/><path d="M247.365,231.531c1.043,-2.448 -1.999,-8.917 -4.248,-10.857c-5.908,-5.099 -13.999,-3.757 -16.122,-1.461c-4.623,5 -1.171,15.469 5.329,17.919c3.477,1.31 12.306,0.82 15.041,-5.601Z"/></svg>