<?xml version="1.0" encoding="UTF-8" standalone="no"?><!DOCTYPE svg PUBLIC "-//W3C//DTD SVG 1.1//EN" "http://www.w3.org/Graphics/SVG/1.1/DTD/svg11.dtd"><svg width="100%" height="100%" viewBox="0 0 751 751" version="1.1" xmlns="http://www.w3.org/2000/svg" xmlns:xlink="http://www.w3.org/1999/xlink" xml:space="preserve" xmlns:serif="http://www.serif.com/" style="fill-rule:evenodd;clip-rule:evenodd;stroke-linejoin:round;stroke-miterlimit:2;"><rect id="rush" x="0.423" y="0.57" width="750" height="750" style="fill:none;"/><path d="M100.472,445.589c-20.478,-81.324 -12.893,-163.121 2.404,-198.183c36.108,-82.763 138.075,-150.088 238.526,-141.961c150.677,12.191 143.866,104.37 212.008,110.405c50.684,4.489 86.321,-33.383 106.574,-29.005c50.716,10.963 59.563,161.684 11.36,271.057c11.916,24.806 4.138,51.694 -1.652,69.394c-0.324,0.99 -0.611,1.966 -0.949,2.881c-28.998,78.59 -134.696,142.9 -190.834,137.827c-43.715,12.137 -67.496,-5.232 -80.012,-23.676c-82.235,8.244 -155.453,-10.001 -185.476,-29.612c-49.818,-32.541 -81.524,-80.622 -100.454,-131.865l1.436,4.751c-2.815,-0.313 -61.497,-4.044 -65.552,-31.077c-3.201,-21.343 46.583,-15.29 52.622,-10.938Z" style="fill:#ffcc9b;"/><path d="M73.896,420.66c-13.307,-76.318 -4.563,-148.469 9.885,-181.585c39.257,-89.982 150.089,-163.232 259.301,-154.395c98.49,7.969 135.198,47.343 164.854,78.959c14.408,15.36 25.673,29.543 47.312,31.459c31.212,2.764 55.622,-13.818 73.759,-22.043c13.845,-6.279 25.858,-8.63 35.379,-6.572c21.031,4.546 39.388,24.372 49.435,56.932c17.439,56.515 12.813,154.699 -19.949,234.735c9.193,27.611 1.986,56.166 -4.38,75.625c-0.407,1.243 -0.78,2.466 -1.204,3.615c-19.011,51.524 -67.704,97.891 -117.257,125.175c-32.756,18.036 -65.879,27.524 -91.067,26.448c-46.32,11.739 -74.469,-3.674 -91.544,-22.958c-83.523,6.039 -156.574,-13.765 -187.393,-33.896c-48.26,-31.524 -80.95,-76.424 -101.907,-125.287c-12.363,-1.814 -31.709,-5.686 -45.922,-13.532c-14.219,-7.849 -23.806,-19.427 -25.95,-33.724c-2.593,-17.287 5.937,-29.078 22.043,-35.173c6.818,-2.58 15.763,-3.682 24.606,-3.784Zm26.576,24.929c-6.038,-4.352 -55.823,-10.405 -52.622,10.938c4.055,27.033 62.737,30.764 65.552,31.077l-1.436,-4.751c18.93,51.243 50.637,99.324 100.454,131.865c30.023,19.611 103.241,37.857 185.476,29.612c12.516,18.444 36.297,35.813 80.012,23.676c56.138,5.073 161.837,-59.237 190.834,-137.827c0.337,-0.914 0.625,-1.891 0.949,-2.881c5.791,-17.7 13.568,-44.588 1.652,-69.394c48.203,-109.373 39.356,-260.094 -11.36,-271.057c-20.253,-4.378 -55.89,33.494 -106.574,29.005c-68.142,-6.035 -61.331,-98.214 -212.008,-110.405c-100.45,-8.128 -202.418,59.197 -238.526,141.961c-15.297,35.062 -22.882,116.858 -2.404,198.183Z" style="fill:#fff;"/><path d="M100.778,445.844c-4.358,-4.358 -56.192,-11.082 -52.927,10.683c4.055,27.033 62.737,30.764 65.552,31.077" style="fill:#ffcc9b;"/><path d="M98.409,448.421c-0.214,-0.088 -2.599,-1.061 -4.793,-1.571c-7.278,-1.69 -19.449,-2.855 -29.247,-1.285c-3.448,0.553 -6.59,1.433 -9.03,2.827c-2.842,1.623 -4.564,4.035 -4.027,7.616c1.45,9.669 11.053,15.64 21.811,19.78c17.666,6.797 39.013,8.154 40.667,8.338c1.92,0.213 3.305,1.945 3.092,3.865c-0.213,1.92 -1.945,3.305 -3.865,3.092c-1.725,-0.192 -23.98,-1.671 -42.407,-8.762c-13.307,-5.12 -24.426,-13.315 -26.22,-25.274c-1.6,-10.665 6.915,-16.477 18.872,-18.393c10.7,-1.715 23.991,-0.468 31.938,1.378c4.178,0.97 7.048,2.333 8.053,3.338c1.366,1.366 1.366,3.584 0,4.95c-1.331,1.331 -3.471,1.365 -4.844,0.102Z"/><path d="M553.41,215.851c50.684,4.489 86.321,-33.383 106.574,-29.005c58.146,12.569 61.257,208.841 -13.544,315.891c-130.326,186.514 -372.591,152.105 -434.02,111.98c-139.61,-91.195 -136.981,-304.425 -109.544,-367.311c36.108,-82.763 138.075,-150.088 238.526,-141.961c150.677,12.191 143.866,104.37 212.008,110.405Z" style="fill:#ffcc9b;"/><path d="M553.719,212.364c29.675,2.628 54.03,-9.752 73.062,-19.052c8.024,-3.921 15.154,-7.321 21.367,-9.043c4.643,-1.287 8.839,-1.653 12.576,-0.845c7.69,1.662 14.548,6.176 20.448,13.15c8.318,9.832 14.773,24.698 19.074,43.014c16.319,69.494 1.984,189.417 -50.936,265.153c-78.978,113.028 -198.627,145.787 -295.135,145.108c-64.565,-0.454 -118.763,-15.935 -143.668,-32.203c-70.652,-46.151 -105.416,-123.119 -118.943,-196.567c-13.522,-73.423 -5.776,-143.26 8.104,-175.074c36.637,-83.976 140.094,-152.296 242.016,-144.05c91.764,7.425 125.978,44.083 153.609,73.541c17.519,18.677 32.113,34.536 58.425,36.867Zm-0.618,6.973c-28.202,-2.498 -44.136,-19.032 -62.913,-39.051c-26.813,-28.585 -60.02,-64.147 -149.068,-71.352c-98.978,-8.008 -199.457,58.321 -235.036,139.872c-13.556,31.073 -20.843,99.294 -7.636,171.007c13.202,71.687 46.929,146.931 115.886,191.975c24.238,15.833 77.05,30.622 139.889,31.064c94.597,0.665 211.934,-31.329 289.348,-142.118c51.801,-74.134 65.833,-191.519 49.86,-259.543c-3.35,-14.265 -8.012,-26.327 -13.983,-35.264c-5.595,-8.373 -12.292,-13.949 -20.203,-15.659c-3.51,-0.759 -7.537,0.069 -12.111,1.653c-5.163,1.787 -10.921,4.575 -17.28,7.682c-19.976,9.761 -45.607,22.494 -76.753,19.735Z"/><path d="M187.301,211.629c0.511,0.046 1.201,0.089 1.883,0.073c5.837,-0.137 11.809,-0.608 17.89,-4.09c9.511,-5.445 19.079,-17.948 29.193,-46.17l1.054,-2.942l5.884,2.108l-1.054,2.942c-10.908,30.438 -21.714,43.612 -31.971,49.485c-7.098,4.064 -14.035,4.755 -20.849,4.914c-4.562,0.107 -6.532,-1.083 -7.431,-2.33l-0.318,-0.623c-6.621,10.667 -11.373,16.25 -35.881,31.331c-1.275,0.784 -2.927,0.555 -3.939,-0.547c-1.013,-1.102 -1.101,-2.768 -0.212,-3.971c7.897,-10.685 10.396,-9.4 15.544,-29.254l0.784,-3.025l6.05,1.569l-0.784,3.025c-2.27,8.754 -4.043,13.682 -5.935,17.248c14.866,-10.542 16.395,-15.699 24.947,-29.217c0.729,-1.152 2.119,-1.698 3.437,-1.351c1.318,0.347 2.259,1.508 2.325,2.87c0.134,2.747 -0.18,4.959 -0.453,6.703c-0.061,0.388 -0.119,0.857 -0.165,1.252Z"/><path d="M175.717,255.655c-1.065,0.313 14.84,38.498 -4.018,40.138c-17.595,1.53 -15.398,-18.732 -16.583,-35.33" style="fill:#fff;"/><path d="M178.207,255.888c0.021,0.096 0.047,0.209 0.072,0.307c1.003,3.956 5.48,17.023 5.184,27.162c-0.233,7.99 -3.316,14.21 -11.547,14.925c-5.231,0.455 -8.964,-0.815 -11.683,-3.126c-2.649,-2.252 -4.358,-5.58 -5.399,-9.605c-1.831,-7.077 -1.608,-16.459 -2.211,-24.911c-0.098,-1.376 0.939,-2.573 2.316,-2.672c1.376,-0.098 2.573,0.939 2.672,2.316c0.582,8.146 0.3,17.194 2.065,24.015c0.757,2.924 1.872,5.412 3.797,7.048c1.854,1.576 4.445,2.265 8.012,1.955c4.652,-0.405 6.381,-3.849 6.851,-8.144c0.881,-8.042 -2.345,-18.896 -4.033,-24.664c-0.57,-1.948 -0.978,-3.384 -1.083,-4.058l0.016,-1.269l0.216,-0.605l0.359,-0.535l0.516,-0.452l0.686,-0.319c1.324,-0.39 2.715,0.369 3.104,1.692c0.092,0.314 0.12,0.632 0.091,0.94Zm-0.884,1.683c-0.256,0.215 -0.559,0.381 -0.899,0.481c0.326,-0.096 0.63,-0.25 0.899,-0.481Z"/><path d="M151.512,256.13c1.534,0.209 11.852,1.461 22.89,-0.992c1.347,-0.299 2.683,0.551 2.983,1.898c0.299,1.347 -0.551,2.683 -1.898,2.983c-13.365,2.97 -24.189,1.363 -25.793,0.813l-0.594,-0.267l-0.505,-0.379l-0.38,-0.46l-0.263,-0.537l-0.142,-0.83l0.17,-0.913l0.496,-0.796l0.689,-0.529c0.763,-0.402 1.64,-0.369 2.347,0.009Zm1.028,3.371c-0.227,0.431 -0.582,0.8 -1.045,1.043c0.545,-0.287 0.858,-0.666 1.045,-1.043Z"/><path d="M180.836,286.162c-0.592,3.423 -1.364,5.132 -2.748,6.05c-2.845,1.889 -7.825,3.206 -11.376,3.046c-2.748,-0.123 -4.711,-3.449 -3.959,-7.237c1.021,-5.144 5.11,-10.48 11.145,-11.853c2.143,-0.487 4.356,0.57 4.939,2.361c0.223,0.685 0.264,-0.623 0,-0c0.944,0.726 2.194,6.492 1.997,7.632Z"/><path d="M242.367,214.34c-0.172,-0.802 0.054,-1.672 0.676,-2.294c0.976,-0.976 2.56,-0.976 3.536,0l0.597,0.753l0.394,1.119l-0.043,1.201l-0.584,1.433c-0.609,1.038 -2.102,2.836 -5.534,5.993c-10.432,9.597 -15.307,9.456 -18.469,10.68c-1.287,0.498 -2.736,-0.142 -3.234,-1.429c-0.498,-1.287 0.142,-2.736 1.429,-3.234c2.886,-1.117 7.367,-0.936 16.889,-9.696c2.354,-2.166 3.766,-3.812 4.343,-4.525Z"/><path d="M225.933,233.89c2.675,14.264 4.306,38.947 25.77,26.069c6.121,-3.673 8.23,-18.193 -7.791,-39.554" style="fill:#fff;"/><path d="M223.476,234.351c-0.254,-1.356 0.64,-2.664 1.996,-2.918c1.356,-0.254 2.664,0.64 2.918,1.996c1.049,5.597 1.917,12.833 3.949,18.688c1.306,3.762 3.009,6.974 5.894,8.321c2.894,1.351 6.755,0.634 12.183,-2.622c1.9,-1.14 3.104,-3.719 3.306,-7.353c0.371,-6.658 -2.701,-16.41 -11.811,-28.557c-0.828,-1.104 -0.604,-2.672 0.5,-3.5c1.104,-0.828 2.672,-0.604 3.5,0.5c10.115,13.487 13.215,24.442 12.803,31.835c-0.32,5.736 -2.728,9.563 -5.726,11.362c-7.453,4.472 -12.896,4.72 -16.87,2.866c-3.982,-1.858 -6.701,-6.019 -8.503,-11.212c-2.112,-6.083 -3.05,-13.592 -4.14,-19.406Z"/><path d="M253.162,243.564c0.631,1.067 1.16,2.567 1.414,4.329c0.495,0.337 0.911,0.805 1.187,1.384c1.456,3.048 1.176,4.527 0.138,6.438c-0.534,0.983 -1.606,2.197 -3.029,4.678c-0.61,1.064 -1.717,1.711 -2.902,1.757c-1.557,1.447 -3.099,1.822 -4.327,1.759l-1.377,-0.268l-1.18,-0.587c-0.794,-0.528 -1.548,-1.344 -2.135,-2.468c-1.345,-2.574 -1.88,-7.457 -0.698,-12.055c1.241,-4.824 4.273,-9.185 9.313,-10.649c1.855,-0.539 3.799,0.53 4.337,2.385c0.347,1.196 0.027,2.428 -0.741,3.297Z"/><path d="M477.908,668.005c-77.736,21.583 -92.437,-50.139 -92.852,-55.285c-13.133,-162.513 121.801,-224.096 202.202,-206.139c110.42,24.661 93.073,88.195 82.433,120.717c-0.324,0.99 -0.611,1.966 -0.949,2.881c-28.998,78.59 -134.696,142.9 -190.834,137.827Z" style="fill:#fff;"/><path d="M478.233,671.546c-24.041,6.555 -42.268,4.412 -56.025,-1.802c-32.677,-14.76 -40.334,-52.947 -40.641,-56.742c-13.389,-165.675 124.489,-228.143 206.454,-209.837c45.427,10.145 69.704,26.914 81.931,45.254c18.538,27.804 9.701,59.683 3.066,79.967c-0.338,1.032 -0.64,2.05 -0.992,3.004c-17.67,47.888 -63.299,90.633 -109.356,115.991c-30.662,16.883 -61.515,26.017 -84.437,24.165Zm-1.262,-6.913c50.228,-13.946 110.296,-69.594 131.863,-121.898c13.878,-33.656 11.612,-65.998 -21.428,-83.968c-4.754,-2.585 -13.844,-3.686 -24.236,-3.151c-16.029,0.826 -35.164,5.692 -46.928,16.517c-39.763,36.589 -61.886,88.805 -57.052,119.076c1.448,9.069 5.387,16.041 12.443,19.435c7.418,3.568 17.92,3.222 31.839,-1.829c12.364,-4.486 22.83,-14.665 30.977,-26.79c12.429,-18.497 19.477,-41.595 19.083,-57.011c-0.099,-3.891 -0.665,-7.25 -1.834,-9.82c-0.885,-1.945 -2.098,-3.389 -3.848,-3.971c-1.985,-0.659 -4.455,-0.267 -7.485,1.032c-3.764,1.613 -8.174,4.603 -13.315,9.161c-3.806,3.374 -6.304,8.711 -8.089,14.201c-2.899,8.917 -3.827,18.335 -4.342,22.011c-0.268,1.913 -2.039,3.248 -3.952,2.98c-1.913,-0.268 -3.248,-2.039 -2.98,-3.952c0.544,-3.876 1.56,-13.801 4.618,-23.203c2.186,-6.723 5.443,-13.143 10.103,-17.274c7.088,-6.284 13.049,-9.85 17.871,-11.347c3.829,-1.189 7.081,-1.148 9.78,-0.251c6.379,2.119 10.199,9.524 10.473,20.255c0.422,16.506 -6.963,41.29 -20.271,61.094c-9.011,13.409 -20.726,24.504 -34.4,29.466c-16.277,5.906 -28.587,5.729 -37.261,1.557c-9.036,-4.346 -14.466,-13.024 -16.321,-24.639c-5.076,-31.78 17.479,-86.918 59.224,-125.331c12.885,-11.857 33.75,-17.452 51.307,-18.357c12,-0.619 22.451,1.006 27.941,3.992c36.594,19.902 39.926,55.509 24.555,92.785c-19.321,46.856 -68.583,96.236 -115.18,117.985c18.018,-3.027 38.619,-10.825 59.167,-22.139c44.645,-24.581 89.037,-65.863 106.165,-112.283c0.323,-0.875 0.596,-1.811 0.906,-2.758c6.131,-18.742 14.892,-48.218 -2.237,-73.907c-11.55,-17.323 -34.723,-32.722 -77.633,-42.305c-78.837,-17.607 -210.829,43.089 -197.951,202.441c0.275,3.409 7.199,37.671 36.545,50.927c12.708,5.74 29.584,7.459 51.882,1.268Z"/><path d="M668.67,542.92c-0.301,1.908 -2.095,3.213 -4.003,2.912c-1.908,-0.301 -3.213,-2.095 -2.912,-4.003c1.003,-6.359 6.297,-18.539 9.653,-33.268c3.187,-13.989 4.6,-30.409 -1.889,-46.158c-8.762,-21.267 -31.824,-40.972 -83.024,-52.407c-78.837,-17.607 -210.829,43.089 -197.951,202.441c0.275,3.409 7.199,37.671 36.545,50.927c12.708,5.74 29.584,7.459 51.882,1.268c50.228,-13.946 110.296,-69.594 131.863,-121.898c13.878,-33.656 11.612,-65.998 -21.428,-83.968c-4.754,-2.585 -13.844,-3.686 -24.236,-3.151c-16.029,0.826 -35.164,5.692 -46.928,16.517c-39.763,36.589 -61.886,88.805 -57.052,119.076c1.448,9.069 5.387,16.041 12.443,19.435c7.418,3.568 17.92,3.222 31.839,-1.829c12.364,-4.486 22.83,-14.665 30.977,-26.79c12.429,-18.497 19.477,-41.595 19.083,-57.011c-0.099,-3.891 -0.665,-7.25 -1.834,-9.82c-0.885,-1.945 -2.098,-3.389 -3.848,-3.971c-1.985,-0.659 -4.455,-0.267 -7.485,1.032c-3.764,1.613 -8.174,4.603 -13.315,9.161c-3.806,3.374 -6.304,8.711 -8.089,14.201c-2.899,8.917 -3.827,18.335 -4.342,22.011c-0.268,1.913 -2.039,3.248 -3.952,2.98c-1.913,-0.268 -3.248,-2.039 -2.98,-3.952c0.544,-3.876 1.56,-13.801 4.618,-23.203c2.186,-6.723 5.443,-13.143 10.103,-17.274c7.088,-6.284 13.049,-9.85 17.871,-11.347c3.829,-1.189 7.081,-1.148 9.78,-0.251c6.379,2.119 10.199,9.524 10.473,20.255c0.422,16.506 -6.963,41.29 -20.271,61.094c-9.011,13.409 -20.726,24.504 -34.4,29.466c-16.277,5.906 -28.587,5.729 -37.261,1.557c-9.036,-4.346 -14.466,-13.024 -16.321,-24.639c-5.076,-31.78 17.479,-86.918 59.224,-125.331c12.885,-11.857 33.75,-17.452 51.307,-18.357c12,-0.619 22.451,1.006 27.941,3.992c36.594,19.902 39.926,55.509 24.555,92.785c-22.305,54.094 -84.516,111.552 -136.462,125.975c-24.344,6.759 -42.763,4.633 -56.636,-1.634c-32.677,-14.76 -40.334,-52.947 -40.641,-56.742c-13.389,-165.675 124.489,-228.143 206.454,-209.837c54.543,12.181 78.637,33.917 87.97,56.572c7.083,17.192 5.721,35.109 2.242,50.38c-3.31,14.53 -8.574,26.532 -9.563,32.804Z"/><path d="M432.125,263.697c1.87,-0.485 3.781,0.64 4.266,2.51c0.485,1.87 -0.64,3.781 -2.51,4.266c-32.16,8.334 -61.962,19.701 -78.778,29.923c-6.476,3.937 -10.978,7.49 -12.421,10.738c-0.942,2.12 -1.953,8.929 4.838,13.059c3.256,1.98 8.063,3.35 15.006,3.705c11.324,0.578 27.92,-1.588 52.116,-8.501c1.857,-0.531 3.796,0.546 4.327,2.404c0.531,1.857 -0.546,3.796 -2.404,4.327c-25.246,7.213 -42.581,9.365 -54.396,8.761c-8.483,-0.433 -14.308,-2.295 -18.286,-4.715c-11.296,-6.87 -9.165,-18.356 -7.598,-21.883c1.808,-4.068 7.069,-8.944 15.182,-13.876c17.222,-10.47 47.719,-22.182 80.658,-30.718Z"/><path d="M205.415,311.451l-4.161,0.219l-0.439,-8.322l4.161,-0.219c6.685,-0.352 10.03,-5.859 9.527,-12.344l-0.322,-4.154l8.308,-0.644l0.322,4.154c0.887,11.442 -5.603,20.688 -17.397,21.31Z"/></svg>