<?xml version="1.0" encoding="UTF-8" standalone="no"?><!DOCTYPE svg PUBLIC "-//W3C//DTD SVG 1.1//EN" "http://www.w3.org/Graphics/SVG/1.1/DTD/svg11.dtd"><svg width="100%" height="100%" viewBox="0 0 750 751" version="1.1" xmlns="http://www.w3.org/2000/svg" xmlns:xlink="http://www.w3.org/1999/xlink" xml:space="preserve" xmlns:serif="http://www.serif.com/" style="fill-rule:evenodd;clip-rule:evenodd;stroke-linejoin:round;stroke-miterlimit:2;"><rect id="sad" x="0" y="0.737" width="750" height="750" style="fill:none;"/><path d="M153.606,336.269c65.996,-119.523 148.193,-238.146 206.685,-260.132c109.842,-41.288 409.442,473.852 334.121,542.212c-91.828,83.34 -597.453,79.14 -649.384,-14.16c-7.082,-12.724 12.573,-71.111 46.325,-144.836c-23.165,-59.503 -55.463,-160.357 -27.971,-182.807c23.877,-19.497 66.077,39.134 90.224,59.723Z" style="fill:#d0ffff;"/><path d="M148.673,302.506c36.999,-64.784 78.005,-127.463 116.7,-173.186c31.303,-36.988 61.825,-63.001 87.587,-72.685c21.474,-8.072 49.127,-2.371 79.246,17.779c55.69,37.256 125.182,125.45 182.45,221c57.126,95.313 102.075,197.754 110.891,262.593c4.871,35.828 -2.128,62.148 -17.135,75.768c-21.168,19.212 -61.977,35.172 -114.39,45.892c-113.508,23.216 -283.676,24.999 -406.523,5.04c-46.653,-7.58 -86.646,-18.393 -114.768,-32.032c-22.505,-10.915 -38.029,-24.198 -45.908,-38.354c-3.46,-6.215 -5.506,-19.094 -1.684,-37.36c5.386,-25.745 21.111,-68.288 43.64,-118.286c-16.337,-43.206 -35.179,-102.85 -36.677,-143.216c-0.958,-25.81 6.018,-45.181 18.103,-55.05c13.647,-11.144 30.409,-11.491 48.468,-1.817c16.182,8.668 34.421,27.916 49.999,43.914Zm4.933,33.763c-24.147,-20.589 -66.347,-79.221 -90.224,-59.723c-27.492,22.449 4.806,123.304 27.971,182.807c-33.752,73.725 -53.408,132.112 -46.325,144.836c51.931,93.3 557.556,97.501 649.384,14.16c75.322,-68.36 -224.279,-583.5 -334.121,-542.212c-58.492,21.986 -140.689,140.609 -206.685,260.132Z" style="fill:#fff;"/><path d="M152.663,330.747c39.212,-70.633 83.931,-140.59 125.942,-190.229c28.911,-34.162 56.661,-58.713 80.455,-67.657c17.314,-6.508 39.224,-0.286 63.509,15.961c54.219,36.272 121.465,122.477 177.221,215.504c55.732,92.988 99.983,192.761 108.583,256.018c3.869,28.457 0.31,49.779 -11.609,60.597c-19.6,17.789 -57.683,31.819 -106.214,41.746c-111.762,22.859 -279.313,24.565 -400.27,4.912c-44.69,-7.261 -83.046,-17.454 -109.983,-30.519c-18.589,-9.016 -31.818,-19.496 -38.327,-31.189c-1.058,-1.902 -1.729,-4.601 -1.856,-8.076c-0.16,-4.398 0.512,-10.23 1.992,-17.305c5.461,-26.103 22.008,-69.932 45.45,-121.268c-16.256,-41.954 -36.611,-103.458 -38.131,-144.426c-0.705,-18.987 2.854,-33.722 11.744,-40.981c5.671,-4.631 12.195,-5.634 19.261,-3.945c6.344,1.516 13.189,5.315 20.166,10.522c18.279,13.644 37.746,37.129 52.067,50.336Zm-1.328,8.185c-14.445,-12.317 -35.356,-38.304 -54.927,-52.912c-6.11,-4.56 -12.049,-7.996 -17.605,-9.323c-4.835,-1.155 -9.327,-0.609 -13.207,2.559c-3.603,2.942 -5.937,7.478 -7.392,13.149c-1.594,6.211 -2.098,13.724 -1.785,22.15c1.513,40.781 22.106,102.198 38.195,143.527c0.343,0.882 0.315,1.866 -0.079,2.727c-23.485,51.299 -40.135,95.116 -45.578,121.134c-1.336,6.387 -1.993,11.646 -1.848,15.617c0.077,2.106 0.335,3.774 0.977,4.926c5.955,10.699 18.256,20.045 35.265,28.295c26.46,12.833 64.155,22.776 108.051,29.908c120.194,19.528 286.688,17.854 397.745,-4.861c46.963,-9.606 83.945,-22.857 102.912,-40.071c5.134,-4.659 8.244,-11.654 9.761,-20.497c1.619,-9.435 1.394,-20.896 -0.384,-33.973c-8.514,-62.618 -52.482,-161.314 -107.651,-253.362c-55.145,-92.009 -121.483,-177.41 -175.109,-213.285c-21.935,-14.675 -41.515,-21.105 -57.154,-15.226c-22.999,8.645 -49.629,32.606 -77.575,65.627c-42.515,50.236 -87.798,121.421 -127.278,192.921c-0.508,0.92 -1.403,1.563 -2.437,1.752c-1.034,0.188 -2.098,-0.098 -2.898,-0.78Z"/><path d="M513.927,416.441c1.795,-0.714 3.832,0.164 4.545,1.959c0.714,1.795 -0.164,3.832 -1.959,4.545c0,-0 -61.307,24.332 -95.436,56.081c-13.823,12.86 -23.319,26.804 -21.134,40.963c0.652,4.226 3.83,7.259 8.45,9.631c5.467,2.807 12.868,4.598 21.331,5.72c41.233,5.463 106.881,-5.368 106.881,-5.368c1.906,-0.313 3.708,0.98 4.022,2.886c0.313,1.906 -0.98,3.708 -2.886,4.022c0,0 -66.912,10.968 -108.936,5.4c-11.353,-1.504 -20.944,-4.262 -27.2,-8.561c-4.803,-3.301 -7.785,-7.51 -8.58,-12.662c-2.493,-16.155 7.512,-32.483 23.284,-47.155c34.924,-32.489 97.617,-57.461 97.617,-57.461Z"/><path d="M316.061,226.654c-4.304,-0.469 -7.793,-2.298 -10.149,-5.448c-2.408,-3.22 -3.011,-7.034 -2.236,-11.001c0.987,-5.053 4.354,-10.411 8.526,-14.61c3.792,-3.816 8.225,-6.646 11.922,-7.637c3.486,-0.935 6.489,-0.348 8.576,1.547c1.359,1.235 2.432,3.114 2.795,5.884c0.388,2.952 -0.05,7.242 -1.874,13.136c-0.877,2.835 -1.909,5.521 -3.076,8.069c0.027,-0.012 0.054,-0.024 0.08,-0.036c14.867,-6.748 32.774,-22.935 43.294,-43.163c0.891,-1.714 3.006,-2.382 4.72,-1.49c1.714,0.891 2.382,3.006 1.49,4.72c-13.246,25.469 -37.525,44.807 -54.585,49.173c-0.063,0.016 -0.127,0.032 -0.19,0.048c-12.034,17.863 -31.351,27.583 -48.058,34.638c-1.78,0.751 -3.834,-0.083 -4.586,-1.863c-0.751,-1.78 0.083,-3.834 1.863,-4.586c14.032,-5.925 30.238,-13.69 41.487,-27.381Zm5.009,-7.075c2.377,-3.939 4.369,-8.293 5.865,-13.125c1.249,-4.036 1.781,-7.101 1.687,-9.365c-0.049,-1.17 -0.112,-2.017 -0.657,-2.428c-0.445,-0.335 -1.067,-0.168 -1.754,-0.011c-1.473,0.336 -3.103,1.167 -4.749,2.284c-4.341,2.946 -8.726,7.896 -10.433,12.845c-0.889,2.578 -1.06,5.16 0.491,7.233c1.472,1.969 3.819,2.75 6.633,2.777c0.931,0.009 1.905,-0.063 2.919,-0.211Z"/><path d="M313.642,278.147c-51.753,12.602 -54.239,11.77 -55.262,16.845c-2.283,11.329 35.088,32.088 44.486,-12.02" style="fill:#fff;"/><path d="M306.323,283.519c-0.01,0.061 -0.021,0.121 -0.034,0.182c-3.644,17.104 -11.412,25.181 -19.437,28.206c-8.367,3.154 -17.355,0.896 -23.59,-3.269c-3.342,-2.232 -5.882,-5.011 -7.238,-7.724c-1.137,-2.275 -1.49,-4.556 -1.075,-6.614c0.276,-1.369 0.682,-2.456 1.414,-3.448c0.928,-1.258 2.486,-2.479 5.851,-3.656c5.944,-2.08 19.344,-4.838 50.601,-12.449c1.877,-0.457 3.772,0.696 4.229,2.573c0.457,1.877 -0.696,3.772 -2.573,4.229c-2.865,0.698 -5.578,1.354 -8.147,1.971Zm-7.615,1.821c-19.852,4.72 -29.432,6.801 -34.183,8.463c-1.936,0.677 -2.513,0.882 -2.714,1.88c-0.183,0.91 0.277,1.886 0.927,2.889c0.986,1.522 2.532,2.99 4.412,4.245c5.447,3.638 13.763,5.503 20.742,0.697c4.519,-3.112 8.362,-8.858 10.815,-18.174Z"/><path d="M412.166,255.802c-51.753,12.602 -54.239,11.77 -55.262,16.845c-2.283,11.329 35.088,32.088 44.486,-12.02" style="fill:#fff;"/><path d="M404.847,261.174c-0.01,0.061 -0.021,0.121 -0.034,0.182c-3.644,17.104 -11.412,25.181 -19.437,28.206c-8.367,3.154 -17.355,0.896 -23.59,-3.269c-3.342,-2.232 -5.882,-5.011 -7.238,-7.724c-1.137,-2.275 -1.49,-4.556 -1.075,-6.614c0.276,-1.369 0.682,-2.456 1.414,-3.448c0.928,-1.258 2.486,-2.479 5.851,-3.656c5.944,-2.08 19.344,-4.838 50.601,-12.449c1.877,-0.457 3.772,0.696 4.229,2.573c0.457,1.877 -0.696,3.772 -2.573,4.229c-2.865,0.698 -5.578,1.354 -8.147,1.971Zm-7.615,1.821c-19.852,4.72 -29.432,6.801 -34.183,8.463c-1.936,0.677 -2.513,0.882 -2.714,1.88c-0.183,0.91 0.277,1.886 0.927,2.889c0.986,1.522 2.532,2.99 4.412,4.245c5.447,3.638 13.763,5.503 20.742,0.697c4.519,-3.112 8.362,-8.858 10.815,-18.174Z"/><path d="M280.414,286.067c5.55,5.056 4.136,19.045 -4.478,23.829c-9.199,-1.025 -15.732,-8.446 -17.656,-18.522l22.134,-5.307Z" style="fill:#57595a;"/><path d="M282.771,283.48c2.866,2.611 4.475,7.001 4.445,11.804c-0.043,6.768 -3.312,14.191 -9.581,17.672c-0.635,0.353 -1.365,0.499 -2.087,0.419c-10.691,-1.191 -18.47,-9.635 -20.706,-21.344c-0.351,-1.836 0.804,-3.624 2.622,-4.06l22.134,-5.307c1.128,-0.27 2.316,0.035 3.173,0.816Zm-3.673,6.502l-16.551,3.968c2.093,6.407 6.527,11.141 12.624,12.294c3.424,-2.455 5.02,-6.964 5.046,-11.005c0.012,-1.95 -0.313,-3.83 -1.118,-5.257Z"/><path d="M378.938,263.722c5.55,5.056 4.136,19.045 -4.478,23.829c-9.199,-1.025 -15.732,-8.446 -17.656,-18.522l22.134,-5.307Z" style="fill:#57595a;"/><path d="M381.295,261.135c2.866,2.611 4.475,7.001 4.445,11.804c-0.043,6.768 -3.312,14.191 -9.581,17.672c-0.635,0.353 -1.365,0.499 -2.087,0.419c-10.691,-1.191 -18.47,-9.635 -20.706,-21.344c-0.351,-1.836 0.804,-3.624 2.622,-4.06l22.134,-5.307c1.128,-0.27 2.316,0.035 3.173,0.816Zm-3.673,6.502l-16.551,3.968c2.093,6.407 6.527,11.141 12.624,12.294c3.424,-2.455 5.02,-6.964 5.046,-11.005c0.012,-1.95 -0.313,-3.83 -1.118,-5.257Z"/><path d="M349.505,300.477c1.862,-0.513 3.791,0.583 4.304,2.445c0.513,1.862 -0.583,3.791 -2.445,4.304c-5.799,1.597 -9.155,4.64 -10.015,9.301c-0.351,1.9 -2.177,3.157 -4.077,2.807c-1.9,-0.351 -3.157,-2.177 -2.807,-4.077c1.327,-7.192 6.093,-12.316 15.041,-14.78Z"/></svg>