<svg width="363" height="230" viewBox="0 0 363 230" fill="none" xmlns="http://www.w3.org/2000/svg">
<circle cx="189.204" cy="164.398" r="37.7982" transform="rotate(-1.49651 189.204 164.398)" fill="white"/>
<circle cx="240.48" cy="162.248" r="37.7982" transform="rotate(-1.49651 240.48 162.248)" fill="white"/>
<circle cx="291.853" cy="162.495" r="37.7982" transform="rotate(-1.49651 291.853 162.495)" fill="white"/>
<circle cx="291.61" cy="162.265" r="31.0535" transform="rotate(-1.49651 291.61 162.265)" fill="white" stroke="#252525" stroke-width="3"/>
<circle cx="239.797" cy="162.893" r="31.0535" transform="rotate(-1.49651 239.797 162.893)" fill="white" stroke="#252525" stroke-width="3"/>
<circle cx="188.961" cy="164.168" r="31.0535" transform="rotate(-1.49651 188.961 164.168)" fill="white" stroke="#252525" stroke-width="3"/>
<g filter="url(#filter0_n_137_2)">
<path d="M197.132 179.29C196.812 179.299 196.615 179.112 196.606 178.792L196.284 166.444L193.597 166.514C193.371 171.354 192.368 175.862 190.339 179.052C190.247 179.214 190.089 179.282 189.961 179.286C189.865 179.288 189.736 179.26 189.639 179.198L185.644 176.998L185.671 178.053C185.68 178.373 185.493 178.57 185.173 178.578L176.792 178.797C176.472 178.806 176.275 178.619 176.267 178.299L176.046 169.854C175.894 170.146 175.71 170.471 175.556 170.699C175.464 170.861 175.338 170.929 175.242 170.931C175.082 170.935 174.951 170.811 174.881 170.589L173.271 165.317C173.236 165.222 173.234 165.158 173.233 165.094C173.229 164.934 173.257 164.805 173.35 164.675C174.923 162.393 176.245 159.093 176.736 155.815L174.496 155.874C174.144 155.883 173.979 155.695 173.971 155.375L173.858 151.057C173.85 150.737 174.005 150.541 174.357 150.531L184.625 150.263C184.977 150.254 185.142 150.442 185.15 150.762L185.263 155.08C185.272 155.4 185.117 155.596 184.765 155.605L181.918 155.68C181.701 157.19 181.324 158.672 180.881 160.092L184.687 159.993C185.007 159.984 185.203 160.139 185.213 160.491L185.601 175.366C187.231 172.827 187.894 169.992 188.095 166.658L186.431 166.702C186.111 166.71 185.914 166.523 185.906 166.203L185.791 161.821C185.783 161.501 185.97 161.304 186.29 161.295L188.113 161.248L187.965 155.554L186.493 155.592C186.173 155.601 185.976 155.414 185.968 155.094L185.854 150.743C185.846 150.423 186.033 150.226 186.353 150.218L202.635 149.793C202.955 149.784 203.152 149.971 203.16 150.291L203.274 154.642C203.282 154.961 203.095 155.158 202.776 155.167L201.528 155.199L201.677 160.893L203.404 160.848C203.724 160.84 203.921 161.027 203.929 161.347L204.044 165.729C204.052 166.049 203.865 166.246 203.545 166.254L201.818 166.3L202.141 178.647C202.149 178.967 201.962 179.164 201.642 179.173L197.132 179.29ZM180.335 173.519L181.583 173.487L181.366 165.201L180.119 165.234L180.335 173.519ZM193.583 161.105L196.143 161.038L195.994 155.344L193.435 155.411L193.583 161.105Z" fill="#FFA8A8"/>
<path d="M228.447 178.408C228.319 178.412 228.191 178.415 228.127 178.385C227.965 178.325 227.898 178.231 227.798 178.073L225.441 173.621C225.374 173.495 225.339 173.368 225.336 173.272C225.363 173.079 225.52 172.979 225.808 172.939C229.637 172.487 232.613 171.225 233.486 169.121L227.824 169.269C227.504 169.278 227.308 169.091 227.299 168.771L227.19 164.58C227.181 164.26 227.368 164.064 227.688 164.055L234.022 163.89L234.007 162.097C232.743 162.707 231.377 163.127 229.878 163.326C229.75 163.329 229.654 163.332 229.557 163.302C229.427 163.241 229.361 163.147 229.261 162.99L227.215 159.426C227.181 159.363 227.147 159.268 227.145 159.204C227.171 158.947 227.519 158.81 228.157 158.729C231.827 158.281 233.909 157.106 234.725 155.26C234.785 155.131 234.817 155.098 234.911 155.031L231.328 155.125L231.384 157.268C231.393 157.588 231.206 157.785 230.886 157.794L226.375 157.911C226.055 157.92 225.858 157.733 225.85 157.413L225.681 150.951C225.673 150.631 225.86 150.434 226.18 150.426L236.64 150.153C236.436 149.678 236.235 149.331 236.033 148.984C235.967 148.89 235.932 148.795 235.93 148.699C235.925 148.507 236.017 148.344 236.272 148.306L241.859 147.744L242.019 147.739C242.243 147.734 242.404 147.793 242.506 148.015C242.812 148.679 243.017 149.186 243.326 149.978L253.914 149.701C254.234 149.693 254.431 149.88 254.439 150.2L254.602 156.406C254.61 156.726 254.423 156.923 254.103 156.931L249.593 157.049C249.273 157.057 249.076 156.87 249.067 156.55L249.018 154.663L245.979 154.742L246.037 156.95C246.045 157.269 246.181 157.554 246.727 157.636C247.273 157.718 248.65 157.714 249.673 157.687C250.537 157.664 251.56 157.606 252.582 157.515C252.678 157.512 252.742 157.511 252.839 157.54C253 157.6 253.101 157.789 253.107 158.013L253.203 161.692C253.211 162.012 253.024 162.177 252.705 162.217C251.524 162.376 250.087 162.478 249.159 162.502C247.911 162.535 246.888 162.561 245.446 162.535C241.796 162.47 240.703 161.09 240.645 158.883L240.541 154.884L235.583 155.014L239.319 155.909C239.577 155.966 239.676 156.091 239.713 156.282C239.715 156.346 239.685 156.443 239.656 156.54C238.936 158.384 237.318 160.154 235.238 161.425L239.557 161.312C239.876 161.304 240.073 161.491 240.082 161.811L240.1 163.731L248.481 163.512C248.833 163.503 248.966 163.691 248.975 164.043L249.165 171.305C249.178 171.817 249.309 171.909 249.599 171.998C249.728 172.026 249.888 172.022 249.984 172.02C250.08 172.017 250.144 172.015 250.335 171.978C250.94 171.867 251.148 171.253 251.135 167.092C251.127 166.772 251.25 166.577 251.474 166.571C251.538 166.569 251.57 166.568 251.7 166.629L255.742 168.188C256 168.277 256.134 168.498 256.141 168.786C256.079 176.182 254.789 177.048 250.826 177.311L249.132 177.388C248.46 177.405 247.948 177.419 247.499 177.398C245.13 177.364 243.278 176.324 243.205 173.541L243.083 168.871L239.532 168.964C238.323 174.149 234.338 177.198 228.447 178.408Z" fill="#FDE196"/>
<path d="M301.26 165.686C301.1 165.691 300.969 165.598 300.868 165.408C300.666 164.998 300.332 164.494 300 164.023C298.501 164.254 296.809 164.426 294.893 164.604L294.93 166.012L303.887 165.778C304.207 165.769 304.404 165.956 304.412 166.276L304.493 169.347C304.501 169.667 304.314 169.864 303.994 169.872L295.037 170.106L295.068 171.29L306.456 170.992C306.776 170.984 306.973 171.171 306.981 171.491L307.082 175.33C307.09 175.649 306.903 175.846 306.583 175.855L278.017 176.601C277.697 176.609 277.5 176.423 277.492 176.103L277.391 172.264C277.383 171.944 277.57 171.747 277.89 171.739L288.99 171.449L288.959 170.265L279.97 170.5C279.65 170.508 279.453 170.321 279.445 170.002L279.365 166.931C279.356 166.611 279.543 166.414 279.863 166.405L288.852 166.171L288.823 165.051C286.17 165.216 283.548 165.317 281.181 165.379C280.861 165.387 280.665 165.232 280.593 164.946L279.909 162.019C279.873 161.86 279.871 161.796 279.869 161.732C279.893 161.411 280.083 161.342 280.398 161.142C281.343 160.541 282.191 159.942 282.939 159.155L280.508 159.218C280.188 159.226 279.991 159.04 279.983 158.72L279.928 156.64L277.689 156.699C277.369 156.707 277.172 156.52 277.164 156.2L276.991 149.579C276.983 149.259 277.169 149.062 277.489 149.053L288.11 148.776C287.906 148.333 287.738 148.017 287.537 147.671C287.469 147.544 287.435 147.449 287.432 147.353C287.428 147.193 287.52 147.031 287.775 146.992L293.331 146.463L293.491 146.459C293.715 146.453 293.909 146.544 294.012 146.797C294.285 147.43 294.458 147.938 294.699 148.604L305.64 148.318C305.96 148.31 306.157 148.497 306.165 148.816L306.339 155.47C306.347 155.79 306.16 155.987 305.84 155.995L303.569 156.055L303.623 158.102C303.631 158.422 303.444 158.619 303.124 158.627L301.749 158.663C302.435 159.189 305.646 162.051 305.666 162.786C305.67 162.946 305.577 163.077 305.42 163.177L301.577 165.582C301.483 165.649 301.356 165.684 301.26 165.686ZM282.761 154.806L300.675 154.338L300.642 153.058L282.728 153.526L282.761 154.806ZM287.307 160.929C289.833 160.831 294.02 160.562 296.733 160.267C296.109 159.675 295.552 159.177 295.063 158.838L289.593 158.981C288.875 159.672 288.058 160.269 287.307 160.929Z" fill="#7EA8E8"/>
</g>
<path d="M334.479 169.476L333.895 175.677L339.663 178.027L338.561 183.373L344.329 185.724L289.281 219.094L289.864 212.893L284.615 211.398L285.199 205.197L279.431 202.846L334.479 169.476Z" fill="#B2D396" fill-opacity="0.47"/>
<g filter="url(#filter1_d_137_2)">
<rect x="160.289" y="17.8711" width="22" height="16" fill="white"/>
<rect x="160.289" y="17.8711" width="22" height="16" fill="white"/>
<rect x="160.289" y="17.8711" width="22" height="16" fill="white"/>
<rect x="160.289" y="17.8711" width="22" height="16" fill="white"/>
<rect x="160.289" y="17.8711" width="22" height="16" fill="white"/>
<rect x="179.289" y="97.8711" width="22" height="16" fill="white"/>
<rect x="179.289" y="97.8711" width="22" height="16" fill="white"/>
<rect x="179.289" y="97.8711" width="22" height="16" fill="white"/>
<rect x="179.289" y="97.8711" width="22" height="16" fill="white"/>
<rect x="179.289" y="97.8711" width="22" height="16" fill="white"/>
<path d="M82.6866 38.8243C84.2742 38.5459 85.7618 38.3584 86.9964 38.3257C87.6095 38.3095 88.2518 38.328 88.8559 38.4262C89.3425 38.5053 90.1717 38.6897 90.9199 39.2524L91.0688 39.3703C91.931 40.0908 92.6132 41.0926 93.1435 42.0098C93.7049 42.9806 94.2409 44.1154 94.744 45.307C95.7515 47.6935 96.7146 50.5227 97.5422 53.19C98.3735 55.8691 99.0865 58.4438 99.5911 60.3446C99.8437 61.2964 100.045 62.083 100.183 62.6328C100.252 62.9078 100.306 63.1243 100.343 63.2726C100.361 63.3467 100.376 63.4039 100.385 63.4431C100.39 63.4626 100.393 63.4778 100.395 63.4882C100.397 63.4935 100.398 63.4978 100.399 63.5007C100.399 63.5019 100.4 63.5027 100.4 63.5035L100.4 63.5055L100.449 63.7509C100.639 64.98 100.049 66.2121 98.9484 66.8278C97.3295 67.7334 96.5864 68.7201 96.2611 70.1377C95.8839 71.7822 96.0098 74.2893 97.0076 78.2913C97.0142 78.3093 97.0214 78.3289 97.0291 78.35C97.0793 78.4882 97.1533 78.6912 97.2468 78.9498C97.4337 79.4668 97.7006 80.2079 98.0212 81.1063C98.6621 82.9025 99.5192 85.3326 100.382 87.8605C101.243 90.3835 102.117 93.0271 102.789 95.2431C103.124 96.349 103.417 97.3747 103.634 98.2394C103.832 99.03 104.025 99.9123 104.06 100.619C105.059 120.985 96.6763 134.211 83.3439 138.66C74.4544 141.627 66.24 141.831 59.1103 139.091C51.9645 136.344 46.2912 130.786 42.23 122.958C39.5984 117.885 39.5223 112.916 41.0598 108.543C42.5665 104.259 45.5613 100.695 48.8789 98.089C54.0009 94.0646 59.6379 94.6825 62.3451 94.9C61.6583 89.5228 59.4732 80.5824 57.4001 72.0289C56.2854 67.4297 55.2181 62.9894 54.5059 59.4788C54.1507 57.7277 53.8703 56.1443 53.7196 54.8557C53.6444 54.2131 53.5949 53.5882 53.593 53.0224C53.5914 52.5236 53.6209 51.7933 53.8648 51.0882C54.1598 50.2357 54.6866 49.5787 55.1367 49.117C55.6085 48.6331 56.1598 48.1991 56.7213 47.8128C57.8432 47.0408 59.2548 46.2905 60.785 45.5829C63.8624 44.1599 67.7694 42.7498 71.6482 41.5646C75.5306 40.3782 79.4888 39.3852 82.6866 38.8243Z" fill="#252525" stroke="white" stroke-width="6" stroke-linejoin="round"/>
<path d="M109.608 57.0778C109.991 57.0137 110.444 56.9651 110.919 56.9877C111.361 57.0088 112.067 57.1019 112.77 57.5218L112.771 57.5217C113.934 58.2167 114.944 59.3857 115.765 60.499C116.643 61.6892 117.543 63.149 118.43 64.7458C120.207 67.9458 122.047 71.9057 123.674 75.8402C125.302 79.777 126.747 83.7619 127.721 87.0283C128.206 88.6555 128.591 90.1615 128.817 91.4219C128.93 92.0504 129.014 92.6721 129.041 93.2486C129.066 93.7684 129.06 94.503 128.835 95.2283C127.222 100.417 122.368 103.843 118.059 105.807C115.821 106.827 113.525 107.551 111.481 107.966C109.53 108.362 107.489 108.543 105.891 108.21C105.087 108.042 104.535 107.615 104.261 107.375C103.954 107.104 103.71 106.81 103.529 106.568C103.165 106.082 102.826 105.494 102.515 104.898C101.884 103.687 101.166 102.039 100.39 100.107C99.2198 97.1926 97.8477 93.4548 96.3477 89.2205L94.8083 84.8331C93.3654 80.6897 92.4513 77.176 92.1065 74.2776C91.7706 71.4536 91.9205 68.7862 93.0894 66.6798C93.52 65.9042 94.1925 65.256 94.7111 64.8029C95.2957 64.2921 95.9957 63.767 96.7397 63.254C98.2327 62.2248 100.067 61.1339 101.892 60.1688C103.709 59.2078 105.605 58.3251 107.219 57.7435C108.016 57.4566 108.843 57.2061 109.608 57.0778Z" fill="#252525" stroke="white" stroke-width="6" stroke-linejoin="round"/>
<path d="M42.5438 63.6288C43.7289 63.5309 44.7907 63.9846 45.3731 64.2643C46.1403 64.6328 46.9404 65.1417 47.7097 65.6898C49.2611 66.7953 50.995 68.2829 52.6041 69.7988C54.22 71.321 55.7803 72.9381 56.9813 74.3371C57.5786 75.0328 58.1217 75.7143 58.5452 76.329C58.7565 76.6355 58.9643 76.9639 59.1394 77.2962C59.2937 77.5889 59.5206 78.0643 59.6263 78.631L59.6661 78.9176C59.729 79.5691 59.5856 80.0979 59.5071 80.3501C59.3982 80.7001 59.2517 81.0113 59.1247 81.2539C58.8685 81.7434 58.5265 82.2613 58.1684 82.7615C57.4406 83.7782 56.4207 85.033 55.2475 86.4014C52.8879 89.1538 49.7268 92.5788 46.5842 95.9004C43.4346 99.2295 40.2744 102.486 37.9041 104.906C36.7185 106.117 35.7293 107.121 35.0359 107.822C34.6892 108.173 34.4158 108.447 34.2295 108.635C34.1366 108.728 34.0642 108.799 34.0158 108.848C33.1711 109.802 32.0687 110.289 31.1981 110.535C30.2408 110.806 29.2166 110.887 28.2786 110.802C27.4588 110.728 26.3149 110.489 25.3503 109.767C24.0275 109.879 22.7142 109.591 21.5787 108.778C20.8809 108.278 20.3543 107.651 19.9911 106.955C19.1564 106.846 18.3354 106.561 17.5866 106.068C16.5563 105.389 15.8502 104.45 15.456 103.369C14.168 103.113 12.9589 102.455 12.0598 101.344C10.0993 98.921 10.5873 95.7009 12.4638 92.9943L12.6071 92.8046L17.155 87.2421C17.0853 87.0689 17.0179 86.8871 16.9573 86.6962C16.3657 84.8326 16.3785 82.3264 18.2371 79.8455C20.553 76.7542 24.0745 77.3881 25.782 77.9635C26.1161 78.0762 26.4343 78.2021 26.7315 78.3317C26.8924 78.1498 27.0625 77.9561 27.2421 77.7538C28.5187 76.3157 30.248 74.3899 32.0499 72.4504C33.8443 70.5189 35.7422 68.5388 37.3493 67.0076C38.1476 66.2471 38.921 65.5525 39.6009 65.0199C39.9386 64.7554 40.3037 64.4913 40.6718 64.2723C40.9671 64.0967 41.5638 63.7631 42.3049 63.6552L42.5438 63.6288Z" fill="#252525" stroke="white" stroke-width="6" stroke-linejoin="round"/>
<path d="M178.814 26.1547C179.492 26.0882 179.996 25.4685 179.992 24.7392L179.984 24.5928C179.911 23.8511 179.336 23.2901 178.668 23.2812L178.533 23.2866C177.81 23.3574 177.286 24.0581 177.363 24.8494L177.385 24.9945C177.513 25.6629 178.056 26.1517 178.679 26.16L178.814 26.1547ZM178.533 23.2866L178.814 26.1547M178.533 23.2866L178.814 26.1547M155.083 15.1918L186.32 15.0657C187.871 15.0596 189.171 16.2386 189.318 17.7835C189.871 23.6297 189.336 29.5065 186.555 34.2915C183.686 39.2276 178.699 42.5392 171.387 43.6582C165.064 44.6256 159.662 41.9021 156.206 36.9956C152.821 32.1899 151.336 25.4007 152.111 17.8838L152.153 17.603C152.429 16.2189 153.646 15.1977 155.083 15.1918ZM172.729 28.2009C172.007 28.2717 171.521 29.0627 171.582 29.6898C171.643 30.3092 172.263 30.7565 172.973 30.6997L173.001 30.6989C173.677 30.6327 174.146 30.1325 174.192 29.551L174.197 29.4338C174.179 28.4827 173.468 28.1395 172.756 28.1992L172.729 28.2009Z" fill="#FDAE96" stroke="white" stroke-width="6" stroke-linejoin="round"/>
<path d="M204.414 14.6566C206.7 14.0517 209.12 15.0903 210.248 17.1909L210.248 17.1918L216.858 29.4968L216.858 29.4978C217.555 30.7956 217.649 32.3345 217.115 33.7086L217.115 33.7096C216.582 35.0816 215.474 36.153 214.082 36.6403C203.816 40.2349 161.579 55.0257 152.049 58.3628C151.642 67.6333 149.954 106.031 149.436 117.816C149.297 120.964 147.453 123.777 144.642 125.165L144.367 125.295C138.917 127.753 127.846 132.747 122.916 134.97L122.915 134.97C121.535 135.593 119.963 135.639 118.548 135.098C117.133 134.557 115.993 133.473 115.381 132.088L112.429 125.411C111.348 122.966 112.271 120.099 114.575 118.745L121.371 114.751L121.372 114.75C121.696 114.559 121.918 114.232 121.974 113.858C123.698 102.382 132.274 45.2781 133.519 36.99L133.52 36.9899C133.777 35.2762 134.959 33.8439 136.592 33.2655L151.854 27.8626L152.043 27.8009C154.004 27.2119 156.113 28.1797 156.935 30.0752L157.208 30.6785C158.606 33.6487 160.492 35.9074 162.791 37.3399C165.209 38.8465 168.313 39.5852 172.29 39.0246C176.735 38.3979 179.765 36.3795 181.832 33.6814C183.952 30.9158 185.17 27.2811 185.599 23.3747C185.792 21.5905 187.023 20.0863 188.74 19.5493L204.193 14.7204L204.414 14.6566Z" fill="#252525" stroke="white" stroke-width="6" stroke-linejoin="round"/>
<path d="M169.268 47.1165C172.765 46.6208 175.907 47.3183 178.124 49.711C180.181 51.9322 180.912 55.0767 181.066 58.254C181.206 61.1614 180.202 64.0713 178.675 66.7756C177.135 69.5035 174.942 72.238 172.383 74.8717C167.584 79.8113 161.255 84.6438 154.774 88.681L153.476 89.4784C153.476 89.4784 153.454 89.4923 153.393 89.5326C153.321 89.5802 153.272 89.6125 153.167 89.6823C152.995 89.7969 152.746 89.9613 152.482 90.1144C152.253 90.2472 151.843 90.474 151.365 90.6221C151.13 90.6953 150.701 90.8069 150.174 90.7879C149.615 90.7678 148.734 90.5845 148.002 89.8358L148.003 89.8348C147.557 89.3788 147.366 88.897 147.303 88.7327C147.218 88.5085 147.169 88.3082 147.14 88.1766C147.082 87.9098 147.051 87.6437 147.031 87.4337C146.99 86.9982 146.969 86.4734 146.959 85.9375C146.939 84.8485 146.958 83.4717 146.993 82.1299C147.029 80.7797 147.081 79.4286 147.13 78.378C147.173 77.4593 147.224 76.4943 147.278 76.1489L147.279 76.1488C147.37 75.5696 147.602 75.1491 147.741 74.931C147.891 74.6938 148.047 74.5149 148.153 74.402C148.361 74.1801 148.572 74.0102 148.691 73.9165C148.824 73.813 148.953 73.7204 149.026 73.6679L149.105 73.6121C149.532 73.2764 149.907 72.9917 150.25 72.7345C149.818 72.3879 149.337 71.9574 148.933 71.4545C148.55 70.979 147.881 70.0101 147.887 68.7025C147.893 67.5734 148.364 66.5392 148.712 65.891C149.116 65.1393 149.644 64.3858 150.213 63.7109C150.779 63.0379 151.451 62.3661 152.174 61.8193C152.588 61.507 153.143 61.1388 153.801 60.8721C153.785 60.7968 153.774 60.7431 153.77 60.7161C153.714 60.3753 153.717 60.0748 153.724 59.8983C153.738 59.5236 153.794 59.133 153.848 58.8137C153.961 58.1464 154.143 57.3477 154.321 56.6254C154.502 55.8883 154.695 55.1678 154.84 54.6356C154.913 54.3683 154.975 54.1454 155.019 53.9891C155.041 53.911 155.059 53.8492 155.071 53.8064C155.077 53.7851 155.083 53.7685 155.086 53.7569C155.088 53.7511 155.089 53.746 155.089 53.7428C155.09 53.7413 155.09 53.7397 155.09 53.7388L155.091 53.7377L155.091 53.7368C155.351 52.8314 156.022 52.1013 156.902 51.7647L168.617 47.2842L168.776 47.2285C168.936 47.1772 169.101 47.1401 169.268 47.1165ZM160.832 63.0016C161.037 63.1655 161.237 63.3294 161.428 63.4898C161.591 63.3282 161.739 63.1667 161.868 63.0071C161.561 62.9879 161.215 62.9871 160.832 63.0016Z" fill="#252525" stroke="white" stroke-width="6" stroke-linejoin="round"/>
<path d="M188.188 41.1581C189.479 41.032 190.517 41.6277 191.155 42.3513C191.52 42.7661 192.28 43.4162 193.519 44.2765C194.716 45.1084 196.219 46.0405 197.946 47.0349C201.398 49.0222 205.621 51.1871 209.829 53.203C214.032 55.2171 218.178 57.0632 221.461 58.4163C223.106 59.094 224.51 59.6382 225.583 60.0154C226.804 60.4444 227.254 60.5296 227.205 60.5258L227.54 60.5656C229.168 60.8291 230.096 62.0156 230.533 62.859C230.992 63.7444 231.205 64.7516 231.32 65.6118C231.557 67.3828 231.506 69.5692 231.351 71.615C231.192 73.7009 230.909 75.8187 230.615 77.5293C230.468 78.3844 230.314 79.1621 230.165 79.7988C230.04 80.3341 229.858 81.0478 229.603 81.5828L229.602 81.5829C228.805 83.2505 227.115 83.5586 226.606 83.6356C225.854 83.7493 225.037 83.718 224.294 83.6461C222.767 83.4983 220.817 83.0988 218.674 82.5578C214.349 81.4659 208.784 79.6791 203.273 77.6733C197.76 75.6666 192.214 73.4079 187.931 71.3524C185.799 70.3293 183.906 69.3219 182.468 68.3892C181.754 67.9257 181.077 67.4322 180.521 66.9177C180.049 66.4809 179.297 65.7036 178.978 64.6187C178.805 64.0316 178.793 63.4548 178.798 63.0938C178.804 62.6761 178.843 62.2311 178.897 61.7918C179.006 60.9098 179.201 59.866 179.446 58.759C179.938 56.5359 180.677 53.8666 181.501 51.3575C182.315 48.8803 183.26 46.408 184.192 44.6522C184.622 43.8409 185.215 42.8571 185.987 42.1675C186.368 41.8274 187.118 41.2629 188.188 41.1581Z" fill="#252525" stroke="white" stroke-width="6" stroke-linejoin="round"/>
<path d="M201.001 38.0905C203.509 37.1522 206.066 36.8962 208.45 37.7566L208.924 37.9436L208.943 37.9516C210.401 38.5883 211.309 40.0662 211.218 41.6548C211.216 41.6947 211.212 41.7346 211.208 41.7745C210.94 44.5109 209.326 47.2458 207.26 49.8088L207.261 49.8097C206.538 50.7081 205.453 51.2384 204.3 51.2575L204.3 51.2565C203.585 51.2686 202.061 51.2941 200.904 51.3095L200.904 51.3105C200.902 51.3105 200.901 51.3099 200.9 51.3099C200.897 51.3099 200.895 51.3105 200.893 51.3105L200.893 51.3096C199.634 51.3277 198.43 50.7864 197.611 49.8275L197.462 49.6438C196.747 48.7064 196.453 47.5101 196.657 46.3433L196.673 46.2573C197.015 44.5917 197.619 42.6935 198.511 40.5099L198.512 40.5107C198.967 39.3944 199.867 38.5167 200.999 38.0918L201.001 38.0905Z" fill="#252525" stroke="white" stroke-width="6" stroke-linejoin="round"/>
<path d="M215.976 37.1203C217.272 35.6879 219.233 35.0745 221.099 35.4921L221.471 35.5902L221.489 35.5953C224.74 36.5958 227.639 38.0379 230.278 39.7623L230.803 40.1113L230.817 40.1207C231.79 40.7868 232.42 41.8496 232.535 43.0247L232.535 43.0277C232.649 44.1992 232.239 45.363 231.413 46.2059C229.309 48.3535 223.712 54.0668 221.522 56.296L221.521 56.2952C220.205 57.6362 218.271 58.1698 216.453 57.6922L216.442 57.6894C213.011 56.7728 209.855 55.4168 207.061 53.5331C207.053 53.5276 207.045 53.5215 207.037 53.5159C206.118 52.8834 205.517 51.8858 205.388 50.7768C205.259 49.6683 205.615 48.5588 206.362 47.7328L215.976 37.1212L215.976 37.1203Z" fill="#252525" stroke="white" stroke-width="6" stroke-linejoin="round"/>
<path d="M172.001 69.2797C176.462 68.1438 180.082 68.6463 182.905 70.2813C185.652 71.873 187.254 74.3137 188.184 76.3445C190.246 80.8481 189.617 85.3225 187.241 89.1085C185.751 91.4817 183.597 93.5617 181.035 95.3102C181.877 96.1963 182.586 97.1982 183.15 98.2441C184.63 100.99 185.315 104.381 184.709 107.641C184.264 110.03 182.902 112.401 181.216 114.541C179.495 116.727 177.258 118.895 174.753 120.886C169.769 124.847 163.428 128.34 157.365 129.873C156.339 130.132 155.393 129.958 154.722 129.748C154.026 129.529 153.38 129.193 152.819 128.844C151.696 128.144 150.589 127.184 149.641 126.21C148.687 125.231 147.788 124.13 147.119 123.079C146.787 122.556 146.471 121.981 146.24 121.393C146.036 120.874 145.764 120.016 145.879 119.048L145.88 119.047C146.013 117.93 146.595 116.843 147.707 116.194C148.598 115.674 149.502 115.644 149.895 115.642C150.106 115.641 150.3 115.651 150.443 115.66C152.409 114.58 154.252 113.126 155.967 111.554C155.601 111.605 155.24 111.649 154.887 111.684C151.947 111.97 148.383 111.714 146.191 108.522L145.984 108.204C145.288 107.084 145.258 105.892 145.383 105.013C145.507 104.133 145.822 103.287 146.165 102.548C146.853 101.066 147.932 99.4387 149.078 97.8687C150.243 96.2721 151.586 94.5869 152.874 92.9814C153.234 92.532 153.587 92.088 153.935 91.6538C153.709 91.4028 153.519 91.1111 153.384 90.7815L152.43 88.4444C151.881 87.0986 152.375 85.5527 153.604 84.7754C159.575 80.9974 165.827 75.927 170.416 70.2925L170.575 70.1121C170.962 69.7077 171.456 69.4186 172.001 69.2797Z" fill="#252525" stroke="white" stroke-width="6" stroke-linejoin="round"/>
<path d="M194.066 71.8937C195.127 71.6166 196.252 71.7948 197.172 72.3764L197.354 72.498L197.528 72.6301C198.379 73.3101 198.916 74.3153 199.001 75.4099L199.002 75.4215C199.084 76.5248 199.456 77.1925 199.881 77.6296C200.335 78.0967 201.019 78.4715 201.938 78.6626C203.753 79.0402 205.905 78.5822 207.33 77.5987L207.606 77.3952C208.714 76.5108 210.161 76.1675 211.549 76.4634L211.548 76.4635C213.802 76.937 219.871 78.2288 222.555 78.8003C223.805 79.0664 224.847 79.9179 225.359 81.0847L225.449 81.3056C225.861 82.4205 225.751 83.6668 225.143 84.6963L225.142 84.6973L219.638 94.0076C218.292 96.2828 215.644 97.4418 213.06 96.89L213.06 96.8909C203.633 94.9034 193.637 95.5597 184.003 97.0538C182.956 97.2161 181.901 96.8136 181.228 95.996C180.522 95.1388 179.877 93.9368 179.914 92.448C179.951 90.95 180.664 89.7204 181.54 88.7877L181.7 88.6297C181.867 88.4775 182.05 88.3443 182.246 88.2328C184 87.2368 185.315 84.9613 184.64 79.4058C184.532 78.5152 184.827 77.623 185.447 76.9738C187.766 74.5418 190.897 72.7841 194.012 71.9087L194.066 71.8937Z" fill="#252525" stroke="white" stroke-width="6" stroke-linejoin="round"/>
<path d="M187.608 92.8814C189.66 92.5645 192.208 92.3551 194.974 92.2435C200.166 92.034 206.342 92.1611 211.856 92.6519L212.949 92.7558L212.965 92.7571C214.547 92.9232 215.909 93.9391 216.521 95.4036L216.522 95.4055C216.955 96.4431 216.96 97.5884 216.575 98.6099L225.943 97.0332L226.46 96.961C228.876 96.6923 231.302 97.3836 233.214 98.8841L233.616 99.2176C235.714 101.064 236.869 103.757 236.761 106.55L236.761 106.551L236.342 117.27C236.235 120.004 234.203 122.263 231.522 122.677L231.261 122.711C219.827 123.943 208.184 124.865 196.812 123.586L195.743 128.128C194.874 131.815 191.701 134.505 187.921 134.759L178.914 135.365C177.411 135.466 175.963 134.788 175.077 133.572L175.077 133.571C174.191 132.354 173.991 130.768 174.549 129.369L174.55 129.369C179.877 115.968 181.766 104.454 181.207 97.2252C181.13 96.2289 181.555 95.2592 182.339 94.6397C183.104 94.0351 184.054 93.6927 184.802 93.4741C185.628 93.2328 186.586 93.0394 187.608 92.8814ZM193.835 103.454C193.473 103.462 193.238 103.515 193.098 103.559C193.037 103.989 193.017 104.331 193.027 104.595C193.03 104.688 193.037 104.764 193.045 104.825C193.053 104.826 193.062 104.829 193.071 104.83C193.069 104.829 193.267 104.83 193.531 104.588C193.762 104.375 193.922 104.074 193.954 103.731C193.951 103.716 193.948 103.696 193.94 103.671C193.914 103.584 193.872 103.505 193.835 103.454Z" fill="#252525" stroke="white" stroke-width="6" stroke-linejoin="round"/>
<path d="M245.737 25.3062C247.314 24.6479 249.095 24.7293 250.598 25.5141L250.895 25.6803L251.181 25.8642C252.577 26.8189 253.486 28.3468 253.65 30.0429L253.7 30.5884C253.812 31.8989 253.861 33.2397 253.797 34.6589C255.379 34.1484 257.26 33.5414 259.25 32.8994C264.633 31.1619 270.805 29.1696 273.961 28.151L273.962 28.1509C275.202 27.7511 276.542 27.8337 277.719 28.3747L277.952 28.4892L278.18 28.6151C279.299 29.2726 280.13 30.3266 280.51 31.567L280.509 31.5671C282.095 36.7064 283.742 42.53 282.29 48.4967L282.139 49.0756C280.644 54.4666 275.704 57.2652 270.589 59.0083C266.088 60.5424 260.569 61.5445 255.14 62.5358C255.157 63.082 255.176 63.6752 255.193 64.2742L255.194 64.2751C255.353 68.8741 252.402 73.0035 248.003 74.3462C244.188 75.536 240.328 75.7643 236.47 74.9633C232.957 74.234 230.695 70.8 231.412 67.2841C233.425 57.0852 234.143 46.2449 233.38 34.6723C233.216 32.2164 234.633 29.9277 236.905 28.9794C239.137 28.0477 242.967 26.4498 245.737 25.3062Z" fill="#252525" stroke="white" stroke-width="6" stroke-linejoin="round"/>
<path d="M265.738 22.5086C268.14 22.1537 270.388 23.7021 270.947 26.0273L270.996 26.2551L270.998 26.2677C271.219 27.4606 271.528 29.1086 271.686 29.9722L271.685 29.9723C271.974 31.5296 271.427 33.1162 270.258 34.1655C270.247 34.1749 270.237 34.184 270.226 34.1932C269.446 34.874 268.464 35.4 267.533 35.8179C266.565 36.2523 265.458 36.6537 264.299 37.0284C261.987 37.7763 259.249 38.4862 256.603 39.1618L256.602 39.1609C255.4 39.4676 254.133 39.2107 253.149 38.4727C252.16 37.7309 251.557 36.5767 251.523 35.332C251.47 33.5756 251.378 30.5133 251.322 28.7283L251.322 28.7254C251.252 26.4049 252.929 24.3959 255.23 24.0566L265.738 22.5095L265.738 22.5086Z" fill="#252525" stroke="white" stroke-width="6" stroke-linejoin="round"/>
<path d="M266.179 55.3108C268.029 54.6908 270.068 55.0647 271.578 56.3059L271.579 56.3058C272.531 57.0892 273.184 58.1466 273.475 59.3052C275.141 59.1719 276.815 59.6223 278.197 60.6021C279.766 61.7142 280.822 63.4075 281.132 65.2983L281.184 65.6789L281.186 65.6915L281.419 67.8441L281.42 67.8489C281.792 71.2906 280.439 74.6953 277.801 76.9392L277.799 76.9404C276.907 77.6978 275.983 78.4837 275.282 79.0797C275.214 79.1371 275.148 79.1924 275.085 79.2461C274.667 88.0369 275.464 97.1095 276.821 106.393L276.854 106.65C277.15 109.311 275.901 111.916 273.628 113.349C273.62 113.354 273.612 113.36 273.605 113.364C269.526 115.885 264.672 117.024 259.122 116.847L259.122 116.848C259.12 116.848 259.117 116.848 259.115 116.848C259.11 116.848 259.105 116.848 259.1 116.847L259.099 116.846C255.007 116.732 251.715 113.442 251.602 109.347C251.453 104.013 251.402 98.4516 251.56 92.3955C248.147 94.8793 244.094 96.8253 239.755 98.4253L239.754 98.4245C238.151 99.0164 236.378 98.9383 234.834 98.2086C233.289 97.478 232.104 96.1566 231.544 94.542L231.545 94.541C230.17 90.6001 229.281 86.226 229.381 81.0736L229.381 81.0696C229.42 79.1726 230.468 77.441 232.128 76.5253L232.136 76.5207C238.484 73.0426 245.153 70.3932 251.917 68.1554C251.88 66.9114 251.833 65.3547 251.793 64.0346L251.793 64.0336C251.702 60.9864 253.804 58.3102 256.787 57.6778L256.794 57.6761C260.465 56.9071 263.625 56.1185 266.178 55.3088L266.179 55.3108Z" fill="#252525" stroke="white" stroke-width="6" stroke-linejoin="round"/>
<path d="M295.412 64.5144C297.009 64.3404 298.79 64.4013 300.339 64.9387C301.889 65.4769 303.837 66.7816 304.091 69.3282C304.181 70.2308 304.044 71.2308 303.877 72.0927C303.697 73.0189 303.423 74.0625 303.094 75.1553C302.433 77.3451 301.497 79.8945 300.461 82.3966C299.424 84.9007 298.264 87.4116 297.146 89.5211C296.087 91.52 294.894 93.4921 293.744 94.6309C292.287 96.073 290.312 96.3534 288.859 96.3182C287.311 96.2807 285.706 95.88 284.308 95.291C282.937 94.7128 281.5 93.8413 280.469 92.6605C279.427 91.466 278.439 89.4447 279.416 87.1804L279.417 87.1783C280.406 84.8937 281.76 81.579 283.112 78.2729C284.453 74.9928 285.793 71.714 286.725 69.5688C287.523 67.732 289.159 66.5722 290.575 65.8771C292.066 65.1448 293.783 64.692 295.412 64.5144Z" fill="#7EA8E8" stroke="white" stroke-width="6" stroke-linejoin="round"/>
<path d="M308.668 49.2264C310.133 48.8843 311.91 48.7357 313.566 48.7143C315.231 48.6929 316.964 48.7986 318.367 49.0458C319.048 49.1658 319.805 49.3441 320.473 49.6344C320.804 49.7784 321.248 50.0079 321.667 50.3731C322.059 50.714 322.604 51.3321 322.805 52.2604L322.84 52.4512L322.841 52.4551C323.4 56.0266 323.699 63.3409 323.46 70.6023C323.34 74.2607 323.081 77.9843 322.634 81.2913C322.195 84.531 321.544 87.6191 320.536 89.8588L320.537 89.8597C319.462 92.2483 316.949 93.7816 314.847 94.7393C312.562 95.7803 309.897 96.5233 307.492 96.9402C305.187 97.3397 302.697 97.5148 300.893 97.1105C300.413 97.0028 299.834 96.8227 299.28 96.4963C298.723 96.1681 298.013 95.5829 297.625 94.6124C296.878 92.7395 297.866 91.1933 298.527 90.4187C298.595 90.2465 298.69 89.965 298.807 89.5504C299.045 88.6994 299.312 87.51 299.598 86.0297C300.167 83.0815 300.771 79.2036 301.363 75.0564C301.954 70.9182 302.527 66.5534 303.034 62.642C303.54 58.7453 303.984 55.2735 304.313 52.9665L304.313 52.9655C304.55 51.3054 305.777 50.4255 306.413 50.0605C307.136 49.646 307.953 49.3932 308.668 49.2264Z" fill="#B2D396" stroke="white" stroke-width="6" stroke-linejoin="round"/>
<path d="M288.305 20.5626C290.632 20.2284 292.997 20.8805 294.823 22.3666L295.157 22.6537C295.882 23.308 296.479 24.0785 296.933 24.9251C297.158 24.8646 297.394 24.8014 297.641 24.735C299.795 24.1561 302.76 23.3577 306.011 22.4838C312.512 20.7361 320.152 18.6835 324.709 17.4598L324.709 17.4588C328.33 16.4852 332.128 18.103 333.949 21.3434L334.118 21.6623L334.123 21.6707C348.105 49.5555 353.598 73.4302 351.272 95.6827C351.272 95.6905 351.271 95.6986 351.27 95.7065C351.069 97.4941 350.432 99.8104 349.567 101.96C348.719 104.064 347.493 106.409 345.911 107.992C343.713 110.19 340.488 112.076 335.325 113.816C330.167 115.555 322.88 117.21 312.371 118.832C308.786 119.386 305.194 117.891 303.06 114.96C301.815 113.248 300.203 111.036 298.633 108.879L298.632 108.877C296.832 106.399 296.613 103.104 298.078 100.409L298.079 100.406C299.547 97.7143 302.432 96.1044 305.494 96.2732C305.503 96.2737 305.513 96.2746 305.523 96.2753C311.057 96.6338 315.926 96.6668 319.709 95.4316C321.538 94.8345 323.029 93.9638 324.204 92.7444C325.374 91.5297 326.362 89.8329 326.988 87.385L327.033 87.1912C327.246 86.1694 327.303 84.3241 327.061 81.6573C326.811 78.9063 326.273 75.5611 325.478 71.8871C323.981 64.9668 321.613 57.0493 318.705 49.9829C313.378 51.5278 307.349 53.1963 298.796 55.3159C298.872 59.939 298.105 63.8321 295.734 66.7027C292.89 70.1468 288.417 71.3222 283.164 71.5829L283.164 71.5839C283.161 71.5841 283.157 71.5837 283.154 71.5839C283.152 71.584 283.149 71.5845 283.146 71.5847L283.146 71.5837C281.747 71.656 280.38 71.1454 279.372 70.1713L279.373 70.1703C278.363 69.1941 277.803 67.8412 277.832 66.4336L277.831 66.4337L278.612 26.5613L278.612 26.5563C278.669 23.9005 280.635 21.6648 283.274 21.2849L283.275 21.2848L288.305 20.5626Z" fill="#252525" stroke="white" stroke-width="6" stroke-linejoin="round"/>
</g>
<path fill-rule="evenodd" clip-rule="evenodd" d="M63.0753 97.9511C63.1271 97.9599 63.1798 97.9642 63.2342 97.964C70.5065 97.938 76.4855 105.247 77.6622 112.475C77.745 112.983 78.2246 113.329 78.7329 113.246C79.2408 113.164 79.5865 112.684 79.5037 112.176C78.3131 104.861 72.6054 97.5936 65.5046 96.3012C65.5027 96.2354 65.4989 96.1669 65.4931 96.0961C64.6018 85.2891 55.5082 55.5156 56.7002 52.0694C58.2065 47.7138 86.5787 39.5276 89.1452 41.6721C92.7779 44.7075 97.4837 64.2093 97.4837 64.2093C93.0169 66.708 92.0101 70.7466 94.1336 79.1657C94.1336 79.1657 100.915 97.7365 101.064 100.766C102.018 120.223 94.0802 131.915 82.3942 135.815C65.5783 141.426 52.4895 136.219 44.8934 121.576C40.416 112.945 44.7474 105.15 50.7328 100.448C55.3698 96.8047 60.2468 97.8696 63.0753 97.9511Z" fill="#252525"/>
<path fill-rule="evenodd" clip-rule="evenodd" d="M111.232 60.0971C109.437 59.0248 97.0347 65.7532 95.7124 68.1359C94.2844 70.7091 94.8247 75.7586 97.6412 83.8465C101.847 95.9232 105.234 105.008 106.504 105.273C110.495 106.106 123.518 102.231 125.97 94.3378C127.092 90.7278 116.244 63.0908 111.232 60.0971Z" fill="#D2BDFC"/>
<path fill-rule="evenodd" clip-rule="evenodd" d="M42.7374 66.6242C45.364 66.2415 56.2908 77.1093 56.677 79.1812C57.0972 81.4349 31.817 106.807 31.817 106.807C30.5187 108.393 26.0571 108.095 26.8514 106.249C23.8846 107.767 21.8735 105.859 22.4795 103.583C20.2395 104.747 17.5073 103.491 18.1806 100.207C15.2951 101.388 12.0478 98.8594 14.9292 94.7033L20.7968 87.5284C20.7968 87.5284 18.2369 84.8495 20.6384 81.6442C22.7903 78.7719 27.3951 82.1225 27.3951 82.1225C27.3951 82.1225 40.554 66.9422 42.7374 66.6242ZM22.2716 97.5381C25.4489 100.614 28.2864 101.045 31.6145 100.064C32.1083 99.9181 32.3912 99.3992 32.2457 98.9052C32.1002 98.4114 31.5809 98.1285 31.0871 98.274C28.4052 99.0648 26.1296 98.676 23.5692 96.1976C23.1993 95.8395 22.6083 95.8492 22.2501 96.2191C21.8922 96.5889 21.9018 97.18 22.2716 97.5381Z" fill="#252525"/>
<path fill-rule="evenodd" clip-rule="evenodd" d="M155.095 18.1921L186.331 18.0661C187.382 29.1576 184.092 38.6793 170.933 40.6928C160.762 42.2494 153.653 32.1716 155.095 18.1921ZM178.533 23.287C177.81 23.3578 177.286 24.0578 177.363 24.8491C177.441 25.6404 178.091 26.2251 178.814 26.1543C179.537 26.0834 180.062 25.3837 179.984 24.5924C179.907 23.8011 179.256 23.2161 178.533 23.287ZM172.729 28.2008C172.008 28.2715 171.521 29.0628 171.582 29.6901C171.644 30.3173 172.279 30.7692 173.001 30.6986C173.722 30.6279 174.208 30.0642 174.196 29.4341C174.179 28.4708 173.45 28.1302 172.729 28.2008Z" fill="#FDAE96"/>
<path fill-rule="evenodd" clip-rule="evenodd" d="M136.486 37.4355C136.579 36.8178 137.005 36.3016 137.593 36.0931C140.603 35.0277 149.857 31.7519 152.855 30.6907C153.382 30.5043 153.963 30.7586 154.183 31.2719C157.392 38.6494 163.522 43.2901 172.709 41.9949C183.166 40.5206 187.641 32.2654 188.581 23.7016C188.644 23.1 189.058 22.5931 189.636 22.4128C192.56 21.4974 201.371 18.7446 205.088 17.5835C206.065 17.2781 207.121 17.7093 207.606 18.6109C209.153 21.4919 212.468 27.6645 214.215 30.9166C214.497 31.4423 214.535 32.0656 214.319 32.6219C214.103 33.1782 213.654 33.6122 213.091 33.8093C202.414 37.5479 157.148 53.3994 150.073 55.8769C149.511 56.074 149.125 56.5937 149.098 57.1892C148.794 64.1026 146.979 105.385 146.439 117.684C146.345 119.802 145.067 121.689 143.134 122.561C137.684 125.019 126.612 130.012 121.682 132.236C121.03 132.53 120.288 132.552 119.62 132.296C118.952 132.041 118.414 131.529 118.124 130.875C117.229 128.85 115.982 126.029 115.172 124.198C114.707 123.146 115.104 121.914 116.095 121.331C117.987 120.219 120.995 118.451 122.891 117.337C123.997 116.687 124.75 115.573 124.94 114.304C126.664 102.83 135.241 45.7233 136.486 37.4355Z" fill="#252525"/>
<path fill-rule="evenodd" clip-rule="evenodd" d="M169.689 50.0865L157.974 54.5663C157.974 54.5663 156.4 60.0415 156.779 60.3474C156.996 60.5227 157.656 60.3079 158.004 60.2599C161.373 59.7946 164.593 59.7501 165.171 61.6354C165.81 63.7191 163.536 65.8471 161.776 67.0821C161.498 67.2749 161.122 67.2462 160.877 67.0128C159.787 65.9875 156.822 63.3404 155.422 63.5162C153.688 63.7343 150.895 67.2364 150.887 68.718C150.882 69.7876 153.224 71.2348 154.528 71.9572C154.725 72.0659 154.857 72.2632 154.882 72.4869C154.908 72.7106 154.823 72.9328 154.656 73.0829C153.456 74.1473 152.271 74.9393 150.959 75.971C150.768 76.1212 150.271 76.4287 150.242 76.6128C150.156 77.1652 149.693 87.274 150.147 87.7382C150.408 88.0046 151.506 87.1637 151.924 86.9111C165.472 78.7165 178.481 66.9309 178.069 58.3985C177.787 52.5643 175.42 49.274 169.689 50.0865Z" fill="#252525"/>
<path fill-rule="evenodd" clip-rule="evenodd" d="M188.904 44.3342C186.859 42.013 181.159 61.3995 181.856 63.7719C183.149 68.1683 225.399 83.4227 226.895 80.2901C227.666 78.6758 230.003 63.7538 226.971 63.5164C223.673 63.2578 193.789 49.8803 188.904 44.3342Z" fill="#252525"/>
<path fill-rule="evenodd" clip-rule="evenodd" d="M202.053 40.9C201.705 41.0305 201.428 41.3003 201.288 41.644C200.444 43.7128 199.906 45.4278 199.612 46.8599C199.549 47.2238 199.651 47.597 199.891 47.8776C200.131 48.1583 200.484 48.3172 200.853 48.3109C202.005 48.2956 203.532 48.2696 204.251 48.2575C204.513 48.2531 204.76 48.1325 204.925 47.9284C206.891 45.4886 208.042 43.3229 208.222 41.4825C208.241 41.1474 208.05 40.8356 207.742 40.7013C206.146 40.0174 204.253 40.0769 202.053 40.9Z" fill="#252525"/>
<path fill-rule="evenodd" clip-rule="evenodd" d="M220.607 38.4628C219.743 38.2032 218.806 38.4639 218.201 39.1328C215.959 41.6005 210.481 47.6537 208.587 49.7462C208.418 49.9319 208.338 50.1813 208.367 50.4302C208.396 50.6792 208.531 50.9032 208.738 51.0455C211.214 52.7151 214.055 53.9464 217.216 54.791C217.993 54.9952 218.82 54.7669 219.382 54.1932C221.57 51.9658 227.166 46.2556 229.271 44.1072C229.476 43.8982 229.578 43.6089 229.549 43.3174C229.521 43.0258 229.365 42.762 229.123 42.5965C226.553 40.8595 223.752 39.431 220.607 38.4628Z" fill="#252525"/>
<path fill-rule="evenodd" clip-rule="evenodd" d="M172.742 72.1866C167.895 78.1382 161.37 83.4113 155.208 87.3104L156.162 89.6477L161.594 87.8736C161.569 89.0991 160.238 90.1922 158.86 90.2265C154.562 95.9672 146.978 104.117 148.532 106.621C150.959 110.529 156.859 108.19 164.789 106.805C161.679 110.026 156.924 115.735 151.287 118.609C150.702 118.907 149.009 118.135 148.858 119.401C148.632 121.307 154.31 127.551 156.63 126.964C167.747 124.154 180.487 113.927 181.76 107.092C182.694 102.069 179.659 96.2955 175.248 95.1528C183.651 91.2247 188.648 84.5628 185.456 77.5934C183.896 74.1865 180.442 70.2258 172.742 72.1866Z" fill="#252525"/>
<path fill-rule="evenodd" clip-rule="evenodd" d="M187.617 79.0443C189.528 77.041 192.172 75.5417 194.823 74.7966C195.096 74.7256 195.385 74.7789 195.614 74.942C195.843 75.105 195.988 75.3614 196.01 75.6417C196.527 82.6529 205.184 83.1514 209.472 79.7434C209.88 79.4159 210.413 79.2888 210.924 79.3978C213.166 79.869 219.24 81.1621 221.93 81.7348C222.234 81.7995 222.488 82.0065 222.613 82.291C222.738 82.5752 222.718 82.9026 222.56 83.1699C221.303 85.2958 218.61 89.8506 217.055 92.4806C216.365 93.6481 215.004 94.2422 213.679 93.9555C203.731 91.8582 193.318 92.573 183.544 94.0889C182.71 93.077 182.634 92.0056 183.727 90.8419C187.09 88.9324 188.342 85.0039 187.617 79.0443Z" fill="#252525"/>
<path fill-rule="evenodd" clip-rule="evenodd" d="M184.199 96.994C186.582 95.1115 201.389 94.6194 212.652 95.7406C213.141 95.7919 213.564 96.1065 213.753 96.5607C213.943 97.015 213.87 97.5365 213.562 97.9208C212.65 99.0617 211.513 100.483 210.699 101.501C210.532 101.71 210.511 102 210.647 102.231C210.782 102.461 211.046 102.584 211.31 102.54L226.441 99.9917C228.306 99.6773 230.214 100.22 231.635 101.47C233.055 102.72 233.837 104.543 233.763 106.433L233.343 117.153C233.291 118.489 232.268 119.585 230.939 119.728C218.606 121.057 206.34 121.985 194.512 120.268L192.822 127.44C192.255 129.845 190.186 131.6 187.72 131.766L178.712 132.371C178.238 132.403 177.782 132.19 177.502 131.806C177.222 131.422 177.159 130.921 177.335 130.48C182.762 116.831 184.806 104.839 184.199 96.994ZM193.786 100.454C191.672 100.495 190.42 101.446 190.199 102.692C189.677 105.632 190.266 107.599 192.815 107.818C194.758 107.985 196.818 106.244 196.955 103.854C197.025 102.618 196.061 100.41 193.786 100.454Z" fill="#252525"/>
<path fill-rule="evenodd" clip-rule="evenodd" d="M238.06 31.7482C236.972 32.2024 236.294 33.2989 236.374 34.4752C237.154 46.3037 236.42 57.412 234.351 67.8833C233.965 69.78 235.185 71.6321 237.08 72.0255C240.416 72.7179 243.758 72.5283 247.11 71.4828C250.221 70.5418 252.308 67.6258 252.197 64.3781C252.132 62.1798 252.059 60.051 252.059 60.051C264.781 57.6819 277.108 55.9923 279.248 48.2742C280.694 43.0546 279.3 37.8184 277.641 32.4459C277.47 31.8866 277.083 31.4192 276.564 31.1485C276.045 30.8779 275.44 30.8265 274.883 31.0062C268.57 33.0435 250.193 38.9749 250.193 38.9749C250.935 35.6968 250.928 33.0113 250.664 30.3372C250.583 29.4729 250.095 28.6993 249.351 28.2527C248.607 27.8061 247.694 27.7395 246.893 28.074C244.129 29.2153 240.298 30.8144 238.06 31.7482Z" fill="#252525"/>
<path fill-rule="evenodd" clip-rule="evenodd" d="M254.32 28.6346C254.296 27.8339 254.874 27.142 255.668 27.025C258.195 26.6526 263.518 25.8679 266.176 25.4761C267.057 25.3461 267.883 25.9363 268.048 26.8117C268.272 28.0271 268.576 29.6449 268.735 30.5129C268.835 31.0377 268.651 31.5758 268.254 31.9325C266.45 33.5057 261.181 34.8965 255.86 36.2549C255.544 36.3359 255.21 36.2687 254.949 36.073C254.688 35.8772 254.531 35.5737 254.521 35.248C254.469 33.4918 254.376 30.4232 254.32 28.6346Z" fill="#252525"/>
<path fill-rule="evenodd" clip-rule="evenodd" d="M254.792 63.9438C254.744 62.3468 255.845 60.9442 257.409 60.6127C261.134 59.8323 264.4 59.0197 267.085 58.1684C267.967 57.855 268.949 58.0274 269.673 58.6228C270.397 59.2185 270.755 60.1495 270.618 61.0764C270.464 62.1738 270.335 63.0376 270.335 63.0376C270.335 63.0376 271.609 62.7396 273.094 62.3916C274.26 62.1187 275.487 62.3585 276.462 63.0499C277.437 63.7413 278.072 64.8177 278.202 66.0069C278.279 66.7295 278.36 67.4689 278.437 68.172C278.703 70.6274 277.738 73.0551 275.857 74.6543C274.074 76.1692 272.159 77.7957 272.159 77.7957C271.579 87.2717 272.415 96.9993 273.853 106.834C274.087 108.405 273.369 109.965 272.027 110.812C268.534 112.971 264.28 114.014 259.197 113.849C256.69 113.786 254.67 111.772 254.602 109.264C254.394 101.874 254.378 94.0621 254.85 85.0963C251.345 89.7613 245.635 93.0597 238.717 95.6102C237.87 95.9236 236.933 95.8825 236.117 95.4967C235.301 95.1109 234.674 94.4129 234.379 93.5599C233.104 89.9098 232.289 85.8874 232.38 81.1311C232.397 80.3052 232.853 79.551 233.577 79.1521C240.369 75.4309 247.585 72.6642 254.984 70.3137C254.984 70.3137 254.873 66.6366 254.792 63.9438Z" fill="#252525"/>
<path fill-rule="evenodd" clip-rule="evenodd" d="M289.476 70.7644C287.644 74.9794 284.177 83.7313 282.17 88.3697C280.807 91.5283 289.187 94.9201 291.633 92.4991C294.79 89.3749 301.466 73.2477 301.106 69.6255C300.746 66.003 291.027 67.1915 289.476 70.7644Z" fill="#7EA8E8"/>
<path fill-rule="evenodd" clip-rule="evenodd" d="M307.283 53.39C305.981 62.5202 302.838 90.2191 300.927 92.233C296.943 96.4309 315.427 93.9061 317.801 88.6292C321.095 81.3099 320.91 59.5165 319.877 52.9191C319.623 51.3105 307.602 51.1573 307.283 53.39Z" fill="#B2D396"/>
<path fill-rule="evenodd" clip-rule="evenodd" d="M320.913 47.4885C325.727 44.941 327.364 39.1104 325.814 33.9675C325.701 33.5999 325.328 33.3948 324.983 33.5082C324.636 33.6214 324.444 34.0098 324.556 34.3762C326.005 39.1755 324.316 44.6764 319.442 46.6453C313.28 48.4485 306.388 50.3818 295.691 52.9938C296.499 64.1582 293.061 68.093 282.999 68.5882C282.427 68.6197 281.869 68.4118 281.457 68.014C281.046 67.6164 280.818 67.0652 280.83 66.4927L281.611 26.6201C281.637 25.4258 282.52 24.4247 283.701 24.2547L288.731 23.5319C290.232 23.3163 291.756 23.7379 292.931 24.6951C294.108 25.652 294.832 27.0574 294.926 28.5711C294.926 28.5711 316.376 22.8034 325.488 20.3563C327.852 19.7205 330.337 20.8311 331.441 23.0157C345.261 50.5776 350.536 73.8672 348.289 95.3711C347.963 98.265 346.102 103.558 343.789 105.871C340.289 109.371 332.789 112.645 311.913 115.867C309.439 116.25 306.959 115.218 305.486 113.194C304.234 111.473 302.633 109.277 301.059 107.113C299.938 105.57 299.802 103.519 300.713 101.842C301.627 100.165 303.424 99.1638 305.329 99.2689C316.346 99.9826 326.953 99.6401 329.894 88.128C331.425 82.1437 327.4 62.6574 320.913 47.4885Z" fill="#252525"/>
<defs>
<filter id="filter0_n_137_2" x="172.827" y="146.06" width="134.284" height="33.8451" filterUnits="userSpaceOnUse" color-interpolation-filters="sRGB">
<feFlood flood-opacity="0" result="BackgroundImageFix"/>
<feBlend mode="normal" in="SourceGraphic" in2="BackgroundImageFix" result="shape"/>
<feTurbulence type="fractalNoise" baseFrequency="2 2" stitchTiles="stitch" numOctaves="3" result="noise" seed="6965" />
<feColorMatrix in="noise" type="luminanceToAlpha" result="alphaNoise" />
<feComponentTransfer in="alphaNoise" result="coloredNoise1">
<feFuncA type="discrete" tableValues="0 0 0 0 0 0 0 0 0 0 0 0 0 0 0 0 0 0 0 0 0 0 0 0 0 1 0 0 0 0 0 0 0 0 0 0 0 0 0 0 0 0 0 0 0 0 0 0 0 0 0 0 0 0 0 0 0 0 0 0 0 0 0 0 0 0 0 0 0 0 0 0 0 0 0 0 0 0 0 0 0 0 0 0 0 0 0 0 0 0 0 0 0 0 0 0 0 0 0 0 "/>
</feComponentTransfer>
<feComposite operator="in" in2="shape" in="coloredNoise1" result="noise1Clipped" />
<feFlood flood-color="#F3F0E7" result="color1Flood" />
<feComposite operator="in" in2="noise1Clipped" in="color1Flood" result="color1" />
<feMerge result="effect1_noise_137_2">
<feMergeNode in="shape" />
<feMergeNode in="color1" />
</feMerge>
</filter>
<filter id="filter1_d_137_2" x="-1.23978e-05" y="3.68524" width="362.589" height="148.137" filterUnits="userSpaceOnUse" color-interpolation-filters="sRGB">
<feFlood flood-opacity="0" result="BackgroundImageFix"/>
<feColorMatrix in="SourceAlpha" type="matrix" values="0 0 0 0 0 0 0 0 0 0 0 0 0 0 0 0 0 0 127 0" result="hardAlpha"/>
<feOffset/>
<feGaussianBlur stdDeviation="3.9"/>
<feComposite in2="hardAlpha" operator="out"/>
<feColorMatrix type="matrix" values="0 0 0 0 0.622333 0 0 0 0 0.480155 0 0 0 0 0.480155 0 0 0 0.42 0"/>
<feBlend mode="normal" in2="BackgroundImageFix" result="effect1_dropShadow_137_2"/>
<feBlend mode="normal" in="SourceGraphic" in2="effect1_dropShadow_137_2" result="shape"/>
</filter>
</defs>
</svg>
