<svg width="171" height="307" viewBox="0 0 171 307" fill="none" xmlns="http://www.w3.org/2000/svg">
<g filter="url(#filter0_d_137_3)">
<path d="M37.3026 57.3669C67.0112 70.6717 81.6222 103.115 71.0596 131.004C90.5831 151.473 97.0329 182.097 84.9657 209.042C68.9419 244.822 26.3379 260.565 -10.1934 244.205C-46.7247 227.844 -63.3496 185.576 -47.3258 149.796C-44.8446 144.256 -41.7266 139.196 -38.092 134.662C-47.0667 119.312 -48.9398 100.695 -41.4834 84.0458C-28.718 55.5418 6.55585 43.5973 37.3026 57.3669Z" fill="#ECCC76"/>
<path d="M37.3026 57.3669L40.5724 50.0656L40.5724 50.0656L37.3026 57.3669ZM71.0596 131.004L63.5782 128.171L61.7941 132.881L65.2707 136.526L71.0596 131.004ZM84.9657 209.042L92.2669 212.312L92.2669 212.312L84.9657 209.042ZM-10.1934 244.205L-13.4632 251.506L-13.4631 251.506L-10.1934 244.205ZM-47.3258 149.796L-54.627 146.526L-54.627 146.526L-47.3258 149.796ZM-38.092 134.662L-31.8497 139.665L-28.4093 135.372L-31.1859 130.624L-38.092 134.662ZM-41.4834 84.0458L-48.7846 80.776L-48.7846 80.776L-41.4834 84.0458ZM37.3026 57.3669L34.0327 64.6681C60.3386 76.4491 72.4678 104.699 63.5782 128.171L71.0596 131.004L78.5409 133.838C90.7767 101.531 73.6839 64.8944 40.5724 50.0656L37.3026 57.3669ZM71.0596 131.004L65.2707 136.526C82.6843 154.782 88.3265 181.965 77.6644 205.773L84.9657 209.042L92.2669 212.312C105.739 182.229 98.4819 148.163 76.8484 125.483L71.0596 131.004ZM84.9657 209.042L77.6644 205.773C63.5103 237.378 25.7191 251.522 -6.92358 236.903L-10.1934 244.205L-13.4631 251.506C26.9567 269.608 74.3736 252.266 92.2669 212.312L84.9657 209.042ZM-10.1934 244.205L-6.92353 236.903C-39.5664 222.285 -54.1787 184.671 -40.0245 153.066L-47.3258 149.796L-54.627 146.526C-72.5205 186.481 -53.8831 233.404 -13.4632 251.506L-10.1934 244.205ZM-47.3258 149.796L-40.0245 153.066C-37.8237 148.152 -35.0628 143.674 -31.8497 139.665L-38.092 134.662L-44.3344 129.658C-48.3903 134.719 -51.8655 140.36 -54.627 146.526L-47.3258 149.796ZM-38.092 134.662L-31.1859 130.624C-38.9923 117.272 -40.478 101.374 -34.1821 87.3156L-41.4834 84.0458L-48.7846 80.776C-57.4016 100.017 -55.141 121.352 -44.9982 138.699L-38.092 134.662ZM-41.4834 84.0458L-34.1821 87.3157C-23.4514 63.3549 6.78781 52.4668 34.0328 64.6681L37.3026 57.3669L40.5724 50.0656C6.3239 34.7279 -33.9845 47.7287 -48.7846 80.776L-41.4834 84.0458Z" fill="white"/>
<path d="M47.7671 131.569C45.9453 132.064 44.0684 132.287 42.2435 132.224C40.4186 132.161 38.6816 131.813 37.1314 131.201C35.5813 130.589 34.2485 129.724 33.2091 128.656C32.1697 127.587 31.4441 126.337 31.0737 124.975C30.7033 123.614 30.6954 122.168 31.0503 120.72C31.4053 119.273 32.1162 117.852 33.1425 116.539C34.1687 115.226 35.4903 114.046 37.0317 113.067C38.573 112.088 40.304 111.329 42.1258 110.833L44.9465 121.201L47.7671 131.569Z" fill="white" stroke="white" stroke-width="16"/>
<path d="M38.5251 97.5187C36.7033 98.0143 34.8264 98.2369 33.0015 98.1738C31.1766 98.1107 29.4396 97.7631 27.8894 97.1508C26.3393 96.5385 25.0065 95.6736 23.9671 94.6054C22.9277 93.5372 22.2021 92.2867 21.8317 90.9251C21.4613 89.5636 21.4533 88.1178 21.8083 86.6703C22.1633 85.2227 22.8742 83.8018 23.9005 82.4886C24.9267 81.1754 26.2483 79.9957 27.7897 79.0167C29.331 78.0378 31.062 77.2788 32.8838 76.7832L35.7045 87.1509L38.5251 97.5187Z" fill="white" stroke="white" stroke-width="16"/>
<mask id="mask0_137_3" style="mask-type:alpha" maskUnits="userSpaceOnUse" x="13" y="77" width="35" height="35">
<ellipse cx="30.3437" cy="94.0081" rx="9.5" ry="8.5" transform="rotate(44.139 30.3437 94.0081)" fill="#252525" stroke="white" stroke-width="16"/>
</mask>
<g mask="url(#mask0_137_3)">
<path d="M38.5251 97.5187C36.7033 98.0143 34.8264 98.2369 33.0015 98.1738C31.1766 98.1107 29.4395 97.7631 27.8894 97.1508C26.3393 96.5385 25.0065 95.6736 23.9671 94.6054C22.9277 93.5372 22.2021 92.2867 21.8317 90.9251C21.4613 89.5636 21.4533 88.1178 21.8083 86.6703C22.1632 85.2227 22.8741 83.8018 23.9004 82.4886C24.9267 81.1754 26.2483 79.9957 27.7896 79.0167C29.331 78.0378 31.062 77.2788 32.8838 76.7832L35.7044 87.1509L38.5251 97.5187Z" fill="#252525"/>
</g>
<mask id="mask1_137_3" style="mask-type:alpha" maskUnits="userSpaceOnUse" x="22" y="109" width="34" height="34">
<ellipse cx="39.3168" cy="126.404" rx="9.5" ry="7.5" transform="rotate(44.139 39.3168 126.404)" fill="#252525" stroke="white" stroke-width="16"/>
</mask>
<g mask="url(#mask1_137_3)">
<path d="M47.2378 130.183C45.5491 130.541 43.7924 130.64 42.0679 130.473C40.3434 130.307 38.685 129.878 37.1874 129.212C35.6897 128.546 34.3821 127.655 33.3392 126.59C32.2963 125.525 31.5385 124.308 31.1092 123.007C30.6799 121.706 30.5874 120.348 30.837 119.009C31.0866 117.67 31.6734 116.377 32.5639 115.203C33.4544 114.03 34.6312 113 36.027 112.171C37.4229 111.342 39.0105 110.73 40.6992 110.372L43.9685 120.277L47.2378 130.183Z" fill="#252525"/>
</g>
</g>
<mask id="path-9-inside-1_137_3" fill="white">
<path d="M37.3026 57.3669C67.0112 70.6717 81.6222 103.115 71.0596 131.004C90.5831 151.473 97.0329 182.097 84.9657 209.042C68.9419 244.822 26.3379 260.565 -10.1934 244.205C-46.7247 227.844 -63.3496 185.576 -47.3258 149.796C-44.8446 144.256 -41.7266 139.196 -38.092 134.662C-47.0667 119.312 -48.9398 100.695 -41.4834 84.0458C-28.718 55.5418 6.55585 43.5973 37.3026 57.3669Z"/>
</mask>
<path d="M37.3026 57.3669C67.0112 70.6717 81.6222 103.115 71.0596 131.004C90.5831 151.473 97.0329 182.097 84.9657 209.042C68.9419 244.822 26.3379 260.565 -10.1934 244.205C-46.7247 227.844 -63.3496 185.576 -47.3258 149.796C-44.8446 144.256 -41.7266 139.196 -38.092 134.662C-47.0667 119.312 -48.9398 100.695 -41.4834 84.0458C-28.718 55.5418 6.55585 43.5973 37.3026 57.3669Z" fill="#ECCC76"/>
<path d="M37.3026 57.3669L38.12 55.5416L38.12 55.5415L37.3026 57.3669ZM71.0596 131.004L69.1892 130.296L68.7432 131.474L69.6123 132.385L71.0596 131.004ZM84.9657 209.042L86.791 209.86L86.791 209.86L84.9657 209.042ZM-10.1934 244.205L-11.0108 246.03L-11.0108 246.03L-10.1934 244.205ZM-47.3258 149.796L-49.1511 148.979L-49.1511 148.979L-47.3258 149.796ZM-38.092 134.662L-36.5315 135.912L-35.6714 134.839L-36.3655 133.652L-38.092 134.662ZM-41.4834 84.0458L-43.3087 83.2284V83.2284L-41.4834 84.0458ZM37.3026 57.3669L36.4851 59.1922C65.3431 72.1161 79.3336 103.511 69.1892 130.296L71.0596 131.004L72.9299 131.713C83.9109 102.719 68.6794 69.2274 38.12 55.5416L37.3026 57.3669ZM71.0596 131.004L69.6123 132.385C88.6084 152.3 94.8563 182.064 83.1403 208.225L84.9657 209.042L86.791 209.86C99.2095 182.13 92.5578 150.645 72.5068 129.624L71.0596 131.004ZM84.9657 209.042L83.1404 208.225C67.584 242.961 26.1832 258.304 -9.37591 242.379L-10.1934 244.205L-11.0108 246.03C26.4926 262.826 70.2998 246.683 86.791 209.86L84.9657 209.042ZM-10.1934 244.205L-9.3759 242.379C-44.9352 226.454 -61.0569 185.35 -45.5005 150.614L-47.3258 149.796L-49.1511 148.979C-65.6423 185.802 -48.5143 229.234 -11.0108 246.03L-10.1934 244.205ZM-47.3258 149.796L-45.5005 150.614C-43.0894 145.23 -40.0606 140.315 -36.5315 135.912L-38.092 134.662L-39.6526 133.411C-43.3925 138.077 -46.5998 143.282 -49.1511 148.979L-47.3258 149.796ZM-38.092 134.662L-36.3655 133.652C-45.0481 118.802 -46.8244 100.865 -39.6581 84.8633L-41.4834 84.0458L-43.3087 83.2284C-51.0552 100.526 -49.0852 119.822 -39.8186 135.671L-38.092 134.662ZM-41.4834 84.0458L-39.6581 84.8633C-27.4013 57.4951 6.61384 45.8147 36.4851 59.1922L37.3026 57.3669L38.12 55.5415C6.49787 41.38 -30.0346 53.5885 -43.3087 83.2284L-41.4834 84.0458Z" fill="#252525" mask="url(#path-9-inside-1_137_3)"/>
<mask id="path-11-inside-2_137_3" fill="white">
<path d="M47.7671 131.569C45.9453 132.064 44.0684 132.287 42.2435 132.224C40.4186 132.161 38.6816 131.813 37.1314 131.201C35.5813 130.589 34.2485 129.724 33.2091 128.656C32.1697 127.587 31.4441 126.337 31.0737 124.975C30.7033 123.614 30.6954 122.168 31.0503 120.72C31.4053 119.273 32.1162 117.852 33.1425 116.539C34.1687 115.226 35.4903 114.046 37.0317 113.067C38.573 112.088 40.304 111.329 42.1258 110.833L44.9465 121.201L47.7671 131.569Z"/>
</mask>
<path d="M47.7671 131.569C45.9453 132.064 44.0684 132.287 42.2435 132.224C40.4186 132.161 38.6816 131.813 37.1314 131.201C35.5813 130.589 34.2485 129.724 33.2091 128.656C32.1697 127.587 31.4441 126.337 31.0737 124.975C30.7033 123.614 30.6954 122.168 31.0503 120.72C31.4053 119.273 32.1162 117.852 33.1425 116.539C34.1687 115.226 35.4903 114.046 37.0317 113.067C38.573 112.088 40.304 111.329 42.1258 110.833L44.9465 121.201L47.7671 131.569Z" fill="white" stroke="#252525" stroke-width="4" mask="url(#path-11-inside-2_137_3)"/>
<mask id="path-12-inside-3_137_3" fill="white">
<path d="M38.5251 97.5187C36.7033 98.0143 34.8264 98.2369 33.0015 98.1738C31.1766 98.1107 29.4396 97.7631 27.8894 97.1508C26.3393 96.5385 25.0065 95.6736 23.9671 94.6054C22.9277 93.5372 22.2021 92.2867 21.8317 90.9251C21.4613 89.5636 21.4533 88.1178 21.8083 86.6703C22.1633 85.2227 22.8742 83.8018 23.9005 82.4886C24.9267 81.1754 26.2483 79.9957 27.7897 79.0167C29.331 78.0378 31.062 77.2788 32.8838 76.7832L35.7045 87.1509L38.5251 97.5187Z"/>
</mask>
<path d="M38.5251 97.5187C36.7033 98.0143 34.8264 98.2369 33.0015 98.1738C31.1766 98.1107 29.4396 97.7631 27.8894 97.1508C26.3393 96.5385 25.0065 95.6736 23.9671 94.6054C22.9277 93.5372 22.2021 92.2867 21.8317 90.9251C21.4613 89.5636 21.4533 88.1178 21.8083 86.6703C22.1633 85.2227 22.8742 83.8018 23.9005 82.4886C24.9267 81.1754 26.2483 79.9957 27.7897 79.0167C29.331 78.0378 31.062 77.2788 32.8838 76.7832L35.7045 87.1509L38.5251 97.5187Z" fill="white" stroke="#252525" stroke-width="4" mask="url(#path-12-inside-3_137_3)"/>
<mask id="mask2_137_3" style="mask-type:alpha" maskUnits="userSpaceOnUse" x="21" y="85" width="19" height="19">
<ellipse cx="30.3437" cy="94.0081" rx="9.5" ry="8.5" transform="rotate(44.139 30.3437 94.0081)" fill="#252525"/>
</mask>
<g mask="url(#mask2_137_3)">
<path d="M38.5251 97.5187C36.7033 98.0143 34.8264 98.2369 33.0015 98.1738C31.1766 98.1107 29.4395 97.7631 27.8894 97.1508C26.3393 96.5385 25.0065 95.6736 23.9671 94.6054C22.9277 93.5372 22.2021 92.2867 21.8317 90.9251C21.4613 89.5636 21.4533 88.1178 21.8083 86.6703C22.1632 85.2227 22.8741 83.8018 23.9004 82.4886C24.9267 81.1754 26.2483 79.9957 27.7896 79.0167C29.331 78.0378 31.062 77.2788 32.8838 76.7832L35.7044 87.1509L38.5251 97.5187Z" fill="#252525"/>
</g>
<mask id="mask3_137_3" style="mask-type:alpha" maskUnits="userSpaceOnUse" x="30" y="117" width="18" height="18">
<ellipse cx="39.3168" cy="126.404" rx="9.5" ry="7.5" transform="rotate(44.139 39.3168 126.404)" fill="#252525"/>
</mask>
<g mask="url(#mask3_137_3)">
<path d="M47.2378 130.183C45.5491 130.541 43.7924 130.64 42.0679 130.473C40.3434 130.307 38.685 129.878 37.1874 129.212C35.6897 128.546 34.3821 127.655 33.3392 126.59C32.2963 125.525 31.5385 124.308 31.1092 123.007C30.6799 121.706 30.5874 120.348 30.837 119.009C31.0866 117.67 31.6734 116.377 32.5639 115.203C33.4544 114.03 34.6312 113 36.027 112.171C37.4229 111.342 39.0105 110.73 40.6992 110.372L43.9685 120.277L47.2378 130.183Z" fill="#252525"/>
</g>
<defs>
<filter id="filter0_d_137_3" x="-70.0349" y="35.0647" width="177.705" height="232.205" filterUnits="userSpaceOnUse" color-interpolation-filters="sRGB">
<feFlood flood-opacity="0" result="BackgroundImageFix"/>
<feColorMatrix in="SourceAlpha" type="matrix" values="0 0 0 0 0 0 0 0 0 0 0 0 0 0 0 0 0 0 127 0" result="hardAlpha"/>
<feOffset/>
<feGaussianBlur stdDeviation="4.3"/>
<feComposite in2="hardAlpha" operator="out"/>
<feColorMatrix type="matrix" values="0 0 0 0 0.622333 0 0 0 0 0.480155 0 0 0 0 0.480155 0 0 0 0.89 0"/>
<feBlend mode="normal" in2="BackgroundImageFix" result="effect1_dropShadow_137_3"/>
<feBlend mode="normal" in="SourceGraphic" in2="effect1_dropShadow_137_3" result="shape"/>
</filter>
</defs>
</svg>
