<svg width="211" height="188" viewBox="0 0 211 188" fill="none" xmlns="http://www.w3.org/2000/svg">
<g filter="url(#filter0_d_31_358)">
<path d="M84.8438 29.67C85.3322 27.2698 88.3358 26.4349 89.9929 28.2388L106.735 46.4644C107.889 47.7204 109.856 47.7632 111.063 46.5585L130.841 26.822C132.678 24.9885 135.819 26.1955 135.956 28.7875L137.127 50.987C137.23 52.9388 139.142 54.2726 141.009 53.695L167.615 45.4652C170.305 44.6333 172.556 47.6298 171.008 49.981L158.182 69.46C156.998 71.2582 158.037 73.6812 160.156 74.0624L184.624 78.4645C187.447 78.9723 188.016 82.771 185.467 84.0841L161.883 96.2312C160.033 97.1839 159.691 99.6842 161.217 101.099L177.601 116.283C179.594 118.13 178.301 121.464 175.584 121.484L147.186 121.691C145.373 121.704 143.986 123.311 144.237 125.107L147.446 147.995C147.792 150.462 145.154 152.251 142.99 151.018L119.9 137.861C118.453 137.036 116.612 137.548 115.798 139.001L102.81 162.186C101.593 164.36 98.4098 164.188 97.433 161.897L88.3702 140.636C87.659 138.968 85.6414 138.307 84.0811 139.232L59.6505 153.709C57.3129 155.094 54.4851 152.907 55.2389 150.296L61.4361 128.834C62.0134 126.835 60.4301 124.87 58.3542 125.009L31.8847 126.775C29.0234 126.966 27.5508 123.418 29.7063 121.526L48.3928 105.129C50.011 103.709 49.651 101.097 47.7089 100.168L26.6707 90.1017C24.1313 88.8867 24.5129 85.1585 27.2458 84.4832L54.2825 77.802C56.18 77.3332 57.1296 75.204 56.2105 73.4789L45.757 53.8598C44.5364 51.569 46.6039 48.9143 49.1239 49.5366L76.2498 56.2355C77.9056 56.6444 79.5687 55.5925 79.9088 53.9212L84.8438 29.67Z" fill="#EC7676"/>
<path d="M84.8438 29.67C85.3322 27.2698 88.3358 26.4349 89.9929 28.2388L106.735 46.4644C107.889 47.7204 109.856 47.7632 111.063 46.5585L130.841 26.822C132.678 24.9885 135.819 26.1955 135.956 28.7875L137.127 50.987C137.23 52.9388 139.142 54.2726 141.009 53.695L167.615 45.4652C170.305 44.6333 172.556 47.6298 171.008 49.981L158.182 69.46C156.998 71.2582 158.037 73.6812 160.156 74.0624L184.624 78.4645C187.447 78.9723 188.016 82.771 185.467 84.0841L161.883 96.2312C160.033 97.1839 159.691 99.6842 161.217 101.099L177.601 116.283C179.594 118.13 178.301 121.464 175.584 121.484L147.186 121.691C145.373 121.704 143.986 123.311 144.237 125.107L147.446 147.995C147.792 150.462 145.154 152.251 142.99 151.018L119.9 137.861C118.453 137.036 116.612 137.548 115.798 139.001L102.81 162.186C101.593 164.36 98.4098 164.188 97.433 161.897L88.3702 140.636C87.659 138.968 85.6414 138.307 84.0811 139.232L59.6505 153.709C57.3129 155.094 54.4851 152.907 55.2389 150.296L61.4361 128.834C62.0134 126.835 60.4301 124.87 58.3542 125.009L31.8847 126.775C29.0234 126.966 27.5508 123.418 29.7063 121.526L48.3928 105.129C50.011 103.709 49.651 101.097 47.7089 100.168L26.6707 90.1017C24.1313 88.8867 24.5129 85.1585 27.2458 84.4832L54.2825 77.802C56.18 77.3332 57.1296 75.204 56.2105 73.4789L45.757 53.8598C44.5364 51.569 46.6039 48.9143 49.1239 49.5366L76.2498 56.2355C77.9056 56.6444 79.5687 55.5925 79.9088 53.9212L84.8438 29.67Z" stroke="white" stroke-width="16"/>
</g>
<path d="M85.8239 29.8691C86.1498 28.2693 88.1516 27.7128 89.2563 28.915L105.999 47.1408C107.537 48.8154 110.16 48.8722 111.77 47.266L131.547 27.5296C132.772 26.3073 134.866 27.1121 134.957 28.84L136.128 51.0395C136.265 53.642 138.815 55.4204 141.305 54.6503L167.91 46.4206C169.703 45.866 171.204 47.8632 170.172 49.4307L157.346 68.9102C155.768 71.3077 157.154 74.5381 159.979 75.0464L184.448 79.4482C186.329 79.7868 186.708 82.3202 185.009 83.1956L161.425 95.3421C158.959 96.6124 158.503 99.9467 160.538 101.832L176.922 117.017C178.25 118.248 177.388 120.47 175.576 120.483L147.179 120.691C144.761 120.708 142.911 122.851 143.247 125.246L146.456 148.134C146.686 149.778 144.928 150.971 143.485 150.148L120.396 136.992C118.466 135.893 116.011 136.575 114.925 138.513L101.937 161.697C101.126 163.146 99.004 163.032 98.3526 161.505L89.2906 140.244C88.3423 138.02 85.6518 137.139 83.5714 138.371L59.141 152.848C57.5825 153.772 55.6972 152.314 56.1997 150.573L62.3972 129.112C63.1668 126.447 61.0551 123.826 58.2872 124.011L31.8178 125.777C29.9105 125.904 28.9287 123.539 30.3656 122.278L49.0523 105.88C51.2099 103.987 50.7295 100.505 48.1401 99.2658L27.1024 89.1992C25.4096 88.3892 25.6638 85.9044 27.4854 85.454L54.5226 78.7728C57.0525 78.1474 58.3188 75.3084 57.0933 73.0085L46.6398 53.3893C45.8263 51.8621 47.2045 50.0922 48.8845 50.507L76.0102 57.2059C78.2178 57.751 80.435 56.349 80.8885 54.1207L85.8239 29.8691Z" fill="#EC7676" stroke="#252525" stroke-width="2"/>
<path d="M64.503 71.9836C67.3487 71.2929 70.3721 72.185 72.9827 74.3359C75.5935 76.4871 77.7347 79.862 78.7308 83.9656C79.7269 88.0693 79.3711 92.0503 78.0371 95.159C76.7031 98.2674 74.4252 100.446 71.5794 101.137C68.7337 101.828 65.7102 100.936 63.0997 98.7847C60.4889 96.6336 58.3477 93.2587 57.3516 89.155C56.3555 85.0514 56.7112 81.0704 58.0453 77.9617C59.3793 74.8533 61.6572 72.6744 64.503 71.9836Z" fill="white" stroke="#252525" stroke-width="2"/>
<path d="M96.8973 59.6591C99.743 58.9684 102.766 59.8605 105.377 62.0115C107.988 64.1626 110.129 67.5375 111.125 71.6412C112.121 75.7448 111.765 79.7258 110.431 82.8345C109.097 85.9429 106.819 88.1218 103.974 88.8126C101.128 89.5033 98.1045 88.6112 95.494 86.4603C92.8832 84.3091 90.742 80.9342 89.7459 76.8306C88.7498 72.7269 89.1055 68.7459 90.4396 65.6372C91.7735 62.5288 94.0515 60.3499 96.8973 59.6591Z" fill="white" stroke="#252525" stroke-width="2"/>
<ellipse cx="64.5796" cy="87.9227" rx="3.81253" ry="6.35422" transform="rotate(-13.9623 64.5796 87.9227)" fill="#252525"/>
<ellipse cx="64.5796" cy="87.9227" rx="3.81253" ry="6.35422" transform="rotate(-13.9623 64.5796 87.9227)" fill="#252525"/>
<ellipse cx="64.5796" cy="87.9227" rx="3.81253" ry="6.35422" transform="rotate(-13.9623 64.5796 87.9227)" fill="#252525"/>
<ellipse cx="95.2331" cy="75.9432" rx="3.81253" ry="6.35422" transform="rotate(-13.9623 95.2331 75.9432)" fill="#252525"/>
<ellipse cx="95.2331" cy="75.9432" rx="3.81253" ry="6.35422" transform="rotate(-13.9623 95.2331 75.9432)" fill="#252525"/>
<ellipse cx="95.2331" cy="75.9432" rx="3.81253" ry="6.35422" transform="rotate(-13.9623 95.2331 75.9432)" fill="#252525"/>
<path d="M9.04025 54.841L24.1923 64.311" stroke="#252525" stroke-width="2" stroke-linecap="round"/>
<path d="M2.56235 68.3093L20.2699 70.6983" stroke="#252525" stroke-width="2" stroke-linecap="round"/>
<path d="M19.0526 43.0906L29.9648 57.2393" stroke="#252525" stroke-width="2" stroke-linecap="round"/>
<defs>
<filter id="filter0_d_31_358" x="8.36323" y="9.3276" width="195.335" height="170.993" filterUnits="userSpaceOnUse" color-interpolation-filters="sRGB">
<feFlood flood-opacity="0" result="BackgroundImageFix"/>
<feColorMatrix in="SourceAlpha" type="matrix" values="0 0 0 0 0 0 0 0 0 0 0 0 0 0 0 0 0 0 127 0" result="hardAlpha"/>
<feOffset/>
<feGaussianBlur stdDeviation="4.3"/>
<feComposite in2="hardAlpha" operator="out"/>
<feColorMatrix type="matrix" values="0 0 0 0 0.622333 0 0 0 0 0.480155 0 0 0 0 0.480155 0 0 0 0.89 0"/>
<feBlend mode="normal" in2="BackgroundImageFix" result="effect1_dropShadow_31_358"/>
<feBlend mode="normal" in="SourceGraphic" in2="effect1_dropShadow_31_358" result="shape"/>
</filter>
</defs>
</svg>
