<svg width="390" height="495" viewBox="0 0 390 495" fill="none" xmlns="http://www.w3.org/2000/svg">
<g filter="url(#filter0_d_142_4)">
<path d="M339.844 29.67C340.332 27.2698 343.336 26.4349 344.993 28.2388L361.735 46.4644C362.889 47.7204 364.856 47.7632 366.063 46.5585L385.841 26.822C387.678 24.9885 390.819 26.1955 390.956 28.7875L392.127 50.987C392.23 52.9388 394.142 54.2726 396.009 53.695L422.615 45.4652C425.305 44.6333 427.556 47.6298 426.008 49.981L413.182 69.46C411.998 71.2582 413.037 73.6812 415.156 74.0624L439.624 78.4645C442.447 78.9723 443.016 82.771 440.467 84.0841L416.883 96.2312C415.033 97.1839 414.691 99.6842 416.217 101.099L432.601 116.283C434.594 118.13 433.301 121.464 430.584 121.484L402.186 121.691C400.373 121.704 398.986 123.311 399.237 125.107L402.446 147.995C402.792 150.462 400.154 152.251 397.99 151.018L374.9 137.861C373.453 137.036 371.612 137.548 370.798 139.001L357.81 162.186C356.593 164.36 353.41 164.188 352.433 161.897L343.37 140.636C342.659 138.968 340.641 138.307 339.081 139.232L314.651 153.709C312.313 155.094 309.485 152.907 310.239 150.296L316.436 128.834C317.013 126.835 315.43 124.87 313.354 125.009L286.885 126.775C284.023 126.966 282.551 123.418 284.706 121.526L303.393 105.129C305.011 103.709 304.651 101.097 302.709 100.168L281.671 90.1017C279.131 88.8867 279.513 85.1585 282.246 84.4832L309.283 77.802C311.18 77.3332 312.13 75.204 311.21 73.4789L300.757 53.8598C299.536 51.569 301.604 48.9143 304.124 49.5366L331.25 56.2355C332.906 56.6444 334.569 55.5925 334.909 53.9212L339.844 29.67Z" fill="#EC7676"/>
<path d="M339.844 29.67C340.332 27.2698 343.336 26.4349 344.993 28.2388L361.735 46.4644C362.889 47.7204 364.856 47.7632 366.063 46.5585L385.841 26.822C387.678 24.9885 390.819 26.1955 390.956 28.7875L392.127 50.987C392.23 52.9388 394.142 54.2726 396.009 53.695L422.615 45.4652C425.305 44.6333 427.556 47.6298 426.008 49.981L413.182 69.46C411.998 71.2582 413.037 73.6812 415.156 74.0624L439.624 78.4645C442.447 78.9723 443.016 82.771 440.467 84.0841L416.883 96.2312C415.033 97.1839 414.691 99.6842 416.217 101.099L432.601 116.283C434.594 118.13 433.301 121.464 430.584 121.484L402.186 121.691C400.373 121.704 398.986 123.311 399.237 125.107L402.446 147.995C402.792 150.462 400.154 152.251 397.99 151.018L374.9 137.861C373.453 137.036 371.612 137.548 370.798 139.001L357.81 162.186C356.593 164.36 353.41 164.188 352.433 161.897L343.37 140.636C342.659 138.968 340.641 138.307 339.081 139.232L314.651 153.709C312.313 155.094 309.485 152.907 310.239 150.296L316.436 128.834C317.013 126.835 315.43 124.87 313.354 125.009L286.885 126.775C284.023 126.966 282.551 123.418 284.706 121.526L303.393 105.129C305.011 103.709 304.651 101.097 302.709 100.168L281.671 90.1017C279.131 88.8867 279.513 85.1585 282.246 84.4832L309.283 77.802C311.18 77.3332 312.13 75.204 311.21 73.4789L300.757 53.8598C299.536 51.569 301.604 48.9143 304.124 49.5366L331.25 56.2355C332.906 56.6444 334.569 55.5925 334.909 53.9212L339.844 29.67Z" stroke="white" stroke-width="16"/>
</g>
<path d="M340.824 29.8691C341.15 28.2693 343.152 27.7128 344.256 28.915L360.999 47.1408C362.537 48.8154 365.16 48.8722 366.77 47.266L386.547 27.5296C387.772 26.3073 389.866 27.1121 389.957 28.84L391.128 51.0395C391.265 53.642 393.815 55.4204 396.305 54.6503L422.91 46.4206C424.703 45.866 426.204 47.8632 425.172 49.4307L412.346 68.9102C410.768 71.3077 412.154 74.5381 414.979 75.0464L439.448 79.4482C441.329 79.7868 441.708 82.3202 440.009 83.1956L416.425 95.3421C413.959 96.6124 413.503 99.9467 415.538 101.832L431.922 117.017C433.25 118.248 432.388 120.47 430.576 120.483L402.179 120.691C399.761 120.708 397.911 122.851 398.247 125.246L401.456 148.134C401.686 149.778 399.928 150.971 398.485 150.148L375.396 136.992C373.466 135.893 371.011 136.575 369.925 138.513L356.937 161.697C356.126 163.146 354.004 163.032 353.353 161.505L344.291 140.244C343.342 138.02 340.652 137.139 338.571 138.371L314.141 152.848C312.583 153.772 310.697 152.314 311.2 150.573L317.397 129.112C318.167 126.447 316.055 123.826 313.287 124.011L286.818 125.777C284.91 125.904 283.929 123.539 285.366 122.278L304.052 105.88C306.21 103.987 305.73 100.505 303.14 99.2658L282.102 89.1992C280.41 88.3892 280.664 85.9044 282.485 85.454L309.523 78.7728C312.053 78.1474 313.319 75.3084 312.093 73.0085L301.64 53.3893C300.826 51.8621 302.205 50.0922 303.884 50.507L331.01 57.2059C333.218 57.751 335.435 56.349 335.889 54.1207L340.824 29.8691Z" fill="#EC7676" stroke="#252525" stroke-width="2"/>
<path d="M319.503 71.9836C322.349 71.2929 325.372 72.185 327.983 74.3359C330.593 76.4871 332.735 79.862 333.731 83.9656C334.727 88.0693 334.371 92.0503 333.037 95.159C331.703 98.2674 329.425 100.446 326.579 101.137C323.734 101.828 320.71 100.936 318.1 98.7847C315.489 96.6336 313.348 93.2587 312.352 89.155C311.356 85.0514 311.711 81.0704 313.045 77.9617C314.379 74.8533 316.657 72.6744 319.503 71.9836Z" fill="white" stroke="#252525" stroke-width="2"/>
<path d="M351.897 59.6591C354.743 58.9684 357.766 59.8605 360.377 62.0115C362.988 64.1626 365.129 67.5375 366.125 71.6412C367.121 75.7448 366.765 79.7258 365.431 82.8345C364.097 85.9429 361.819 88.1218 358.974 88.8126C356.128 89.5033 353.105 88.6112 350.494 86.4603C347.883 84.3091 345.742 80.9342 344.746 76.8306C343.75 72.7269 344.106 68.7459 345.44 65.6372C346.774 62.5288 349.052 60.3499 351.897 59.6591Z" fill="white" stroke="#252525" stroke-width="2"/>
<ellipse cx="319.58" cy="87.9227" rx="3.81253" ry="6.35422" transform="rotate(-13.9623 319.58 87.9227)" fill="#252525"/>
<ellipse cx="319.58" cy="87.9227" rx="3.81253" ry="6.35422" transform="rotate(-13.9623 319.58 87.9227)" fill="#252525"/>
<ellipse cx="319.58" cy="87.9227" rx="3.81253" ry="6.35422" transform="rotate(-13.9623 319.58 87.9227)" fill="#252525"/>
<ellipse cx="350.233" cy="75.9432" rx="3.81253" ry="6.35422" transform="rotate(-13.9623 350.233 75.9432)" fill="#252525"/>
<ellipse cx="350.233" cy="75.9432" rx="3.81253" ry="6.35422" transform="rotate(-13.9623 350.233 75.9432)" fill="#252525"/>
<ellipse cx="350.233" cy="75.9432" rx="3.81253" ry="6.35422" transform="rotate(-13.9623 350.233 75.9432)" fill="#252525"/>
<path d="M264.04 54.841L279.192 64.311" stroke="#252525" stroke-width="2" stroke-linecap="round"/>
<path d="M257.562 68.3093L275.27 70.6983" stroke="#252525" stroke-width="2" stroke-linecap="round"/>
<path d="M274.053 43.0906L284.965 57.2393" stroke="#252525" stroke-width="2" stroke-linecap="round"/>
<g filter="url(#filter1_d_142_4)">
<path d="M37.3026 245.932C67.0112 259.237 81.6222 291.681 71.0596 319.57C90.5831 340.038 97.0329 370.662 84.9657 397.608C68.9419 433.388 26.3379 449.13 -10.1934 432.77C-46.7247 416.41 -63.3496 374.142 -47.3258 338.362C-44.8446 332.822 -41.7266 327.762 -38.092 323.227C-47.0667 307.878 -48.9398 289.261 -41.4834 272.611C-28.718 244.107 6.55585 232.163 37.3026 245.932Z" fill="#ECCC76"/>
<path d="M37.3026 245.932L40.5724 238.631L40.5724 238.631L37.3026 245.932ZM71.0596 319.57L63.5782 316.736L61.7941 321.447L65.2707 325.092L71.0596 319.57ZM84.9657 397.608L92.2669 400.878L92.2669 400.878L84.9657 397.608ZM-10.1934 432.77L-13.4632 440.072L-13.4631 440.072L-10.1934 432.77ZM-47.3258 338.362L-54.627 335.092L-54.627 335.092L-47.3258 338.362ZM-38.092 323.227L-31.8497 328.23L-28.4093 323.938L-31.1859 319.189L-38.092 323.227ZM-41.4834 272.611L-48.7846 269.342L-48.7846 269.342L-41.4834 272.611ZM37.3026 245.932L34.0327 253.234C60.3386 265.015 72.4678 293.265 63.5782 316.736L71.0596 319.57L78.5409 322.403C90.7767 290.097 73.6839 253.46 40.5724 238.631L37.3026 245.932ZM71.0596 319.57L65.2707 325.092C82.6843 343.348 88.3265 370.53 77.6644 394.338L84.9657 397.608L92.2669 400.878C105.739 370.795 98.4819 336.728 76.8484 314.048L71.0596 319.57ZM84.9657 397.608L77.6644 394.338C63.5103 425.943 25.7191 440.088 -6.92358 425.469L-10.1934 432.77L-13.4631 440.072C26.9567 458.173 74.3736 440.832 92.2669 400.878L84.9657 397.608ZM-10.1934 432.77L-6.92353 425.469C-39.5664 410.85 -54.1787 373.237 -40.0245 341.632L-47.3258 338.362L-54.627 335.092C-72.5205 375.047 -53.8831 421.97 -13.4632 440.072L-10.1934 432.77ZM-47.3258 338.362L-40.0245 341.632C-37.8237 336.718 -35.0628 332.239 -31.8497 328.23L-38.092 323.227L-44.3344 318.224C-48.3903 323.284 -51.8655 328.926 -54.627 335.092L-47.3258 338.362ZM-38.092 323.227L-31.1859 319.189C-38.9923 305.838 -40.478 289.939 -34.1821 275.881L-41.4834 272.611L-48.7846 269.342C-57.4016 288.583 -55.141 309.918 -44.9982 327.265L-38.092 323.227ZM-41.4834 272.611L-34.1821 275.881C-23.4514 251.92 6.78781 241.032 34.0328 253.234L37.3026 245.932L40.5724 238.631C6.3239 223.293 -33.9845 236.294 -48.7846 269.342L-41.4834 272.611Z" fill="white"/>
<path d="M47.7671 320.134C45.9453 320.63 44.0684 320.853 42.2435 320.79C40.4186 320.726 38.6816 320.379 37.1314 319.767C35.5813 319.154 34.2485 318.289 33.2091 317.221C32.1697 316.153 31.4441 314.902 31.0737 313.541C30.7033 312.179 30.6954 310.734 31.0503 309.286C31.4053 307.838 32.1162 306.417 33.1425 305.104C34.1687 303.791 35.4903 302.611 37.0317 301.632C38.573 300.653 40.304 299.895 42.1258 299.399L44.9465 309.767L47.7671 320.134Z" fill="white" stroke="white" stroke-width="16"/>
<path d="M38.5251 286.084C36.7033 286.58 34.8264 286.803 33.0015 286.739C31.1766 286.676 29.4396 286.329 27.8894 285.716C26.3393 285.104 25.0065 284.239 23.9671 283.171C22.9277 282.103 22.2021 280.852 21.8317 279.491C21.4613 278.129 21.4533 276.683 21.8083 275.236C22.1633 273.788 22.8742 272.367 23.9005 271.054C24.9267 269.741 26.2483 268.561 27.7897 267.582C29.331 266.603 31.062 265.844 32.8838 265.349L35.7045 275.717L38.5251 286.084Z" fill="white" stroke="white" stroke-width="16"/>
<mask id="mask0_142_4" style="mask-type:alpha" maskUnits="userSpaceOnUse" x="13" y="265" width="35" height="35">
<ellipse cx="30.3437" cy="282.574" rx="9.5" ry="8.5" transform="rotate(44.139 30.3437 282.574)" fill="#252525" stroke="white" stroke-width="16"/>
</mask>
<g mask="url(#mask0_142_4)">
<path d="M38.5251 286.084C36.7033 286.58 34.8264 286.803 33.0015 286.739C31.1766 286.676 29.4395 286.329 27.8894 285.716C26.3393 285.104 25.0065 284.239 23.9671 283.171C22.9277 282.103 22.2021 280.852 21.8317 279.491C21.4613 278.129 21.4533 276.683 21.8083 275.236C22.1632 273.788 22.8741 272.367 23.9004 271.054C24.9267 269.741 26.2483 268.561 27.7896 267.582C29.331 266.603 31.062 265.844 32.8838 265.349L35.7044 275.717L38.5251 286.084Z" fill="#252525"/>
</g>
<mask id="mask1_142_4" style="mask-type:alpha" maskUnits="userSpaceOnUse" x="22" y="298" width="34" height="34">
<ellipse cx="39.3168" cy="314.969" rx="9.5" ry="7.5" transform="rotate(44.139 39.3168 314.969)" fill="#252525" stroke="white" stroke-width="16"/>
</mask>
<g mask="url(#mask1_142_4)">
<path d="M47.2378 318.748C45.5491 319.107 43.7924 319.206 42.0679 319.039C40.3434 318.872 38.685 318.444 37.1874 317.777C35.6897 317.111 34.3821 316.22 33.3392 315.156C32.2963 314.091 31.5385 312.874 31.1092 311.573C30.6799 310.272 30.5874 308.913 30.837 307.574C31.0866 306.235 31.6734 304.942 32.5639 303.769C33.4544 302.596 34.6312 301.565 36.027 300.736C37.4229 299.907 39.0105 299.296 40.6992 298.938L43.9685 308.843L47.2378 318.748Z" fill="#252525"/>
</g>
</g>
<mask id="path-18-inside-1_142_4" fill="white">
<path d="M37.3026 245.932C67.0112 259.237 81.6222 291.681 71.0596 319.57C90.5831 340.038 97.0329 370.662 84.9657 397.608C68.9419 433.388 26.3379 449.13 -10.1934 432.77C-46.7247 416.41 -63.3496 374.142 -47.3258 338.362C-44.8446 332.822 -41.7266 327.762 -38.092 323.227C-47.0667 307.878 -48.9398 289.261 -41.4834 272.611C-28.718 244.107 6.55585 232.163 37.3026 245.932Z"/>
</mask>
<path d="M37.3026 245.932C67.0112 259.237 81.6222 291.681 71.0596 319.57C90.5831 340.038 97.0329 370.662 84.9657 397.608C68.9419 433.388 26.3379 449.13 -10.1934 432.77C-46.7247 416.41 -63.3496 374.142 -47.3258 338.362C-44.8446 332.822 -41.7266 327.762 -38.092 323.227C-47.0667 307.878 -48.9398 289.261 -41.4834 272.611C-28.718 244.107 6.55585 232.163 37.3026 245.932Z" fill="#ECCC76"/>
<path d="M37.3026 245.932L38.12 244.107L38.12 244.107L37.3026 245.932ZM71.0596 319.57L69.1892 318.862L68.7432 320.039L69.6123 320.95L71.0596 319.57ZM84.9657 397.608L86.791 398.425L86.791 398.425L84.9657 397.608ZM-10.1934 432.77L-11.0108 434.596L-11.0108 434.596L-10.1934 432.77ZM-47.3258 338.362L-49.1511 337.544L-49.1511 337.544L-47.3258 338.362ZM-38.092 323.227L-36.5315 324.478L-35.6714 323.405L-36.3655 322.218L-38.092 323.227ZM-41.4834 272.611L-43.3087 271.794V271.794L-41.4834 272.611ZM37.3026 245.932L36.4851 247.758C65.3431 260.682 79.3336 292.077 69.1892 318.862L71.0596 319.57L72.9299 320.278C83.9109 291.285 68.6794 257.793 38.12 244.107L37.3026 245.932ZM71.0596 319.57L69.6123 320.95C88.6084 340.866 94.8563 370.629 83.1403 396.791L84.9657 397.608L86.791 398.425C99.2095 370.696 92.5578 339.211 72.5068 318.189L71.0596 319.57ZM84.9657 397.608L83.1404 396.791C67.584 431.526 26.1832 446.87 -9.37591 430.945L-10.1934 432.77L-11.0108 434.596C26.4926 451.391 70.2998 435.249 86.791 398.425L84.9657 397.608ZM-10.1934 432.77L-9.3759 430.945C-44.9352 415.02 -61.0569 373.915 -45.5005 339.179L-47.3258 338.362L-49.1511 337.544C-65.6423 374.368 -48.5143 417.8 -11.0108 434.596L-10.1934 432.77ZM-47.3258 338.362L-45.5005 339.179C-43.0894 333.796 -40.0606 328.881 -36.5315 324.478L-38.092 323.227L-39.6526 321.976C-43.3925 326.642 -46.5998 331.848 -49.1511 337.544L-47.3258 338.362ZM-38.092 323.227L-36.3655 322.218C-45.0481 307.368 -46.8244 289.431 -39.6581 273.429L-41.4834 272.611L-43.3087 271.794C-51.0552 289.091 -49.0852 308.388 -39.8186 324.237L-38.092 323.227ZM-41.4834 272.611L-39.6581 273.429C-27.4013 246.061 6.61384 234.38 36.4851 247.758L37.3026 245.932L38.12 244.107C6.49787 229.946 -30.0346 242.154 -43.3087 271.794L-41.4834 272.611Z" fill="#252525" mask="url(#path-18-inside-1_142_4)"/>
<mask id="path-20-inside-2_142_4" fill="white">
<path d="M47.7671 320.134C45.9453 320.63 44.0684 320.853 42.2435 320.79C40.4186 320.726 38.6816 320.379 37.1314 319.767C35.5813 319.154 34.2485 318.289 33.2091 317.221C32.1697 316.153 31.4441 314.902 31.0737 313.541C30.7033 312.179 30.6954 310.734 31.0503 309.286C31.4053 307.838 32.1162 306.417 33.1425 305.104C34.1687 303.791 35.4903 302.611 37.0317 301.632C38.573 300.653 40.304 299.895 42.1258 299.399L44.9465 309.767L47.7671 320.134Z"/>
</mask>
<path d="M47.7671 320.134C45.9453 320.63 44.0684 320.853 42.2435 320.79C40.4186 320.726 38.6816 320.379 37.1314 319.767C35.5813 319.154 34.2485 318.289 33.2091 317.221C32.1697 316.153 31.4441 314.902 31.0737 313.541C30.7033 312.179 30.6954 310.734 31.0503 309.286C31.4053 307.838 32.1162 306.417 33.1425 305.104C34.1687 303.791 35.4903 302.611 37.0317 301.632C38.573 300.653 40.304 299.895 42.1258 299.399L44.9465 309.767L47.7671 320.134Z" fill="white" stroke="#252525" stroke-width="4" mask="url(#path-20-inside-2_142_4)"/>
<mask id="path-21-inside-3_142_4" fill="white">
<path d="M38.5251 286.084C36.7033 286.58 34.8264 286.803 33.0015 286.739C31.1766 286.676 29.4396 286.329 27.8894 285.716C26.3393 285.104 25.0065 284.239 23.9671 283.171C22.9277 282.103 22.2021 280.852 21.8317 279.491C21.4613 278.129 21.4533 276.683 21.8083 275.236C22.1633 273.788 22.8742 272.367 23.9005 271.054C24.9267 269.741 26.2483 268.561 27.7897 267.582C29.331 266.603 31.062 265.844 32.8838 265.349L35.7045 275.717L38.5251 286.084Z"/>
</mask>
<path d="M38.5251 286.084C36.7033 286.58 34.8264 286.803 33.0015 286.739C31.1766 286.676 29.4396 286.329 27.8894 285.716C26.3393 285.104 25.0065 284.239 23.9671 283.171C22.9277 282.103 22.2021 280.852 21.8317 279.491C21.4613 278.129 21.4533 276.683 21.8083 275.236C22.1633 273.788 22.8742 272.367 23.9005 271.054C24.9267 269.741 26.2483 268.561 27.7897 267.582C29.331 266.603 31.062 265.844 32.8838 265.349L35.7045 275.717L38.5251 286.084Z" fill="white" stroke="#252525" stroke-width="4" mask="url(#path-21-inside-3_142_4)"/>
<mask id="mask2_142_4" style="mask-type:alpha" maskUnits="userSpaceOnUse" x="21" y="273" width="19" height="19">
<ellipse cx="30.3437" cy="282.574" rx="9.5" ry="8.5" transform="rotate(44.139 30.3437 282.574)" fill="#252525"/>
</mask>
<g mask="url(#mask2_142_4)">
<path d="M38.5251 286.084C36.7033 286.58 34.8264 286.803 33.0015 286.739C31.1766 286.676 29.4395 286.329 27.8894 285.716C26.3393 285.104 25.0065 284.239 23.9671 283.171C22.9277 282.103 22.2021 280.852 21.8317 279.491C21.4613 278.129 21.4533 276.683 21.8083 275.236C22.1632 273.788 22.8741 272.367 23.9004 271.054C24.9267 269.741 26.2483 268.561 27.7896 267.582C29.331 266.603 31.062 265.844 32.8838 265.349L35.7044 275.717L38.5251 286.084Z" fill="#252525"/>
</g>
<mask id="mask3_142_4" style="mask-type:alpha" maskUnits="userSpaceOnUse" x="30" y="306" width="18" height="18">
<ellipse cx="39.3168" cy="314.969" rx="9.5" ry="7.5" transform="rotate(44.139 39.3168 314.969)" fill="#252525"/>
</mask>
<g mask="url(#mask3_142_4)">
<path d="M47.2378 318.748C45.5491 319.107 43.7924 319.206 42.0679 319.039C40.3434 318.872 38.685 318.444 37.1874 317.777C35.6897 317.111 34.3821 316.22 33.3392 315.156C32.2963 314.091 31.5385 312.874 31.1092 311.573C30.6799 310.272 30.5874 308.913 30.837 307.574C31.0866 306.235 31.6734 304.942 32.5639 303.769C33.4544 302.596 34.6312 301.565 36.027 300.736C37.4229 299.907 39.0105 299.296 40.6992 298.938L43.9685 308.843L47.2378 318.748Z" fill="#252525"/>
</g>
<circle cx="204.783" cy="269.398" r="37.7982" transform="rotate(-1.49651 204.783 269.398)" fill="white"/>
<circle cx="256.06" cy="267.248" r="37.7982" transform="rotate(-1.49651 256.06 267.248)" fill="white"/>
<circle cx="307.433" cy="267.495" r="37.7982" transform="rotate(-1.49651 307.433 267.495)" fill="white"/>
<circle cx="307.19" cy="267.265" r="31.0535" transform="rotate(-1.49651 307.19 267.265)" fill="white" stroke="#252525" stroke-width="3"/>
<circle cx="255.377" cy="267.893" r="31.0535" transform="rotate(-1.49651 255.377 267.893)" fill="white" stroke="#252525" stroke-width="3"/>
<circle cx="204.541" cy="269.168" r="31.0535" transform="rotate(-1.49651 204.541 269.168)" fill="white" stroke="#252525" stroke-width="3"/>
<g filter="url(#filter2_n_142_4)">
<path d="M212.711 284.29C212.392 284.299 212.195 284.112 212.186 283.792L211.864 271.444L209.177 271.514C208.951 276.354 207.948 280.862 205.919 284.052C205.827 284.214 205.669 284.282 205.541 284.286C205.445 284.288 205.316 284.26 205.218 284.198L201.224 281.998L201.251 283.053C201.26 283.373 201.073 283.57 200.753 283.578L192.372 283.797C192.052 283.806 191.855 283.619 191.846 283.299L191.626 274.854C191.473 275.146 191.29 275.471 191.136 275.699C191.044 275.861 190.918 275.929 190.822 275.931C190.662 275.935 190.53 275.811 190.461 275.589L188.85 270.317C188.816 270.222 188.814 270.158 188.813 270.094C188.808 269.934 188.837 269.805 188.93 269.675C190.503 267.393 191.825 264.093 192.315 260.815L190.076 260.874C189.724 260.883 189.559 260.695 189.551 260.375L189.438 256.057C189.43 255.737 189.585 255.541 189.937 255.531L200.205 255.263C200.557 255.254 200.722 255.442 200.73 255.762L200.843 260.08C200.851 260.4 200.697 260.596 200.345 260.605L197.498 260.68C197.281 262.19 196.904 263.672 196.461 265.092L200.267 264.993C200.587 264.984 200.783 265.139 200.792 265.491L201.181 280.366C202.811 277.827 203.473 274.992 203.674 271.658L202.011 271.702C201.691 271.71 201.494 271.523 201.486 271.203L201.371 266.821C201.363 266.501 201.55 266.304 201.87 266.295L203.693 266.248L203.544 260.554L202.073 260.592C201.753 260.601 201.556 260.414 201.548 260.094L201.434 255.743C201.426 255.423 201.613 255.226 201.933 255.218L218.215 254.793C218.535 254.784 218.732 254.971 218.74 255.291L218.854 259.642C218.862 259.961 218.675 260.158 218.355 260.167L217.108 260.199L217.257 265.893L218.984 265.848C219.304 265.84 219.501 266.027 219.509 266.347L219.624 270.729C219.632 271.049 219.445 271.246 219.125 271.254L217.398 271.3L217.72 283.647C217.729 283.967 217.542 284.164 217.222 284.173L212.711 284.29ZM195.915 278.519L197.163 278.487L196.946 270.201L195.699 270.234L195.915 278.519ZM209.163 266.105L211.722 266.038L211.574 260.344L209.015 260.411L209.163 266.105Z" fill="#FFA8A8"/>
<path d="M244.027 283.408C243.899 283.412 243.771 283.415 243.706 283.385C243.545 283.325 243.478 283.231 243.378 283.073L241.021 278.621C240.954 278.495 240.918 278.368 240.916 278.272C240.943 278.079 241.1 277.979 241.387 277.939C245.217 277.487 248.193 276.225 249.066 274.121L243.404 274.269C243.084 274.278 242.887 274.091 242.879 273.771L242.77 269.58C242.761 269.26 242.948 269.064 243.268 269.055L249.602 268.89L249.587 267.097C248.323 267.707 246.957 268.127 245.458 268.326C245.33 268.329 245.234 268.332 245.137 268.302C245.007 268.241 244.941 268.147 244.841 267.99L242.795 264.426C242.761 264.363 242.727 264.268 242.725 264.204C242.75 263.947 243.099 263.81 243.737 263.729C247.407 263.281 249.489 262.106 250.305 260.26C250.365 260.131 250.397 260.098 250.491 260.031L246.908 260.125L246.964 262.268C246.972 262.588 246.785 262.785 246.466 262.794L241.955 262.911C241.635 262.92 241.438 262.733 241.43 262.413L241.261 255.951C241.253 255.631 241.44 255.434 241.76 255.426L252.22 255.153C252.016 254.678 251.814 254.331 251.613 253.984C251.547 253.89 251.512 253.795 251.51 253.699C251.505 253.507 251.597 253.344 251.852 253.306L257.439 252.744L257.599 252.739C257.823 252.734 257.984 252.793 258.086 253.015C258.392 253.679 258.597 254.186 258.906 254.978L269.494 254.701C269.814 254.693 270.011 254.88 270.019 255.2L270.181 261.406C270.19 261.726 270.003 261.923 269.683 261.931L265.172 262.049C264.853 262.057 264.656 261.87 264.647 261.55L264.598 259.663L261.559 259.742L261.617 261.95C261.625 262.269 261.761 262.554 262.307 262.636C262.853 262.718 264.23 262.714 265.253 262.687C266.117 262.664 267.14 262.606 268.162 262.515C268.258 262.512 268.322 262.511 268.418 262.54C268.58 262.6 268.681 262.789 268.687 263.013L268.783 266.692C268.791 267.012 268.604 267.177 268.285 267.217C267.104 267.376 265.666 267.478 264.739 267.502C263.491 267.535 262.468 267.561 261.026 267.535C257.375 267.47 256.283 266.09 256.225 263.883L256.121 259.884L251.163 260.014L254.899 260.909C255.157 260.966 255.256 261.091 255.293 261.282C255.295 261.346 255.265 261.443 255.236 261.54C254.516 263.384 252.897 265.154 250.818 266.425L255.136 266.312C255.456 266.304 255.653 266.491 255.662 266.811L255.68 268.731L264.061 268.512C264.413 268.503 264.546 268.691 264.555 269.043L264.745 276.305C264.758 276.817 264.888 276.909 265.179 276.998C265.308 277.026 265.468 277.022 265.564 277.02C265.66 277.017 265.724 277.015 265.915 276.978C266.52 276.867 266.728 276.253 266.715 272.092C266.707 271.772 266.83 271.577 267.054 271.571C267.118 271.569 267.15 271.568 267.279 271.629L271.321 273.188C271.58 273.277 271.714 273.498 271.721 273.786C271.658 281.182 270.369 282.048 266.406 282.311L264.712 282.388C264.04 282.405 263.528 282.419 263.079 282.398C260.71 282.364 258.858 281.324 258.785 278.541L258.663 273.871L255.112 273.964C253.903 279.149 249.918 282.198 244.027 283.408Z" fill="#FDE196"/>
<path d="M316.84 270.686C316.68 270.691 316.549 270.598 316.448 270.408C316.246 269.998 315.912 269.494 315.58 269.023C314.081 269.254 312.389 269.426 310.473 269.604L310.51 271.012L319.467 270.778C319.787 270.769 319.984 270.956 319.992 271.276L320.072 274.347C320.081 274.667 319.894 274.864 319.574 274.872L310.617 275.106L310.648 276.29L322.036 275.992C322.356 275.984 322.553 276.171 322.561 276.491L322.662 280.33C322.67 280.649 322.483 280.846 322.163 280.855L293.597 281.601C293.277 281.609 293.08 281.423 293.072 281.103L292.971 277.264C292.963 276.944 293.15 276.747 293.47 276.739L304.57 276.449L304.539 275.265L295.55 275.5C295.23 275.508 295.033 275.321 295.025 275.002L294.945 271.931C294.936 271.611 295.123 271.414 295.443 271.405L304.432 271.171L304.403 270.051C301.75 270.216 299.128 270.317 296.761 270.379C296.441 270.387 296.245 270.232 296.173 269.946L295.489 267.019C295.452 266.86 295.451 266.796 295.449 266.732C295.473 266.411 295.663 266.342 295.978 266.142C296.923 265.541 297.771 264.942 298.519 264.155L296.088 264.218C295.768 264.226 295.571 264.04 295.562 263.72L295.508 261.64L293.269 261.699C292.949 261.707 292.752 261.52 292.744 261.2L292.571 254.579C292.562 254.259 292.749 254.062 293.069 254.053L303.69 253.776C303.486 253.333 303.318 253.017 303.117 252.671C303.049 252.544 303.015 252.449 303.012 252.353C303.008 252.193 303.1 252.031 303.355 251.992L308.911 251.463L309.071 251.459C309.295 251.453 309.489 251.544 309.592 251.797C309.865 252.43 310.038 252.938 310.279 253.604L321.22 253.318C321.539 253.31 321.736 253.497 321.745 253.816L321.919 260.47C321.927 260.79 321.74 260.987 321.42 260.995L319.149 261.055L319.202 263.102C319.211 263.422 319.024 263.619 318.704 263.627L317.328 263.663C318.014 264.189 321.226 267.051 321.245 267.786C321.25 267.946 321.157 268.077 321 268.177L317.157 270.582C317.063 270.649 316.936 270.684 316.84 270.686ZM298.341 259.806L316.255 259.338L316.222 258.058L298.308 258.526L298.341 259.806ZM302.887 265.929C305.413 265.831 309.599 265.562 312.313 265.267C311.689 264.675 311.132 264.177 310.643 263.838L305.173 263.981C304.454 264.672 303.638 265.269 302.887 265.929Z" fill="#7EA8E8"/>
</g>
<path d="M350.059 274.476L349.475 280.677L355.243 283.027L354.141 288.373L359.909 290.724L304.86 324.094L305.444 317.893L300.195 316.398L300.779 310.197L295.011 307.846L350.059 274.476Z" fill="#B2D396" fill-opacity="0.47"/>
<g filter="url(#filter3_d_142_4)">
<rect x="175.869" y="122.871" width="22" height="16" fill="white"/>
<rect x="175.869" y="122.871" width="22" height="16" fill="white"/>
<rect x="175.869" y="122.871" width="22" height="16" fill="white"/>
<rect x="175.869" y="122.871" width="22" height="16" fill="white"/>
<rect x="175.869" y="122.871" width="22" height="16" fill="white"/>
<rect x="194.869" y="202.871" width="22" height="16" fill="white"/>
<rect x="194.869" y="202.871" width="22" height="16" fill="white"/>
<rect x="194.869" y="202.871" width="22" height="16" fill="white"/>
<rect x="194.869" y="202.871" width="22" height="16" fill="white"/>
<rect x="194.869" y="202.871" width="22" height="16" fill="white"/>
<path d="M98.2665 143.824C99.8541 143.546 101.342 143.358 102.576 143.326C103.189 143.309 103.832 143.328 104.436 143.426C104.922 143.505 105.752 143.69 106.5 144.252L106.649 144.37C107.511 145.091 108.193 146.093 108.723 147.01C109.285 147.981 109.821 149.115 110.324 150.307C111.331 152.694 112.294 155.523 113.122 158.19C113.953 160.869 114.666 163.444 115.171 165.345C115.424 166.296 115.625 167.083 115.763 167.633C115.832 167.908 115.886 168.124 115.923 168.273C115.941 168.347 115.955 168.404 115.965 168.443C115.97 168.463 115.973 168.478 115.975 168.488C115.977 168.493 115.978 168.498 115.978 168.501C115.979 168.502 115.98 168.503 115.98 168.504L115.98 168.505L116.029 168.751C116.219 169.98 115.629 171.212 114.528 171.828C112.909 172.733 112.166 173.72 111.841 175.138C111.464 176.782 111.59 179.289 112.587 183.291C112.594 183.309 112.601 183.329 112.609 183.35C112.659 183.488 112.733 183.691 112.827 183.95C113.014 184.467 113.28 185.208 113.601 186.106C114.242 187.903 115.099 190.333 115.962 192.86C116.823 195.383 117.697 198.027 118.369 200.243C118.704 201.349 118.997 202.375 119.214 203.239C119.411 204.03 119.605 204.912 119.64 205.619C120.638 225.985 112.256 239.211 98.9237 243.66C90.0343 246.627 81.8198 246.831 74.6902 244.091C67.5444 241.344 61.871 235.786 57.8099 227.958C55.1782 222.885 55.1021 217.916 56.6397 213.543C58.1464 209.259 61.1411 205.695 64.4588 203.089C69.5807 199.065 75.2177 199.683 77.925 199.9C77.2382 194.523 75.053 185.582 72.98 177.029C71.8653 172.43 70.798 167.989 70.0858 164.479C69.7305 162.728 69.4502 161.144 69.2994 159.856C69.2243 159.213 69.1747 158.588 69.1729 158.022C69.1713 157.524 69.2008 156.793 69.4447 156.088C69.7396 155.236 70.2665 154.579 70.7166 154.117C71.1884 153.633 71.7397 153.199 72.3011 152.813C73.4231 152.041 74.8346 151.29 76.3649 150.583C79.4423 149.16 83.3493 147.75 87.2281 146.565C91.1105 145.378 95.0687 144.385 98.2665 143.824Z" fill="#252525" stroke="white" stroke-width="6" stroke-linejoin="round"/>
<path d="M125.188 162.078C125.571 162.014 126.024 161.965 126.499 161.988C126.941 162.009 127.647 162.102 128.35 162.522L128.351 162.522C129.514 163.217 130.523 164.386 131.345 165.499C132.223 166.689 133.123 168.149 134.01 169.746C135.787 172.946 137.627 176.906 139.254 180.84C140.881 184.777 142.327 188.762 143.301 192.028C143.786 193.656 144.171 195.161 144.397 196.422C144.51 197.05 144.594 197.672 144.621 198.249C144.646 198.768 144.64 199.503 144.415 200.228C142.802 205.417 137.948 208.843 133.639 210.807C131.401 211.827 129.105 212.551 127.061 212.966C125.11 213.362 123.069 213.543 121.471 213.21C120.667 213.042 120.115 212.615 119.841 212.375C119.534 212.104 119.29 211.81 119.109 211.568C118.745 211.082 118.406 210.494 118.095 209.898C117.464 208.687 116.746 207.039 115.97 205.107C114.8 202.193 113.428 198.455 111.928 194.221L110.388 189.833C108.945 185.69 108.031 182.176 107.686 179.278C107.351 176.454 107.5 173.786 108.669 171.68C109.1 170.904 109.772 170.256 110.291 169.803C110.876 169.292 111.576 168.767 112.32 168.254C113.813 167.225 115.647 166.134 117.472 165.169C119.289 164.208 121.185 163.325 122.799 162.744C123.596 162.457 124.423 162.206 125.188 162.078Z" fill="#252525" stroke="white" stroke-width="6" stroke-linejoin="round"/>
<path d="M58.1236 168.629C59.3087 168.531 60.3705 168.985 60.9529 169.264C61.7202 169.633 62.5202 170.142 63.2895 170.69C64.841 171.795 66.5749 173.283 68.184 174.799C69.7999 176.321 71.3601 177.938 72.5612 179.337C73.1585 180.033 73.7016 180.714 74.1251 181.329C74.3363 181.636 74.5441 181.964 74.7193 182.296C74.8735 182.589 75.1005 183.064 75.2062 183.631L75.246 183.918C75.3089 184.569 75.1655 185.098 75.087 185.35C74.9781 185.7 74.8315 186.011 74.7045 186.254C74.4483 186.743 74.1064 187.261 73.7483 187.762C73.0204 188.778 72.0006 190.033 70.8274 191.401C68.4677 194.154 65.3066 197.579 62.1641 200.9C59.0144 204.23 55.8543 207.486 53.4839 209.906C52.2983 211.117 51.3091 212.121 50.6158 212.822C50.269 213.173 49.9957 213.447 49.8093 213.635C49.7164 213.728 49.6441 213.799 49.5957 213.848C48.751 214.802 47.6486 215.289 46.7779 215.535C45.8207 215.806 44.7964 215.887 43.8584 215.802C43.0386 215.728 41.8948 215.489 40.9302 214.767C39.6074 214.879 38.2941 214.591 37.1585 213.778C36.4608 213.278 35.9342 212.651 35.571 211.955C34.7363 211.846 33.9153 211.561 33.1664 211.068C32.1362 210.389 31.43 209.45 31.0358 208.369C29.7478 208.113 28.5388 207.455 27.6397 206.344C25.6792 203.921 26.1672 200.701 28.0436 197.994L28.187 197.805L32.7348 192.242C32.6652 192.069 32.5977 191.887 32.5371 191.696C31.9455 189.833 31.9583 187.326 33.8169 184.846C36.1329 181.754 39.6543 182.388 41.3618 182.964C41.696 183.076 42.0142 183.202 42.3114 183.332C42.4722 183.15 42.6424 182.956 42.822 182.754C44.0986 181.316 45.8279 179.39 47.6297 177.45C49.4241 175.519 51.3221 173.539 52.9292 172.008C53.7274 171.247 54.5009 170.552 55.1807 170.02C55.5185 169.755 55.8835 169.491 56.2516 169.272C56.547 169.097 57.1437 168.763 57.8848 168.655L58.1236 168.629Z" fill="#252525" stroke="white" stroke-width="6" stroke-linejoin="round"/>
<path d="M194.394 131.155C195.072 131.088 195.576 130.468 195.572 129.739L195.564 129.593C195.491 128.851 194.916 128.29 194.248 128.281L194.113 128.287C193.39 128.357 192.866 129.058 192.943 129.849L192.964 129.995C193.093 130.663 193.636 131.152 194.259 131.16L194.394 131.155ZM194.113 128.287L194.394 131.155M194.113 128.287L194.394 131.155M170.663 120.192L201.9 120.066C203.451 120.06 204.751 121.239 204.898 122.783C205.451 128.63 204.916 134.507 202.135 139.291C199.265 144.228 194.279 147.539 186.967 148.658C180.644 149.626 175.242 146.902 171.786 141.996C168.401 137.19 166.916 130.401 167.691 122.884L167.733 122.603C168.009 121.219 169.225 120.198 170.663 120.192ZM188.308 133.201C187.587 133.272 187.101 134.063 187.162 134.69C187.223 135.309 187.843 135.757 188.553 135.7L188.581 135.699C189.257 135.633 189.726 135.133 189.772 134.551L189.776 134.434C189.759 133.483 189.048 133.14 188.336 133.199L188.308 133.201Z" fill="#FDAE96" stroke="white" stroke-width="6" stroke-linejoin="round"/>
<path d="M219.994 119.657C222.28 119.052 224.7 120.09 225.828 122.191L225.828 122.192L232.438 134.497L232.438 134.498C233.135 135.796 233.229 137.335 232.695 138.709L232.695 138.71C232.162 140.082 231.054 141.153 229.662 141.64C219.396 145.235 177.159 160.026 167.629 163.363C167.222 172.633 165.534 211.031 165.016 222.816C164.877 225.964 163.033 228.777 160.222 230.165L159.947 230.295C154.497 232.753 143.426 237.747 138.496 239.97L138.495 239.97C137.115 240.593 135.543 240.639 134.128 240.098C132.713 239.557 131.573 238.473 130.96 237.088L128.008 230.411C126.927 227.966 127.851 225.099 130.155 223.745L136.951 219.751L136.951 219.75C137.276 219.559 137.498 219.232 137.554 218.858C139.277 207.382 147.854 150.278 149.099 141.99L149.099 141.99C149.357 140.276 150.538 138.844 152.172 138.265L167.434 132.863L167.623 132.801C169.584 132.212 171.693 133.18 172.515 135.075L172.788 135.678C174.186 138.649 176.072 140.907 178.371 142.34C180.788 143.846 183.893 144.585 187.87 144.025C192.314 143.398 195.344 141.379 197.412 138.681C199.532 135.916 200.75 132.281 201.179 128.375C201.371 126.59 202.603 125.086 204.32 124.549L219.773 119.72L219.994 119.657Z" fill="#252525" stroke="white" stroke-width="6" stroke-linejoin="round"/>
<path d="M184.848 152.116C188.345 151.621 191.487 152.318 193.703 154.711C195.761 156.932 196.492 160.077 196.646 163.254C196.786 166.161 195.782 169.071 194.255 171.776C192.715 174.504 190.522 177.238 187.963 179.872C183.164 184.811 176.835 189.644 170.354 193.681L169.056 194.478C169.056 194.478 169.034 194.492 168.973 194.533C168.901 194.58 168.852 194.613 168.747 194.682C168.575 194.797 168.326 194.961 168.062 195.114C167.833 195.247 167.423 195.474 166.945 195.622C166.709 195.695 166.281 195.807 165.754 195.788C165.195 195.768 164.314 195.585 163.582 194.836L163.583 194.835C163.137 194.379 162.946 193.897 162.883 193.733C162.798 193.509 162.748 193.308 162.72 193.177C162.662 192.91 162.631 192.644 162.611 192.434C162.569 191.998 162.549 191.473 162.539 190.937C162.519 189.849 162.538 188.472 162.573 187.13C162.609 185.78 162.661 184.429 162.71 183.378C162.753 182.459 162.804 181.494 162.858 181.149L162.859 181.149C162.95 180.57 163.182 180.149 163.321 179.931C163.471 179.694 163.627 179.515 163.733 179.402C163.941 179.18 164.151 179.01 164.271 178.917C164.403 178.813 164.532 178.72 164.606 178.668L164.685 178.612C165.112 178.276 165.487 177.992 165.83 177.735C165.398 177.388 164.917 176.957 164.513 176.454C164.13 175.979 163.461 175.01 163.467 173.702C163.473 172.573 163.944 171.539 164.292 170.891C164.695 170.139 165.224 169.386 165.792 168.711C166.359 168.038 167.03 167.366 167.754 166.819C168.168 166.507 168.723 166.139 169.38 165.872C169.365 165.797 169.354 165.743 169.35 165.716C169.294 165.375 169.297 165.075 169.304 164.898C169.318 164.524 169.374 164.133 169.428 163.814C169.541 163.146 169.723 162.348 169.901 161.625C170.082 160.888 170.275 160.168 170.42 159.636C170.493 159.368 170.555 159.145 170.599 158.989C170.621 158.911 170.639 158.849 170.651 158.806C170.657 158.785 170.662 158.768 170.666 158.757C170.667 158.751 170.668 158.746 170.669 158.743C170.67 158.741 170.67 158.74 170.67 158.739L170.671 158.738L170.671 158.737C170.931 157.831 171.602 157.101 172.482 156.765L184.197 152.284L184.355 152.228C184.516 152.177 184.681 152.14 184.848 152.116ZM176.412 168.002C176.617 168.166 176.817 168.329 177.008 168.49C177.171 168.328 177.319 168.167 177.448 168.007C177.141 167.988 176.795 167.987 176.412 168.002Z" fill="#252525" stroke="white" stroke-width="6" stroke-linejoin="round"/>
<path d="M203.768 146.158C205.059 146.032 206.097 146.628 206.735 147.351C207.1 147.766 207.86 148.416 209.099 149.277C210.296 150.108 211.799 151.04 213.526 152.035C216.978 154.022 221.201 156.187 225.408 158.203C229.612 160.217 233.758 162.063 237.041 163.416C238.686 164.094 240.089 164.638 241.163 165.015C242.384 165.444 242.833 165.53 242.785 165.526L243.12 165.566C244.748 165.829 245.676 167.016 246.113 167.859C246.572 168.744 246.785 169.752 246.9 170.612C247.137 172.383 247.086 174.569 246.93 176.615C246.772 178.701 246.489 180.819 246.195 182.529C246.048 183.384 245.894 184.162 245.745 184.799C245.62 185.334 245.438 186.048 245.183 186.583L245.182 186.583C244.385 188.25 242.695 188.559 242.186 188.636C241.434 188.749 240.617 188.718 239.874 188.646C238.347 188.498 236.397 188.099 234.254 187.558C229.929 186.466 224.364 184.679 218.853 182.673C213.34 180.667 207.794 178.408 203.511 176.352C201.379 175.329 199.486 174.322 198.048 173.389C197.334 172.926 196.657 172.432 196.101 171.918C195.629 171.481 194.877 170.704 194.558 169.619C194.385 169.032 194.373 168.455 194.378 168.094C194.384 167.676 194.423 167.231 194.477 166.792C194.586 165.91 194.781 164.866 195.026 163.759C195.518 161.536 196.257 158.867 197.081 156.357C197.894 153.88 198.84 151.408 199.771 149.652C200.202 148.841 200.795 147.857 201.567 147.167C201.948 146.827 202.698 146.263 203.768 146.158Z" fill="#252525" stroke="white" stroke-width="6" stroke-linejoin="round"/>
<path d="M216.581 143.091C219.089 142.152 221.646 141.896 224.03 142.757L224.504 142.944L224.523 142.952C225.981 143.588 226.889 145.066 226.798 146.655C226.795 146.695 226.792 146.735 226.788 146.774C226.52 149.511 224.905 152.246 222.84 154.809L222.841 154.81C222.118 155.708 221.032 156.238 219.88 156.257L219.88 156.257C219.164 156.269 217.641 156.294 216.483 156.309L216.484 156.31C216.482 156.31 216.481 156.31 216.48 156.31C216.477 156.31 216.475 156.311 216.473 156.311L216.473 156.31C215.214 156.328 214.01 155.786 213.191 154.827L213.042 154.644C212.327 153.706 212.033 152.51 212.237 151.343L212.253 151.257C212.595 149.592 213.199 147.694 214.09 145.51L214.091 145.511C214.547 144.394 215.447 143.517 216.579 143.092L216.581 143.091Z" fill="#252525" stroke="white" stroke-width="6" stroke-linejoin="round"/>
<path d="M231.556 142.12C232.852 140.688 234.813 140.074 236.679 140.492L237.05 140.59L237.069 140.595C240.319 141.596 243.219 143.038 245.858 144.762L246.383 145.111L246.397 145.121C247.37 145.787 248 146.85 248.115 148.025L248.115 148.028C248.229 149.199 247.819 150.363 246.993 151.206C244.888 153.353 239.292 159.067 237.102 161.296L237.101 161.295C235.785 162.636 233.851 163.17 232.033 162.692L232.022 162.689C228.591 161.773 225.435 160.417 222.641 158.533C222.633 158.528 222.625 158.521 222.616 158.516C221.698 157.883 221.097 156.886 220.968 155.777C220.839 154.668 221.194 153.559 221.942 152.733L231.556 142.121L231.556 142.12Z" fill="#252525" stroke="white" stroke-width="6" stroke-linejoin="round"/>
<path d="M187.581 174.28C192.042 173.144 195.662 173.646 198.485 175.281C201.232 176.873 202.834 179.314 203.764 181.344C205.826 185.848 205.197 190.323 202.821 194.109C201.331 196.482 199.177 198.562 196.615 200.31C197.457 201.196 198.166 202.198 198.73 203.244C200.21 205.99 200.895 209.381 200.289 212.641C199.844 215.03 198.482 217.401 196.796 219.541C195.075 221.727 192.838 223.895 190.333 225.886C185.349 229.847 179.008 233.34 172.944 234.873C171.918 235.132 170.972 234.958 170.301 234.748C169.606 234.529 168.959 234.193 168.399 233.844C167.276 233.144 166.169 232.184 165.221 231.21C164.266 230.231 163.368 229.13 162.699 228.079C162.367 227.556 162.051 226.981 161.82 226.393C161.616 225.874 161.344 225.016 161.459 224.048L161.46 224.047C161.592 222.93 162.175 221.843 163.287 221.194C164.178 220.674 165.082 220.644 165.475 220.642C165.685 220.641 165.88 220.651 166.023 220.66C167.988 219.58 169.831 218.126 171.547 216.554C171.181 216.605 170.82 216.649 170.466 216.684C167.527 216.97 163.963 216.714 161.771 213.522L161.563 213.204C160.868 212.084 160.838 210.892 160.962 210.013C161.087 209.133 161.401 208.287 161.745 207.548C162.432 206.066 163.512 204.439 164.658 202.869C165.823 201.272 167.166 199.587 168.453 197.981C168.814 197.532 169.167 197.088 169.515 196.654C169.288 196.403 169.099 196.111 168.964 195.781L168.01 193.444C167.461 192.099 167.955 190.553 169.184 189.775C175.155 185.997 181.407 180.927 185.996 175.293L186.155 175.112C186.542 174.708 187.036 174.419 187.581 174.28Z" fill="#252525" stroke="white" stroke-width="6" stroke-linejoin="round"/>
<path d="M209.646 176.894C210.707 176.617 211.832 176.795 212.752 177.376L212.934 177.498L213.108 177.63C213.959 178.31 214.496 179.315 214.581 180.41L214.582 180.422C214.664 181.525 215.036 182.193 215.461 182.63C215.915 183.097 216.599 183.471 217.518 183.663C219.333 184.04 221.485 183.582 222.91 182.599L223.186 182.395C224.294 181.511 225.74 181.167 227.129 181.463L227.128 181.463C229.381 181.937 235.45 183.229 238.135 183.8C239.385 184.066 240.427 184.918 240.939 186.085L241.029 186.306C241.44 187.421 241.331 188.667 240.723 189.696L240.722 189.697L235.218 199.008C233.872 201.283 231.223 202.442 228.64 201.89L228.64 201.891C219.213 199.903 209.217 200.56 199.583 202.054C198.536 202.216 197.481 201.814 196.808 200.996C196.102 200.139 195.457 198.937 195.494 197.448C195.531 195.95 196.244 194.72 197.12 193.788L197.28 193.63C197.446 193.478 197.63 193.344 197.826 193.233C199.58 192.237 200.895 189.961 200.22 184.406C200.111 183.515 200.407 182.623 201.026 181.974C203.346 179.542 206.477 177.784 209.592 176.909L209.646 176.894Z" fill="#252525" stroke="white" stroke-width="6" stroke-linejoin="round"/>
<path d="M203.188 197.881C205.24 197.565 207.788 197.355 210.554 197.244C215.746 197.034 221.922 197.161 227.436 197.652L228.529 197.756L228.545 197.757C230.126 197.923 231.489 198.939 232.101 200.404L232.102 200.405C232.535 201.443 232.54 202.588 232.155 203.61L241.523 202.033L242.039 201.961C244.456 201.692 246.882 202.384 248.794 203.884L249.196 204.218C251.294 206.064 252.449 208.757 252.34 211.55L252.341 211.551L251.921 222.27C251.815 225.004 249.782 227.263 247.102 227.677L246.841 227.711C235.407 228.943 223.764 229.865 212.392 228.586L211.322 233.128C210.454 236.815 207.281 239.505 203.501 239.759L194.494 240.365C192.991 240.466 191.543 239.788 190.657 238.572L190.657 238.571C189.771 237.354 189.571 235.768 190.129 234.369L190.13 234.369C195.457 220.968 197.346 209.454 196.787 202.225C196.71 201.229 197.135 200.259 197.919 199.64C198.684 199.035 199.634 198.693 200.382 198.474C201.208 198.233 202.166 198.039 203.188 197.881ZM209.414 208.454C209.053 208.462 208.818 208.515 208.678 208.559C208.617 208.989 208.597 209.331 208.607 209.595C208.61 209.688 208.617 209.764 208.624 209.825C208.633 209.826 208.642 209.829 208.651 209.83C208.649 209.829 208.847 209.83 209.11 209.588C209.342 209.375 209.502 209.074 209.534 208.731C209.531 208.716 209.528 208.696 209.52 208.671C209.493 208.584 209.452 208.505 209.414 208.454Z" fill="#252525" stroke="white" stroke-width="6" stroke-linejoin="round"/>
<path d="M261.317 130.306C262.894 129.648 264.675 129.729 266.178 130.514L266.475 130.68L266.761 130.864C268.157 131.819 269.066 133.347 269.229 135.043L269.28 135.588C269.392 136.899 269.441 138.24 269.377 139.659C270.959 139.148 272.84 138.541 274.829 137.899C280.213 136.162 286.385 134.17 289.541 133.151L289.542 133.151C290.782 132.751 292.122 132.834 293.299 133.375L293.532 133.489L293.76 133.615C294.879 134.273 295.71 135.327 296.09 136.567L296.089 136.567C297.675 141.706 299.322 147.53 297.869 153.497L297.719 154.076C296.224 159.467 291.284 162.265 286.169 164.008C281.668 165.542 276.149 166.544 270.72 167.536C270.737 168.082 270.756 168.675 270.773 169.274L270.774 169.275C270.933 173.874 267.982 178.003 263.583 179.346C259.767 180.536 255.908 180.764 252.05 179.963C248.537 179.234 246.275 175.8 246.991 172.284C249.005 162.085 249.723 151.245 248.96 139.672C248.796 137.216 250.213 134.928 252.484 133.979C254.717 133.048 258.547 131.45 261.317 130.306Z" fill="#252525" stroke="white" stroke-width="6" stroke-linejoin="round"/>
<path d="M281.318 127.509C283.72 127.154 285.968 128.702 286.527 131.027L286.576 131.255L286.578 131.268C286.798 132.461 287.108 134.109 287.266 134.972L287.265 134.972C287.554 136.53 287.007 138.116 285.838 139.166C285.827 139.175 285.817 139.184 285.806 139.193C285.026 139.874 284.044 140.4 283.113 140.818C282.145 141.252 281.038 141.654 279.879 142.028C277.567 142.776 274.829 143.486 272.182 144.162L272.181 144.161C270.98 144.468 269.713 144.211 268.729 143.473C267.74 142.731 267.137 141.577 267.102 140.332C267.05 138.576 266.958 135.513 266.902 133.728L266.902 133.725C266.831 131.405 268.508 129.396 270.81 129.057L281.318 127.51L281.318 127.509Z" fill="#252525" stroke="white" stroke-width="6" stroke-linejoin="round"/>
<path d="M281.759 160.311C283.609 159.691 285.648 160.065 287.158 161.306L287.159 161.306C288.111 162.089 288.764 163.147 289.055 164.305C290.72 164.172 292.395 164.622 293.777 165.602C295.345 166.714 296.401 168.408 296.712 170.298L296.764 170.679L296.766 170.692L296.999 172.844L296.999 172.849C297.372 176.291 296.019 179.695 293.381 181.939L293.379 181.94C292.487 182.698 291.563 183.484 290.862 184.08C290.794 184.137 290.728 184.192 290.665 184.246C290.247 193.037 291.044 202.11 292.401 211.393L292.434 211.65C292.73 214.311 291.48 216.916 289.207 218.349C289.2 218.354 289.192 218.36 289.184 218.364C285.106 220.885 280.252 222.024 274.702 221.847L274.702 221.848C274.7 221.848 274.697 221.848 274.695 221.848C274.69 221.848 274.685 221.848 274.679 221.847L274.679 221.846C270.587 221.732 267.295 218.442 267.182 214.347C267.033 209.013 266.982 203.452 267.14 197.395C263.726 199.879 259.674 201.825 255.335 203.425L255.334 203.424C253.731 204.016 251.958 203.938 250.414 203.209C248.869 202.478 247.684 201.157 247.124 199.542L247.125 199.541C245.749 195.6 244.861 191.226 244.96 186.074L244.961 186.07C245 184.173 246.048 182.441 247.708 181.525L247.715 181.521C254.064 178.043 260.732 175.393 267.497 173.155C267.46 171.911 267.413 170.355 267.373 169.035L267.373 169.034C267.282 165.986 269.384 163.31 272.367 162.678L272.374 162.676C276.044 161.907 279.205 161.119 281.758 160.309L281.759 160.311Z" fill="#252525" stroke="white" stroke-width="6" stroke-linejoin="round"/>
<path d="M310.992 169.514C312.588 169.34 314.37 169.401 315.918 169.939C317.469 170.477 319.417 171.782 319.671 174.328C319.761 175.231 319.624 176.231 319.457 177.093C319.277 178.019 319.003 179.062 318.673 180.155C318.013 182.345 317.076 184.894 316.04 187.397C315.004 189.901 313.844 192.412 312.726 194.521C311.666 196.52 310.474 198.492 309.324 199.631C307.867 201.073 305.892 201.353 304.439 201.318C302.891 201.281 301.286 200.88 299.888 200.291C298.516 199.713 297.08 198.841 296.049 197.66C295.007 196.466 294.019 194.445 294.996 192.18L294.997 192.178C295.985 189.894 297.34 186.579 298.692 183.273C300.032 179.993 301.373 176.714 302.305 174.569C303.103 172.732 304.739 171.572 306.155 170.877C307.646 170.145 309.363 169.692 310.992 169.514Z" fill="#7EA8E8" stroke="white" stroke-width="6" stroke-linejoin="round"/>
<path d="M324.248 154.226C325.713 153.884 327.49 153.736 329.146 153.714C330.811 153.693 332.544 153.799 333.947 154.046C334.628 154.166 335.385 154.344 336.052 154.634C336.383 154.778 336.828 155.008 337.247 155.373C337.639 155.714 338.184 156.332 338.385 157.26L338.42 157.451L338.421 157.455C338.98 161.027 339.279 168.341 339.04 175.602C338.92 179.261 338.661 182.984 338.214 186.291C337.775 189.531 337.124 192.619 336.116 194.859L336.117 194.86C335.042 197.248 332.529 198.782 330.427 199.739C328.141 200.78 325.477 201.523 323.072 201.94C320.767 202.34 318.277 202.515 316.473 202.111C315.992 202.003 315.414 201.823 314.86 201.496C314.302 201.168 313.593 200.583 313.205 199.612C312.457 197.739 313.446 196.193 314.107 195.419C314.175 195.247 314.27 194.965 314.387 194.55C314.625 193.699 314.892 192.51 315.178 191.03C315.747 188.082 316.351 184.204 316.943 180.056C317.534 175.918 318.107 171.553 318.614 167.642C319.12 163.745 319.564 160.274 319.893 157.966L319.893 157.965C320.13 156.305 321.356 155.426 321.993 155.06C322.716 154.646 323.533 154.393 324.248 154.226Z" fill="#B2D396" stroke="white" stroke-width="6" stroke-linejoin="round"/>
<path d="M303.884 125.563C306.212 125.228 308.577 125.881 310.403 127.367L310.737 127.654C311.461 128.308 312.059 129.079 312.513 129.925C312.738 129.865 312.974 129.801 313.221 129.735C315.375 129.156 318.34 128.358 321.591 127.484C328.091 125.736 335.732 123.683 340.289 122.46L340.288 122.459C343.909 121.485 347.708 123.103 349.528 126.343L349.698 126.662L349.703 126.671C363.685 154.556 369.177 178.43 366.852 200.683C366.852 200.69 366.851 200.699 366.85 200.706C366.649 202.494 366.012 204.81 365.146 206.96C364.299 209.064 363.073 211.409 361.49 212.992C359.293 215.19 356.068 217.076 350.905 218.816C345.747 220.555 338.46 222.21 327.951 223.832C324.366 224.386 320.774 222.891 318.64 219.96C317.395 218.248 315.783 216.036 314.213 213.879L314.212 213.877C312.411 211.399 312.193 208.104 313.657 205.409L313.659 205.406C315.127 202.714 318.012 201.104 321.074 201.273C321.083 201.274 321.093 201.275 321.102 201.275C326.637 201.634 331.505 201.667 335.289 200.432C337.118 199.834 338.609 198.964 339.784 197.744C340.954 196.53 341.942 194.833 342.568 192.385L342.612 192.191C342.826 191.169 342.882 189.324 342.641 186.657C342.391 183.906 341.853 180.561 341.058 176.887C339.561 169.967 337.192 162.049 334.285 154.983C328.958 156.528 322.929 158.196 314.376 160.316C314.452 164.939 313.685 168.832 311.314 171.703C308.469 175.147 303.997 176.322 298.744 176.583L298.744 176.584C298.741 176.584 298.737 176.584 298.734 176.584C298.731 176.584 298.729 176.585 298.726 176.585L298.726 176.584C297.327 176.656 295.96 176.145 294.952 175.171L294.953 175.17C293.943 174.194 293.383 172.841 293.412 171.434L293.411 171.434L294.192 131.561L294.192 131.556C294.248 128.9 296.215 126.665 298.854 126.285L298.855 126.285L303.884 125.563Z" fill="#252525" stroke="white" stroke-width="6" stroke-linejoin="round"/>
</g>
<path fill-rule="evenodd" clip-rule="evenodd" d="M78.6551 202.951C78.7069 202.96 78.7597 202.964 78.814 202.964C86.0864 202.938 92.0653 210.247 93.2421 217.475C93.3248 217.983 93.8045 218.329 94.3127 218.246C94.8207 218.164 95.1663 217.684 95.0836 217.176C93.893 209.861 88.1852 202.594 81.0845 201.301C81.0826 201.235 81.0787 201.167 81.0729 201.096C80.1816 190.289 71.0881 160.516 72.28 157.069C73.7864 152.714 102.159 144.528 104.725 146.672C108.358 149.708 113.064 169.209 113.064 169.209C108.597 171.708 107.59 175.747 109.713 184.166C109.713 184.166 116.495 202.737 116.644 205.766C117.598 225.223 109.66 236.915 97.9741 240.815C81.1581 246.426 68.0694 241.219 60.4732 226.576C55.9958 217.945 60.3272 210.15 66.3126 205.448C70.9496 201.805 75.8267 202.87 78.6551 202.951Z" fill="#252525"/>
<path fill-rule="evenodd" clip-rule="evenodd" d="M126.812 165.097C125.017 164.025 112.615 170.753 111.292 173.136C109.864 175.709 110.405 180.759 113.221 188.846C117.427 200.923 120.814 210.008 122.084 210.273C126.075 211.106 139.097 207.231 141.55 199.338C142.672 195.728 131.824 168.091 126.812 165.097Z" fill="#D2BDFC"/>
<path fill-rule="evenodd" clip-rule="evenodd" d="M58.3172 171.624C60.9439 171.241 71.8707 182.109 72.2568 184.181C72.6771 186.435 47.3968 211.807 47.3968 211.807C46.0985 213.393 41.637 213.095 42.4313 211.249C39.4645 212.767 37.4534 210.859 38.0593 208.583C35.8194 209.747 33.0871 208.491 33.7604 205.207C30.875 206.388 27.6277 203.859 30.5091 199.703L36.3767 192.528C36.3767 192.528 33.8167 189.85 36.2183 186.644C38.3701 183.772 42.975 187.122 42.975 187.122C42.975 187.122 56.1338 171.942 58.3172 171.624ZM37.8515 202.538C41.0288 205.614 43.8662 206.045 47.1944 205.064C47.6882 204.918 47.9711 204.399 47.8255 203.905C47.68 203.411 47.1608 203.129 46.6669 203.274C43.985 204.065 41.7095 203.676 39.149 201.198C38.7792 200.84 38.1881 200.849 37.83 201.219C37.4721 201.589 37.4817 202.18 37.8515 202.538Z" fill="#252525"/>
<path fill-rule="evenodd" clip-rule="evenodd" d="M170.675 123.192L201.911 123.066C202.962 134.158 199.672 143.679 186.513 145.693C176.342 147.249 169.233 137.172 170.675 123.192ZM194.113 128.287C193.39 128.358 192.866 129.058 192.943 129.849C193.021 130.64 193.671 131.225 194.394 131.154C195.117 131.083 195.642 130.384 195.564 129.592C195.487 128.801 194.836 128.216 194.113 128.287ZM188.309 133.201C187.587 133.271 187.101 134.063 187.162 134.69C187.224 135.317 187.859 135.769 188.58 135.699C189.302 135.628 189.788 135.064 189.776 134.434C189.759 133.471 189.03 133.13 188.309 133.201Z" fill="#FDAE96"/>
<path fill-rule="evenodd" clip-rule="evenodd" d="M152.066 142.435C152.159 141.818 152.585 141.302 153.173 141.093C156.183 140.028 165.437 136.752 168.435 135.691C168.961 135.504 169.543 135.759 169.763 136.272C172.972 143.649 179.102 148.29 188.289 146.995C198.745 145.521 203.221 137.265 204.161 128.702C204.224 128.1 204.638 127.593 205.216 127.413C208.14 126.497 216.951 123.745 220.668 122.583C221.645 122.278 222.701 122.709 223.185 123.611C224.733 126.492 228.048 132.665 229.795 135.917C230.077 136.442 230.115 137.066 229.899 137.622C229.683 138.178 229.234 138.612 228.671 138.809C217.994 142.548 172.728 158.399 165.653 160.877C165.09 161.074 164.704 161.594 164.678 162.189C164.374 169.103 162.559 210.385 162.018 222.684C161.925 224.802 160.647 226.689 158.714 227.561C153.264 230.019 142.192 235.012 137.262 237.236C136.61 237.53 135.868 237.552 135.2 237.296C134.532 237.041 133.993 236.529 133.704 235.875C132.809 233.85 131.562 231.029 130.752 229.198C130.287 228.146 130.684 226.914 131.675 226.331C133.567 225.219 136.575 223.451 138.471 222.337C139.576 221.687 140.33 220.573 140.52 219.304C142.244 207.83 150.821 150.723 152.066 142.435Z" fill="#252525"/>
<path fill-rule="evenodd" clip-rule="evenodd" d="M185.269 155.087L173.554 159.566C173.554 159.566 171.98 165.041 172.359 165.347C172.576 165.523 173.236 165.308 173.584 165.26C176.953 164.795 180.173 164.75 180.751 166.635C181.39 168.719 179.115 170.847 177.356 172.082C177.077 172.275 176.702 172.246 176.457 172.013C175.366 170.988 172.402 168.34 171.002 168.516C169.268 168.734 166.474 172.236 166.467 173.718C166.462 174.788 168.804 176.235 170.108 176.957C170.305 177.066 170.437 177.263 170.462 177.487C170.488 177.711 170.403 177.933 170.236 178.083C169.035 179.147 167.851 179.939 166.539 180.971C166.348 181.121 165.851 181.429 165.822 181.613C165.736 182.165 165.273 192.274 165.727 192.738C165.988 193.005 167.086 192.164 167.504 191.911C181.052 183.717 194.061 171.931 193.649 163.398C193.367 157.564 191 154.274 185.269 155.087Z" fill="#252525"/>
<path fill-rule="evenodd" clip-rule="evenodd" d="M204.484 149.334C202.439 147.013 196.738 166.4 197.436 168.772C198.729 173.168 240.979 188.423 242.475 185.29C243.246 183.676 245.582 168.754 242.551 168.516C239.253 168.258 209.369 154.88 204.484 149.334Z" fill="#252525"/>
<path fill-rule="evenodd" clip-rule="evenodd" d="M217.633 145.9C217.285 146.03 217.008 146.3 216.868 146.644C216.024 148.713 215.486 150.428 215.192 151.86C215.129 152.224 215.231 152.597 215.471 152.878C215.71 153.158 216.063 153.317 216.433 153.311C217.585 153.296 219.112 153.27 219.831 153.257C220.093 153.253 220.34 153.133 220.504 152.928C222.471 150.489 223.622 148.323 223.802 146.482C223.821 146.147 223.63 145.836 223.322 145.701C221.726 145.017 219.833 145.077 217.633 145.9Z" fill="#252525"/>
<path fill-rule="evenodd" clip-rule="evenodd" d="M236.186 143.463C235.323 143.203 234.386 143.464 233.781 144.133C231.539 146.6 226.061 152.654 224.166 154.746C223.998 154.932 223.918 155.181 223.947 155.43C223.976 155.679 224.111 155.903 224.318 156.045C226.794 157.715 229.634 158.946 232.796 159.791C233.573 159.995 234.4 159.767 234.962 159.193C237.15 156.966 242.745 151.256 244.851 149.107C245.055 148.898 245.157 148.609 245.129 148.317C245.101 148.026 244.944 147.762 244.703 147.596C242.133 145.859 239.332 144.431 236.186 143.463Z" fill="#252525"/>
<path fill-rule="evenodd" clip-rule="evenodd" d="M188.322 177.187C183.475 183.138 176.95 188.411 170.788 192.31L171.742 194.648L177.174 192.874C177.149 194.099 175.818 195.192 174.44 195.226C170.142 200.967 162.557 209.117 164.112 211.621C166.538 215.529 172.439 213.19 180.369 211.805C177.259 215.026 172.504 220.735 166.867 223.609C166.282 223.907 164.589 223.135 164.438 224.401C164.212 226.307 169.89 232.551 172.209 231.964C183.327 229.154 196.067 218.927 197.34 212.092C198.274 207.069 195.239 201.295 190.828 200.153C199.23 196.225 204.228 189.563 201.036 182.593C199.476 179.187 196.021 175.226 188.322 177.187Z" fill="#252525"/>
<path fill-rule="evenodd" clip-rule="evenodd" d="M203.197 184.044C205.108 182.041 207.752 180.542 210.403 179.797C210.675 179.726 210.965 179.779 211.194 179.942C211.423 180.105 211.568 180.361 211.59 180.642C212.107 187.653 220.764 188.151 225.052 184.743C225.459 184.416 225.992 184.289 226.504 184.398C228.746 184.869 234.82 186.162 237.51 186.735C237.814 186.799 238.068 187.006 238.193 187.291C238.317 187.575 238.298 187.903 238.14 188.17C236.883 190.296 234.19 194.851 232.635 197.481C231.945 198.648 230.584 199.242 229.259 198.955C219.311 196.858 208.898 197.573 199.123 199.089C198.29 198.077 198.214 197.006 199.307 195.842C202.67 193.932 203.921 190.004 203.197 184.044Z" fill="#252525"/>
<path fill-rule="evenodd" clip-rule="evenodd" d="M199.779 201.994C202.162 200.111 216.968 199.619 228.232 200.741C228.721 200.792 229.143 201.106 229.333 201.561C229.523 202.015 229.45 202.537 229.142 202.921C228.23 204.062 227.093 205.483 226.279 206.501C226.112 206.71 226.091 207 226.227 207.231C226.362 207.461 226.626 207.584 226.89 207.54L242.021 204.992C243.886 204.677 245.794 205.22 247.215 206.47C248.635 207.72 249.416 209.543 249.343 211.433L248.923 222.153C248.871 223.489 247.848 224.585 246.519 224.728C234.186 226.057 221.92 226.985 210.092 225.268L208.402 232.44C207.835 234.845 205.766 236.6 203.3 236.766L194.292 237.371C193.818 237.403 193.361 237.19 193.082 236.806C192.802 236.422 192.739 235.921 192.915 235.48C198.342 221.831 200.385 209.839 199.779 201.994ZM209.366 205.454C207.252 205.495 206 206.446 205.778 207.692C205.257 210.632 205.846 212.599 208.395 212.818C210.338 212.985 212.398 211.244 212.534 208.854C212.605 207.618 211.64 205.41 209.366 205.454Z" fill="#252525"/>
<path fill-rule="evenodd" clip-rule="evenodd" d="M253.64 136.748C252.552 137.202 251.874 138.299 251.954 139.475C252.733 151.304 252 162.412 249.931 172.883C249.545 174.78 250.765 176.632 252.66 177.025C255.996 177.718 259.338 177.528 262.69 176.483C265.8 175.542 267.888 172.626 267.776 169.378C267.712 167.18 267.639 165.051 267.639 165.051C280.361 162.682 292.688 160.992 294.828 153.274C296.274 148.055 294.88 142.818 293.221 137.446C293.05 136.887 292.663 136.419 292.144 136.149C291.625 135.878 291.02 135.826 290.463 136.006C284.15 138.043 265.773 143.975 265.773 143.975C266.515 140.697 266.508 138.011 266.244 135.337C266.162 134.473 265.675 133.699 264.931 133.253C264.186 132.806 263.274 132.74 262.473 133.074C259.709 134.215 255.878 135.814 253.64 136.748Z" fill="#252525"/>
<path fill-rule="evenodd" clip-rule="evenodd" d="M269.9 133.635C269.876 132.834 270.454 132.142 271.248 132.025C273.775 131.653 279.097 130.868 281.756 130.476C282.637 130.346 283.463 130.936 283.628 131.812C283.852 133.027 284.156 134.645 284.315 135.513C284.415 136.038 284.231 136.576 283.834 136.932C282.03 138.506 276.761 139.897 271.44 141.255C271.124 141.336 270.79 141.269 270.529 141.073C270.268 140.877 270.11 140.574 270.101 140.248C270.049 138.492 269.956 135.423 269.9 133.635Z" fill="#252525"/>
<path fill-rule="evenodd" clip-rule="evenodd" d="M270.372 168.944C270.324 167.347 271.425 165.944 272.989 165.613C276.714 164.832 279.98 164.02 282.665 163.168C283.547 162.855 284.528 163.027 285.253 163.623C285.977 164.218 286.335 165.15 286.198 166.076C286.044 167.174 285.915 168.038 285.915 168.038C285.915 168.038 287.189 167.74 288.674 167.392C289.84 167.119 291.066 167.358 292.042 168.05C293.017 168.741 293.652 169.818 293.782 171.007C293.859 171.729 293.94 172.469 294.017 173.172C294.283 175.627 293.317 178.055 291.437 179.654C289.654 181.169 287.739 182.796 287.739 182.796C287.159 192.272 287.995 201.999 289.433 211.834C289.667 213.405 288.949 214.965 287.607 215.812C284.114 217.971 279.86 219.014 274.777 218.849C272.269 218.786 270.25 216.772 270.181 214.264C269.974 206.874 269.958 199.062 270.43 190.096C266.925 194.761 261.214 198.06 254.297 200.61C253.45 200.924 252.513 200.883 251.697 200.497C250.881 200.111 250.254 199.413 249.959 198.56C248.684 194.91 247.869 190.887 247.96 186.131C247.977 185.305 248.433 184.551 249.157 184.152C255.949 180.431 263.164 177.664 270.564 175.314C270.564 175.314 270.453 171.637 270.372 168.944Z" fill="#252525"/>
<path fill-rule="evenodd" clip-rule="evenodd" d="M305.056 175.764C303.224 179.979 299.757 188.731 297.75 193.37C296.387 196.528 304.767 199.92 307.213 197.499C310.369 194.375 317.046 178.248 316.686 174.626C316.325 171.003 306.607 172.191 305.056 175.764Z" fill="#7EA8E8"/>
<path fill-rule="evenodd" clip-rule="evenodd" d="M322.863 158.39C321.561 167.52 318.418 195.219 316.507 197.233C312.523 201.431 331.007 198.906 333.381 193.629C336.675 186.31 336.49 164.516 335.457 157.919C335.203 156.31 323.182 156.157 322.863 158.39Z" fill="#B2D396"/>
<path fill-rule="evenodd" clip-rule="evenodd" d="M336.493 152.489C341.307 149.941 342.944 144.11 341.393 138.967C341.281 138.6 340.908 138.395 340.563 138.508C340.216 138.621 340.023 139.01 340.136 139.376C341.585 144.176 339.896 149.676 335.022 151.645C328.86 153.449 321.968 155.382 311.27 157.994C312.079 169.158 308.641 173.093 298.578 173.588C298.007 173.62 297.449 173.412 297.037 173.014C296.626 172.616 296.398 172.065 296.41 171.493L297.191 131.62C297.217 130.426 298.1 129.425 299.281 129.255L304.311 128.532C305.812 128.316 307.336 128.738 308.511 129.695C309.688 130.652 310.412 132.057 310.506 133.571C310.506 133.571 331.956 127.803 341.068 125.356C343.432 124.72 345.916 125.831 347.021 128.016C360.841 155.578 366.116 178.867 363.869 200.371C363.543 203.265 361.682 208.558 359.369 210.871C355.869 214.371 348.369 217.645 327.493 220.867C325.018 221.25 322.539 220.218 321.066 218.194C319.814 216.473 318.213 214.277 316.639 212.113C315.517 210.57 315.382 208.519 316.293 206.842C317.207 205.165 319.004 204.164 320.909 204.269C331.926 204.983 342.533 204.64 345.474 193.128C347.005 187.144 342.98 167.657 336.493 152.489Z" fill="#252525"/>
<defs>
<filter id="filter0_d_142_4" x="263.363" y="9.3276" width="195.335" height="170.993" filterUnits="userSpaceOnUse" color-interpolation-filters="sRGB">
<feFlood flood-opacity="0" result="BackgroundImageFix"/>
<feColorMatrix in="SourceAlpha" type="matrix" values="0 0 0 0 0 0 0 0 0 0 0 0 0 0 0 0 0 0 127 0" result="hardAlpha"/>
<feOffset/>
<feGaussianBlur stdDeviation="4.3"/>
<feComposite in2="hardAlpha" operator="out"/>
<feColorMatrix type="matrix" values="0 0 0 0 0.622333 0 0 0 0 0.480155 0 0 0 0 0.480155 0 0 0 0.89 0"/>
<feBlend mode="normal" in2="BackgroundImageFix" result="effect1_dropShadow_142_4"/>
<feBlend mode="normal" in="SourceGraphic" in2="effect1_dropShadow_142_4" result="shape"/>
</filter>
<filter id="filter1_d_142_4" x="-70.0349" y="223.63" width="177.705" height="232.205" filterUnits="userSpaceOnUse" color-interpolation-filters="sRGB">
<feFlood flood-opacity="0" result="BackgroundImageFix"/>
<feColorMatrix in="SourceAlpha" type="matrix" values="0 0 0 0 0 0 0 0 0 0 0 0 0 0 0 0 0 0 127 0" result="hardAlpha"/>
<feOffset/>
<feGaussianBlur stdDeviation="4.3"/>
<feComposite in2="hardAlpha" operator="out"/>
<feColorMatrix type="matrix" values="0 0 0 0 0.622333 0 0 0 0 0.480155 0 0 0 0 0.480155 0 0 0 0.89 0"/>
<feBlend mode="normal" in2="BackgroundImageFix" result="effect1_dropShadow_142_4"/>
<feBlend mode="normal" in="SourceGraphic" in2="effect1_dropShadow_142_4" result="shape"/>
</filter>
<filter id="filter2_n_142_4" x="188.406" y="251.06" width="134.284" height="33.8451" filterUnits="userSpaceOnUse" color-interpolation-filters="sRGB">
<feFlood flood-opacity="0" result="BackgroundImageFix"/>
<feBlend mode="normal" in="SourceGraphic" in2="BackgroundImageFix" result="shape"/>
<feTurbulence type="fractalNoise" baseFrequency="2 2" stitchTiles="stitch" numOctaves="3" result="noise" seed="6965" />
<feColorMatrix in="noise" type="luminanceToAlpha" result="alphaNoise" />
<feComponentTransfer in="alphaNoise" result="coloredNoise1">
<feFuncA type="discrete" tableValues="0 0 0 0 0 0 0 0 0 0 0 0 0 0 0 0 0 0 0 0 0 0 0 0 0 1 0 0 0 0 0 0 0 0 0 0 0 0 0 0 0 0 0 0 0 0 0 0 0 0 0 0 0 0 0 0 0 0 0 0 0 0 0 0 0 0 0 0 0 0 0 0 0 0 0 0 0 0 0 0 0 0 0 0 0 0 0 0 0 0 0 0 0 0 0 0 0 0 0 0 "/>
</feComponentTransfer>
<feComposite operator="in" in2="shape" in="coloredNoise1" result="noise1Clipped" />
<feFlood flood-color="#F3F0E7" result="color1Flood" />
<feComposite operator="in" in2="noise1Clipped" in="color1Flood" result="color1" />
<feMerge result="effect1_noise_142_4">
<feMergeNode in="shape" />
<feMergeNode in="color1" />
</feMerge>
</filter>
<filter id="filter3_d_142_4" x="15.5799" y="108.685" width="362.589" height="148.137" filterUnits="userSpaceOnUse" color-interpolation-filters="sRGB">
<feFlood flood-opacity="0" result="BackgroundImageFix"/>
<feColorMatrix in="SourceAlpha" type="matrix" values="0 0 0 0 0 0 0 0 0 0 0 0 0 0 0 0 0 0 127 0" result="hardAlpha"/>
<feOffset/>
<feGaussianBlur stdDeviation="3.9"/>
<feComposite in2="hardAlpha" operator="out"/>
<feColorMatrix type="matrix" values="0 0 0 0 0.622333 0 0 0 0 0.480155 0 0 0 0 0.480155 0 0 0 0.42 0"/>
<feBlend mode="normal" in2="BackgroundImageFix" result="effect1_dropShadow_142_4"/>
<feBlend mode="normal" in="SourceGraphic" in2="effect1_dropShadow_142_4" result="shape"/>
</filter>
</defs>
</svg>
